<svg width="323" height="59" viewBox="0 0 323 59" fill="none" xmlns="http://www.w3.org/2000/svg">
<path d="M112.546 56.7662L110.344 54.5324L111.644 53.1856C112.363 52.445 112.948 51.5499 112.948 51.1959C112.948 50.8459 113.221 50.3251 113.558 50.0484C113.895 49.7717 114.167 49.1858 114.167 48.7505C114.167 48.3151 114.716 47.4972 115.386 46.9357C116.089 46.3417 116.605 45.5116 116.605 44.9704C116.605 44.4537 116.877 43.9248 117.214 43.7986C117.552 43.6684 117.824 43.1394 117.824 42.6227C117.824 42.1059 118.19 41.3695 118.636 40.987C119.083 40.6045 119.449 40.0105 119.449 39.6646C119.449 39.3188 119.998 38.4968 120.668 37.8417C121.338 37.1867 121.887 36.2915 121.887 35.8561C121.887 35.4207 122.435 34.6029 123.106 34.0373C123.776 33.4758 124.325 32.658 124.325 32.2226C124.325 31.7872 124.597 31.2013 124.934 30.9246C125.271 30.6479 125.543 30.1353 125.543 29.7894C125.543 29.4395 125.824 28.8495 126.165 28.4711C126.506 28.0927 126.868 27.3521 126.969 26.8313C127.071 26.3064 127.433 25.7246 127.77 25.5333C128.111 25.3421 128.387 24.7602 128.387 24.2354C128.387 23.7105 128.66 23.1734 128.997 23.0472C129.334 22.917 129.606 22.3433 129.606 21.7696C129.606 21.1959 129.879 20.6222 130.216 20.492C130.553 20.3658 130.825 19.8165 130.825 19.2713C130.825 18.7301 131.097 18.1808 131.435 18.0506C131.772 17.9245 132.044 17.3996 132.044 16.8951C132.044 16.3865 132.316 15.7395 132.653 15.4628C133.45 14.7996 133.486 11.8008 132.698 11.8008C132.385 11.8008 132.024 12.0734 131.898 12.4111C131.768 12.7489 131.296 13.0215 130.85 13.0215C130.399 13.0215 129.212 13.8434 128.205 14.8525C127.201 15.8616 126.076 16.6835 125.71 16.6835C124.836 16.6835 107.667 33.8746 107.667 34.7494C107.667 35.1237 106.57 36.5275 105.229 37.8743C103.888 39.2211 102.791 40.572 102.791 40.8731C102.791 41.1742 101.877 42.3582 100.76 43.4975C99.6425 44.6409 98.7283 45.8982 98.7283 46.2888C98.7242 46.6753 97.9035 47.782 96.9 48.7423C95.8924 49.7066 95.0717 50.8134 95.0717 51.2081C95.0717 51.6027 94.4419 52.5345 93.67 53.2832C92.898 54.0319 92.2155 55.0288 92.1464 55.4967C91.9433 56.9249 90.6391 56.7621 88.9327 55.0898C87.275 53.4704 86.9337 52.1236 87.9616 51.2691C88.2989 50.9924 88.5711 50.4431 88.5711 50.0484C88.5711 49.6537 88.8433 49.1044 89.1805 48.8278C89.5177 48.5511 89.7899 47.9041 89.7899 47.3955C89.7899 46.891 90.0621 46.3661 90.3994 46.2399C90.7366 46.1097 91.0088 45.536 91.0088 44.9623C91.0088 44.3886 91.281 43.8149 91.6182 43.6847C91.9555 43.5585 92.2277 43.0092 92.2277 42.464C92.2277 41.9228 92.4999 41.3735 92.8371 41.2433C93.1743 41.1172 93.4465 40.6004 93.4465 40.1C93.4465 39.5995 93.8122 38.859 94.2591 38.4521C94.706 38.0452 95.0717 37.4104 95.0717 37.0402C95.0717 36.6699 95.6202 35.8398 96.2906 35.197C96.9609 34.5541 97.5094 33.72 97.5094 33.3415C97.5094 32.9631 97.7816 32.422 98.1189 32.1453C98.4561 31.8686 98.7283 31.2217 98.7283 30.713C98.7283 30.2085 99.0005 29.6836 99.3377 29.5575C99.675 29.4273 99.9472 28.8536 99.9472 28.2798C99.9472 27.7061 100.219 27.1324 100.557 27.0022C100.894 26.8761 101.166 26.3634 101.166 25.867C101.166 25.3299 101.747 24.4795 102.588 23.7756C103.453 23.0513 104.01 22.2253 104.01 21.6557C104.01 21.1471 104.282 20.6222 104.619 20.492C104.957 20.3658 105.229 19.8409 105.229 19.3364C105.229 18.8278 105.501 18.1808 105.838 17.9042C106.176 17.6275 106.448 17.0782 106.448 16.6835C106.448 16.2888 106.72 15.7395 107.057 15.4628C107.724 14.9094 107.915 11.8008 107.285 11.8008C106.594 11.8008 92.2277 26.4081 92.2277 27.108C92.2277 27.4864 91.1307 28.8658 89.7899 30.1759C88.4492 31.4861 87.3522 32.894 87.3522 33.3049C87.3522 33.7159 86.1658 35.1929 84.7113 36.5885C83.2568 37.9882 82.0704 39.4449 82.0704 39.8233C82.0704 40.2058 81.2497 41.3288 80.2421 42.3175C79.2345 43.3063 78.4138 44.4008 78.4138 44.7467C78.4138 45.5889 68.6344 55.338 67.7934 55.338C67.4318 55.338 66.9077 55.6106 66.6314 55.9483C66.3105 56.3349 65.4166 56.5587 64.2059 56.5587C62.4142 56.5587 62.1338 56.404 59.9886 54.2597L57.6931 51.9608V48.604C57.6931 45.9999 57.8272 45.2024 58.3025 45.0193C58.721 44.8565 58.9119 44.2055 58.9119 42.9401C58.9119 41.5729 59.0704 41.0969 59.5214 41.0969C59.8586 41.0969 60.1308 40.8242 60.1308 40.4865C60.1308 40.1488 60.0211 39.8762 59.8911 39.8762C59.3101 39.8762 56.4742 42.9604 56.4742 43.5911C56.4742 44.5188 45.6385 55.338 44.7081 55.338C44.3059 55.338 43.7492 55.6106 43.473 55.9483C43.1561 56.3308 42.2622 56.5587 41.0759 56.5587C39.2679 56.5587 39.0566 56.4284 36.2491 53.6006C33.6936 51.0209 33.3157 50.4513 33.3157 49.1655C33.3157 48.2337 33.0923 47.6071 32.7063 47.4606C32.2106 47.2694 32.0969 46.3132 32.0969 42.3745C32.0969 38.4358 32.2106 37.4796 32.7063 37.2884C33.3279 37.0483 33.592 34.1838 33.0394 33.6345C32.6332 33.2235 30.878 35.022 30.878 35.852C30.878 36.2427 29.9638 37.4471 28.8506 38.5253C27.7333 39.6036 26.8192 40.7958 26.8192 41.1701C26.8151 41.5485 25.4418 43.2493 23.7679 44.9501C22.094 46.6509 20.7208 48.3232 20.7208 48.6691C20.7208 49.5439 16.0769 54.1132 15.1668 54.1336C14.7564 54.1458 13.9764 54.6951 13.4279 55.3543C12.6519 56.2901 12.0952 56.5587 10.9373 56.5587C10.1044 56.5587 9.2187 56.8272 8.93836 57.169C8.66209 57.5067 8.1136 57.7793 7.7195 57.7793C7.3254 57.7793 6.77691 57.5067 6.50063 57.169C6.22435 56.8313 5.67992 56.5587 5.29395 56.5587C4.90797 56.5587 3.55909 55.5252 2.29553 54.2597L0 51.9608L0.00812752 48.0547C0.0121904 44.4781 0.093448 44.0712 0.979159 43.233C1.50733 42.7285 2.21428 42.3175 2.54744 42.3175C3.37627 42.3175 6.50063 45.5075 6.50063 46.3498C6.50063 46.7282 5.96026 47.485 5.29801 48.0343C4.31885 48.844 4.09539 49.3526 4.07914 50.7605L4.06289 52.4898H5.8465C7.06131 52.4898 7.70731 52.2945 7.86576 51.8794C7.99577 51.5417 8.47926 51.2691 8.93836 51.2691C9.40153 51.2691 10.3157 50.7198 10.9698 50.0484C11.6239 49.3771 12.4893 48.8237 12.8875 48.8196C13.8098 48.8115 15.439 47.1066 15.439 46.1545C15.439 45.7517 16.9016 44.0143 18.6893 42.2931C20.477 40.572 21.9396 38.8346 21.9396 38.4317C21.9396 38.0289 22.7603 36.914 23.7679 35.9497C24.7755 34.9813 25.5962 33.8664 25.5962 33.4636C25.5962 33.0608 26.7867 31.5512 28.2371 30.1108C29.6916 28.6705 30.878 27.2097 30.878 26.8639C30.878 26.518 34.6199 22.4939 39.1907 17.9204C43.7614 13.347 47.5521 9.22927 47.6212 8.76948C47.6902 8.28528 48.0925 7.88654 48.5841 7.8133C49.0472 7.7482 50.5952 6.51125 52.0253 5.0668C53.4514 3.62234 54.9263 2.44235 55.296 2.44235C55.6657 2.44235 56.1979 2.16974 56.4742 1.83202C56.7505 1.4943 57.3477 1.22169 57.7987 1.22169C58.2497 1.22169 58.8673 0.900243 59.172 0.509629C59.7002 -0.169876 59.7448 -0.169876 60.1511 0.509629C60.3868 0.900243 61.0328 1.22169 61.5853 1.22169C62.1419 1.22169 62.6986 1.4943 62.8286 1.83202C62.9545 2.16974 63.4136 2.44235 63.8443 2.44235C64.925 2.44235 71.9132 9.46527 71.9132 10.5476C71.9132 11.1701 72.1732 11.3939 72.8924 11.3939C74.1112 11.3939 78.4138 7.30875 78.4138 6.15318C78.4138 5.42078 80.1365 3.66302 80.8556 3.66302C81.0222 3.66302 81.9282 4.41169 82.8668 5.32313C84.4472 6.86117 84.5285 7.03614 83.9312 7.6953C83.5778 8.08591 83.2893 8.78576 83.2893 9.24555C83.2893 9.7094 83.0171 10.1936 82.6799 10.3197C82.3427 10.4499 82.0704 10.9789 82.0704 11.5038C82.0704 12.0572 81.5707 12.8628 80.8678 13.4487C80.1975 14.0021 79.6611 14.8566 79.649 15.3733C79.6408 15.886 79.3605 16.4068 79.0233 16.537C78.686 16.6631 78.4138 17.1718 78.4138 17.6641C78.4138 18.1564 77.7719 19.1777 76.9918 19.9386C76.2117 20.6995 75.5698 21.6272 75.5698 22.0015C75.5698 22.3799 75.2976 22.917 74.9604 23.1937C74.6232 23.4704 74.3509 24.0197 74.3509 24.4144C74.3509 24.8091 74.0787 25.3584 73.7415 25.6351C73.4043 25.9117 73.1321 26.5587 73.1321 27.0673C73.1321 27.5718 72.8599 28.0967 72.5226 28.2229C72.1854 28.3531 71.9132 28.882 71.9132 29.3988C71.9132 29.9359 71.385 30.8026 70.674 31.4251C69.9955 32.0232 69.3576 32.9265 69.2601 33.427C69.1626 33.9315 68.8051 34.4971 68.4679 34.6884C68.1266 34.8796 67.8503 35.4614 67.8503 35.9823C67.8503 36.5031 67.5781 37.1582 67.2409 37.4349C66.9037 37.7115 66.6314 38.2608 66.6314 38.6555C66.6314 39.0502 66.3592 39.5995 66.022 39.8762C65.6848 40.1529 65.4126 40.7022 65.4126 41.0969C65.4126 41.4915 65.1404 42.0408 64.8031 42.3175C64.4497 42.6105 64.1937 43.4975 64.1937 44.413C64.1937 45.4546 63.9824 46.0853 63.5843 46.2399C63.1374 46.4108 62.9748 47.1148 62.9748 48.8725C62.9748 51.3057 63.2836 51.7574 64.1937 50.6588C64.47 50.321 65.0022 50.0484 65.3719 50.0484C66.2048 50.0484 71.9132 44.352 71.9132 43.5179C71.9132 43.1842 73.3758 41.4509 75.1635 39.6727C76.9512 37.8946 78.4138 36.1491 78.4138 35.7992C78.4138 35.4492 79.2345 34.3547 80.2421 33.366C81.2497 32.3772 82.0786 31.1932 82.0867 30.7375C82.0989 30.2817 82.6474 29.4598 83.3056 28.9105C83.9678 28.3612 84.5082 27.5841 84.5082 27.1812C84.5082 26.7743 87.6691 23.2995 91.6182 19.369C95.5267 15.475 98.7283 11.9839 98.7283 11.6096C98.7283 11.2393 101.182 8.47653 104.185 5.46961L109.641 0.00509009L112.514 2.87773L115.386 5.7463V9.19265C115.386 11.8822 115.252 12.6919 114.777 12.875C114.123 13.1232 113.895 16.061 114.5 16.4353C114.683 16.5452 117.377 14.0875 120.485 10.9667C123.597 7.84585 126.429 5.29058 126.779 5.29058C127.128 5.29058 128.034 4.6477 128.794 3.86647C129.553 3.08524 130.573 2.44235 131.065 2.44235C131.556 2.44235 132.064 2.16974 132.19 1.83202C132.337 1.45768 132.95 1.22169 133.795 1.22169C134.916 1.22169 135.591 1.64078 137.468 3.48399L139.764 5.75037V9.80706C139.764 13.0337 139.638 13.9085 139.154 14.0957C138.512 14.3398 138.309 16.0813 138.878 16.4353C139.061 16.5492 140.934 14.9135 143.034 12.7977C145.139 10.6819 147.138 8.95259 147.483 8.95259C147.828 8.95259 149.567 7.48778 151.343 5.69747C154.447 2.57256 154.65 2.44235 156.438 2.44235C157.965 2.44235 158.506 2.65394 159.436 3.63048C160.062 4.2815 160.464 4.98949 160.334 5.20514C160.204 5.41672 160.46 5.91719 160.899 6.31594C161.61 6.95882 161.703 7.58137 161.703 11.6747C161.703 15.414 161.585 16.3458 161.094 16.537C160.756 16.6631 160.484 17.0944 160.484 17.4851C160.484 17.8797 160.119 18.665 159.672 19.2347C159.225 19.8043 158.859 20.8012 158.859 21.4522C158.859 22.2335 158.449 23.031 157.64 23.8041C156.97 24.4469 156.413 25.3502 156.405 25.8141C156.393 26.2739 155.844 27.0999 155.186 27.6492C154.524 28.1985 153.984 29.0041 153.984 29.4395C153.984 29.8748 153.342 30.8555 152.562 31.6163C151.782 32.3772 151.132 33.309 151.123 33.6915C151.111 34.0699 150.563 34.8308 149.905 35.3801C149.096 36.0514 148.702 36.7513 148.702 37.5162C148.702 38.2568 148.491 38.6555 148.092 38.6555C147.755 38.6555 147.483 38.9281 147.483 39.2659C147.483 39.6036 147.211 39.8762 146.874 39.8762C146.536 39.8762 146.264 40.0308 146.264 40.2139C146.264 41.1904 146.975 40.8568 148.954 38.9444C150.559 37.3901 151.14 36.5316 151.14 35.7096C151.14 35.0912 151.351 34.5866 151.603 34.5866C151.859 34.5866 156.637 30.0091 162.223 24.4144C167.806 18.8197 172.673 14.2422 173.039 14.2422C173.404 14.2422 175.436 12.5047 177.548 10.3767C179.661 8.24867 181.693 6.51125 182.062 6.51125C182.428 6.51125 182.96 6.23863 183.236 5.90092C183.513 5.5632 184.025 5.29058 184.37 5.29058C184.719 5.29058 185.353 4.96914 185.788 4.57852C186.219 4.18791 187.218 3.84206 188.006 3.81764C188.872 3.78509 189.591 3.50434 189.814 3.10559C190.33 2.18195 195.624 2.14532 196.136 3.06082C196.327 3.39854 196.863 3.75254 197.335 3.84206C198.59 4.08619 199.894 5.34754 199.894 6.32814C199.894 6.80827 200.516 7.70344 201.316 8.37074C202.182 9.095 202.738 9.92098 202.738 10.4906C202.738 10.9992 203.011 11.5241 203.348 11.6543C203.815 11.8334 203.957 12.5983 203.957 14.8972V17.9042H205.741C206.956 17.9042 207.602 17.7088 207.76 17.2938C207.914 16.891 208.548 16.6835 209.613 16.6835C210.576 16.6835 211.36 16.4516 211.555 16.1138C211.734 15.7965 212.335 15.4791 212.896 15.4018C213.753 15.2797 213.932 15.0112 214.041 13.6766C214.151 12.342 213.972 11.9147 212.924 10.9545C211.567 9.70941 211.331 8.52535 212.286 7.73192C212.636 7.44303 212.896 6.556 212.896 5.65678C212.896 4.2937 213.038 4.04957 213.984 3.81357C214.582 3.66302 215.87 2.74346 216.841 1.77099L218.604 0.00101722H221.862C224.865 0.00101722 225.202 0.0864615 226.12 1.07927C226.669 1.66926 227.116 2.47083 227.116 2.85738C227.116 3.24799 227.388 3.79323 227.725 4.06991C228.062 4.3466 228.335 4.8959 228.335 5.29058C228.335 5.68526 228.607 6.23457 228.944 6.51125C229.281 6.78793 229.553 7.34944 229.553 7.75633C229.553 8.77355 230.171 9.06651 230.776 8.33818C231.053 8.00453 231.695 7.73192 232.202 7.73192C232.706 7.73192 233.23 7.4593 233.356 7.12158C233.511 6.71876 234.149 6.51125 235.242 6.51125C236.334 6.51125 236.972 6.30374 237.127 5.90092C237.277 5.5103 237.903 5.29058 238.878 5.29058C239.853 5.29058 240.645 5.0139 241.096 4.51749C241.527 4.04143 242.246 3.78102 242.994 3.82985C243.721 3.88274 244.456 3.6264 244.858 3.17882C245.277 2.71904 246.093 2.44235 247.044 2.44235C248.019 2.44235 248.645 2.22263 248.795 1.83202C248.986 1.33968 249.913 1.22169 253.59 1.22169C257.986 1.22169 258.193 1.26238 259.294 2.31622C259.92 2.91435 260.431 3.71592 260.431 4.09432C260.431 4.47273 260.704 5.0139 261.041 5.29058C261.423 5.60795 261.65 6.50311 261.65 7.68309V9.56699L250.071 21.1593C243.705 27.5352 238.492 33.0323 238.492 33.3822C238.492 33.7281 237.667 34.8186 236.664 35.8073C235.66 36.796 234.835 37.9231 234.835 38.3097C234.835 38.7003 233.921 39.9169 232.804 41.0196C231.686 42.1222 230.772 43.3266 230.772 43.701C230.772 44.0753 230.224 44.9176 229.553 45.5726C228.599 46.5085 228.335 47.1188 228.335 48.4087C228.335 49.5968 228.168 50.0484 227.725 50.0484C227.388 50.0484 227.116 50.321 227.116 50.6588C227.116 50.9965 227.303 51.2691 227.534 51.2691C227.766 51.2691 228.058 50.9965 228.188 50.6588C228.314 50.321 228.838 50.0484 229.342 50.0484C229.85 50.0484 230.496 49.7758 230.772 49.4381C231.049 49.1004 231.613 48.8278 232.024 48.8278C232.434 48.8278 233.624 47.9123 234.673 46.7933C235.717 45.6744 236.903 44.7589 237.305 44.7589C238.232 44.7589 247.43 35.6323 247.43 34.7128C247.43 34.3384 249.714 31.7628 252.509 28.9919C255.304 26.221 257.587 23.6413 257.587 23.2629C257.587 22.3474 271.003 8.95259 271.921 8.95259C272.311 8.95259 273.421 8.13067 274.387 7.12158C275.35 6.1125 276.488 5.29058 276.919 5.29058C277.349 5.29058 278.235 4.6477 278.889 3.86647C279.592 3.02421 280.441 2.44235 280.978 2.44235C281.473 2.44235 281.985 2.16974 282.111 1.83202C282.298 1.34782 283.163 1.22169 286.332 1.22169H290.318L292.642 3.57351C293.922 4.86742 294.966 6.20609 294.966 6.55194C294.966 7.37793 296.656 8.95259 297.538 8.95259C297.92 8.95259 299.017 8.13067 299.984 7.12158C300.987 6.06774 302.105 5.29058 302.604 5.29058C303.754 5.29058 306.346 7.91909 306.326 9.06652C306.314 9.56292 305.765 10.4174 305.107 10.9667C304.445 11.516 303.904 12.3298 303.904 12.7692C303.904 13.229 302.767 14.6694 301.264 16.1179C299.809 17.5176 298.623 19.0068 298.623 19.4259C298.623 19.8491 298.074 20.7198 297.404 21.3627C296.733 22.0056 296.185 22.8275 296.185 23.1856C296.185 23.5436 295.36 24.6463 294.357 25.6351C293.353 26.6238 292.528 27.7224 292.528 28.0805C292.528 28.4385 291.886 29.35 291.106 30.1108C290.326 30.8717 289.684 31.893 289.684 32.3854C289.684 32.8777 289.412 33.3863 289.075 33.5124C288.738 33.6426 288.457 34.1635 288.449 34.6761C288.437 35.1929 287.901 36.0474 287.23 36.6007C286.527 37.1867 286.028 37.9923 286.028 38.5457C286.028 39.0706 285.755 39.5995 285.418 39.7297C285.081 39.8559 284.809 40.3604 284.809 40.8446C284.809 41.3329 284.443 42.0449 283.996 42.4274C283.549 42.8099 283.184 43.469 283.184 43.8922C283.184 44.3154 282.903 44.8931 282.558 45.178C282.083 45.5726 281.961 46.3539 282.05 48.3842C282.16 50.8988 282.233 51.0738 283.184 51.2081C283.744 51.2854 284.346 51.6027 284.524 51.9201C284.996 52.7461 289.514 52.7136 289.831 51.8794C289.985 51.4807 290.615 51.2691 291.655 51.2691C292.569 51.2691 293.455 51.0128 293.747 50.6588C294.023 50.321 294.572 50.0484 294.966 50.0484C295.36 50.0484 295.909 49.7758 296.185 49.4381C296.461 49.1004 297.01 48.8278 297.404 48.8278C297.798 48.8278 298.346 48.5551 298.623 48.2174C298.899 47.8797 299.476 47.6071 299.902 47.6071C300.329 47.6071 301.268 46.9642 301.983 46.183C302.702 45.4018 303.608 44.7589 303.998 44.7589C304.892 44.7589 318.125 31.5634 318.125 30.6724C318.125 29.8952 321.139 26.7581 321.521 27.1365C321.663 27.2789 321.781 27.8323 321.781 28.3612C321.781 28.8902 322.053 29.4273 322.391 29.5575C322.825 29.7243 323 30.4079 323 31.9663C323 34.078 322.931 34.2082 320.562 36.5885C319.222 37.9353 318.125 39.3269 318.125 39.6809C318.125 40.5191 312.266 46.3864 311.429 46.3864C311.075 46.3864 309.686 47.485 308.341 48.8278C306.996 50.1705 305.534 51.2691 305.091 51.2691C304.648 51.2691 304.181 51.5417 304.051 51.8794C303.925 52.2172 303.409 52.4898 302.909 52.4898C302.409 52.4898 301.67 52.856 301.264 53.3035C300.857 53.7511 300.211 54.1173 299.829 54.1173C299.443 54.1173 298.899 54.3899 298.623 54.7277C298.346 55.0654 297.798 55.338 297.404 55.338C297.01 55.338 296.461 55.6106 296.185 55.9483C295.909 56.286 295.263 56.5587 294.755 56.5587C294.251 56.5587 293.727 56.8313 293.601 57.169C293.41 57.6613 292.471 57.7793 288.689 57.7793H284.017L281.77 55.6025C280.539 54.4062 279.527 53.0675 279.527 52.6322C279.527 52.1968 278.987 51.3912 278.324 50.8419C277.345 50.0281 277.122 49.5235 277.106 48.1035C277.093 46.9194 277.284 46.2847 277.699 46.126C278.142 45.9551 278.308 45.2553 278.308 43.5382C278.308 41.7804 278.467 41.1213 278.942 40.9382C279.291 40.8039 279.466 40.5109 279.324 40.2872C278.946 39.6687 278.308 39.7948 278.308 40.4865C278.308 40.8242 278.158 41.0969 277.971 41.0969C277.788 41.0969 275.915 42.8302 273.806 44.9501C271.702 47.07 269.662 48.8115 269.28 48.8155C268.894 48.8237 267.757 49.6537 266.749 50.6588C265.746 51.6638 264.596 52.4898 264.198 52.4898C263.8 52.4898 262.942 53.1327 262.288 53.9139C261.325 55.0694 260.822 55.338 259.599 55.338C258.758 55.338 257.872 55.6065 257.587 55.9483C257.311 56.286 256.811 56.5587 256.478 56.5587C255.601 56.5587 251.493 52.4653 251.493 51.5946C251.493 51.1877 251.127 50.5408 250.68 50.1583C250.03 49.6009 249.868 48.958 249.868 46.9683C249.868 44.9949 250.034 44.3235 250.68 43.7416C251.55 42.9523 251.81 40.5272 251.071 40.0715C250.839 39.925 248.088 42.3867 244.956 45.5401C241.823 48.6894 238.939 51.2691 238.549 51.2691C238.159 51.2691 237.22 51.912 236.46 52.6932C235.701 53.4744 234.774 54.1173 234.4 54.1173C234.023 54.1173 233.486 54.3899 233.21 54.7277C232.934 55.0654 232.385 55.338 231.991 55.338C231.597 55.338 231.049 55.6106 230.772 55.9483C230.496 56.286 229.85 56.5587 229.342 56.5587C228.838 56.5587 228.314 56.8313 228.188 57.169C228.038 57.5555 227.412 57.7793 226.47 57.7793C225.291 57.7793 224.666 57.4579 223.41 56.2006C222.545 55.3299 221.834 54.2679 221.834 53.8406C221.834 53.4134 221.294 52.6118 220.631 52.0625C219.664 51.2569 219.429 50.7401 219.412 49.3811C219.4 48.2459 219.595 47.6193 220.006 47.4606C220.4 47.3101 220.615 46.6753 220.615 45.6662C220.615 44.4374 220.867 43.9003 221.818 43.111C222.476 42.5617 223.024 41.7357 223.037 41.2759C223.045 40.812 223.601 39.9087 224.272 39.2659C224.942 38.623 225.491 37.8051 225.491 37.4471C225.491 37.0931 226.677 35.6201 228.131 34.1797C229.586 32.7393 230.772 31.2461 230.772 30.8677C230.772 30.4892 231.959 29.0367 233.413 27.637C234.868 26.2413 236.054 24.7643 236.054 24.3574C236.054 23.4297 240.369 19.1248 241.303 19.1248C242.165 19.1248 246.211 14.9664 246.211 14.0794C246.211 13.7213 247.67 11.988 249.454 10.2302C252.358 7.36979 252.907 6.51125 251.83 6.51125C251.647 6.51125 251.493 6.78387 251.493 7.12158C251.493 7.56916 251.026 7.73192 249.714 7.73192C248.629 7.73192 247.739 7.96791 247.43 8.34225C247.154 8.67997 246.329 8.95259 245.602 8.95259C244.875 8.95259 244.05 9.2252 243.774 9.56292C243.481 9.91692 242.595 10.1733 241.681 10.1733C240.641 10.1733 240.011 10.3848 239.857 10.7836C239.731 11.1213 239.227 11.3939 238.744 11.3939C238.256 11.3939 237.545 11.7601 237.163 12.2077C236.724 12.7245 235.965 13.0215 235.091 13.0215C234.335 13.0215 233.486 13.2941 233.21 13.6318C232.877 14.0346 231.971 14.2422 230.561 14.2422C229.033 14.2422 228.355 14.4171 228.188 14.8525C228.022 15.2879 227.339 15.4628 225.783 15.4628C223.902 15.4628 223.455 15.6256 222.443 16.6835C221.801 17.3549 220.969 17.9042 220.591 17.9042C220.213 17.9042 219.673 18.1768 219.396 18.5145C219.12 18.8522 218.576 19.1248 218.19 19.1248C217.808 19.1248 217.162 19.491 216.755 19.9386C216.349 20.3862 215.61 20.7524 215.11 20.7524C214.61 20.7524 214.094 21.025 213.968 21.3627C213.838 21.7004 213.29 21.9731 212.749 21.9731C212.205 21.9731 211.656 22.2457 211.53 22.5834C211.36 23.0228 210.677 23.1937 209.097 23.1937C207.642 23.1937 206.732 23.3972 206.395 23.8041C206.062 24.2069 205.156 24.4144 203.746 24.4144C202.218 24.4144 201.54 24.5894 201.373 25.0247C201.243 25.3624 200.748 25.6351 200.264 25.6351C199.244 25.6351 196.238 28.4914 196.238 29.4639C196.238 30.359 177.788 48.8278 176.894 48.8278C176.508 48.8278 175.403 49.6537 174.44 50.6588C173.473 51.6638 172.348 52.4898 171.929 52.4898C171.515 52.4898 170.845 52.856 170.438 53.3035C170.032 53.7511 169.386 54.1173 169.004 54.1173C168.618 54.1173 168.074 54.3899 167.797 54.7277C167.521 55.0654 166.696 55.338 165.969 55.338C165.242 55.338 164.417 55.6188 164.133 55.9605C163.67 56.5139 163.548 56.5139 162.934 55.9605C162.556 55.6188 161.983 55.338 161.658 55.338C161.333 55.338 160.021 54.2801 158.745 52.9862C156.844 51.0616 156.421 50.3862 156.421 49.2672C156.421 48.4494 156.137 47.6803 155.71 47.3467C155.032 46.8177 155.032 46.773 155.71 46.3661C156.247 46.0446 156.421 45.4018 156.421 43.7701C156.421 42.3419 156.629 41.4305 157.031 41.0969C157.376 40.812 157.64 39.925 157.64 39.0543C157.64 38.0696 157.856 37.4389 158.25 37.2884C158.587 37.1582 158.859 36.8652 158.859 36.6333C158.859 36.4014 158.587 36.2142 158.25 36.2142C157.912 36.2142 157.64 36.4868 157.64 36.8245C157.64 37.1622 157.368 37.4349 157.031 37.4349C156.669 37.4349 156.421 37.8092 156.421 38.3585C156.421 38.977 155.333 40.3685 153.171 42.521C151.383 44.2991 149.921 46.0406 149.921 46.3824C149.921 47.3711 140.507 56.5587 139.495 56.5587C139.02 56.5587 138.52 56.8435 138.39 57.1934C138.211 57.6613 137.691 57.7915 136.416 57.702C134.949 57.5962 134.665 57.4294 134.551 56.6116C134.474 56.0826 133.852 55.0979 133.165 54.4266C132.068 53.3524 131.995 53.1571 132.588 52.8275C132.958 52.62 133.263 51.9934 133.263 51.44C133.263 50.8825 133.535 50.3251 133.872 50.1949C134.21 50.0688 134.482 49.5642 134.482 49.08C134.482 48.5918 134.847 47.8797 135.294 47.4972C135.741 47.1148 136.107 46.4678 136.107 46.0609C136.107 45.65 136.655 44.7914 137.326 44.1485C137.996 43.5056 138.545 42.6797 138.545 42.3175C138.545 41.9554 139.093 41.1294 139.764 40.4865C140.434 39.8436 140.982 39.0217 140.982 38.6596C140.982 38.2975 141.628 37.3779 142.413 36.6129C143.201 35.848 143.757 34.9895 143.648 34.7046C143.538 34.4239 144.082 33.5735 144.858 32.8207C145.63 32.068 146.264 31.1443 146.264 30.77C146.264 30.3916 146.813 29.5453 147.483 28.8902C148.153 28.2351 148.702 27.3603 148.702 26.9534C148.702 26.5424 149.242 25.7571 149.905 25.2078C150.563 24.6585 151.111 23.8366 151.123 23.3768C151.132 22.917 151.782 21.9202 152.562 21.1593C153.342 20.3984 153.984 19.4707 153.984 19.0963C153.984 18.7179 154.256 18.1808 154.593 17.9042C154.93 17.6275 155.203 17.0782 155.203 16.6835C155.203 16.2888 155.475 15.7395 155.812 15.4628C156.511 14.885 156.657 11.8008 155.987 11.8008C155.747 11.8008 155.276 12.0734 154.942 12.4111C154.605 12.7489 153.996 13.0215 153.585 13.0215C153.175 13.0215 152.375 13.5708 151.81 14.2422C151.249 14.9135 150.453 15.4628 150.047 15.4628C149.157 15.4628 128.387 36.145 128.387 37.032C128.387 37.3698 127.477 38.5579 126.368 39.6727C125.235 40.8161 124.345 42.0897 124.337 42.5779C124.329 43.0581 124.052 43.5585 123.715 43.6847C123.378 43.8149 123.106 44.3438 123.106 44.8687C123.106 45.4221 122.606 46.2277 121.903 46.8137C121.233 47.367 120.696 48.2215 120.684 48.7383C120.676 49.2509 120.396 49.7718 120.058 49.902C119.721 50.0281 119.449 50.5367 119.449 51.029C119.449 51.5214 118.807 52.5427 118.027 53.3035C117.247 54.0644 116.605 54.9921 116.605 55.3665C116.605 55.7449 116.333 56.282 115.996 56.5587C115.658 56.8353 115.386 57.4986 115.386 58.0316C115.386 58.5646 115.244 59 115.069 59C114.89 59 113.757 57.995 112.546 56.7662ZM41.1815 50.6588C41.3115 50.321 41.7828 50.0484 42.2256 50.0484C43.2454 50.0484 51.1925 42.1466 51.1925 41.1376C51.1925 40.7388 52.3788 39.2699 53.8333 37.8743C55.2878 36.4746 56.4742 35.0179 56.4742 34.6395C56.4742 34.2571 57.2949 33.134 58.3025 32.1453C59.3101 31.1565 60.1308 30.0579 60.1308 29.704C60.1308 29.354 61.045 28.1618 62.1623 27.0592C63.2796 25.9565 64.1937 24.7318 64.1937 24.3371C64.1937 23.9424 65.0144 22.856 66.022 21.9283C67.0296 21.0006 67.8503 19.902 67.8503 19.491C67.8503 19.076 68.4719 18.1442 69.2317 17.42L70.6171 16.1016L69.0773 14.5636C68.2322 13.7132 67.2734 13.0215 66.9443 13.0215C66.6193 13.0215 65.9286 12.6553 65.4126 12.2077C64.8966 11.7601 63.9012 11.3939 63.1983 11.3939C62.4954 11.3939 61.6991 11.1742 61.431 10.9057C61.0531 10.5272 60.8337 10.5272 60.4558 10.9057C60.1877 11.1742 59.0338 11.3939 57.8962 11.3939C56.0598 11.3939 55.6616 11.5567 54.4428 12.818C53.683 13.5993 52.7932 14.2422 52.4601 14.2422C51.5866 14.2422 49.9736 15.8819 49.9736 16.7689C49.9736 17.188 48.8766 18.5674 47.5359 19.8328C46.1951 21.1023 45.0981 22.4572 45.0981 22.8479C45.0981 23.2425 44.4562 24.1825 43.6761 24.9433C42.896 25.7042 42.2541 26.7255 42.2541 27.2138C42.2541 27.7021 41.9819 28.2066 41.6447 28.3368C41.3074 28.4629 41.0352 29.0122 41.0352 29.5575C41.0352 30.0986 40.763 30.6479 40.4258 30.7781C40.0886 30.9043 39.8164 31.4292 39.8164 31.9337C39.8164 32.4423 39.5441 33.0893 39.2069 33.366C38.8006 33.7037 38.5975 34.6151 38.5975 36.0718C38.5975 37.6546 38.4268 38.3382 37.988 38.509C37.4842 38.7044 37.3786 39.8152 37.3786 45.0071V51.2691H39.1622C40.377 51.2691 41.023 51.0738 41.1815 50.6588ZM161.703 50.6588C161.988 50.3129 162.873 50.0484 163.743 50.0484C164.726 50.0484 165.356 49.8328 165.506 49.4381C165.636 49.1004 166.185 48.8278 166.725 48.8278C167.269 48.8278 167.818 48.5551 167.944 48.2174C168.074 47.8797 168.598 47.6071 169.106 47.6071C169.707 47.6071 170.682 46.8869 171.86 45.5726C172.864 44.4537 174.022 43.5382 174.432 43.5382C174.859 43.5382 178.544 40.1691 183.066 35.6364C190.269 28.4222 190.956 27.6125 190.956 26.3308C190.956 25.1956 190.598 24.5771 189.128 23.149C188.124 22.1724 187.299 21.0535 187.299 20.6629C187.299 20.2723 186.657 19.2916 185.877 18.486C184.817 17.3915 184.455 16.6672 184.455 15.6296C184.455 14.8688 184.317 14.2422 184.147 14.2422C183.505 14.2422 169.423 28.7233 169.423 29.3825C169.423 29.7609 168.781 30.6927 168.001 31.4536C167.221 32.2145 166.579 33.2113 166.579 33.6671C166.579 34.1268 166.306 34.607 165.969 34.7331C165.632 34.8633 165.36 35.3923 165.36 35.9172C165.36 36.4705 164.86 37.2762 164.157 37.8621C163.239 38.623 162.95 39.2089 162.938 40.336C162.93 41.1457 162.65 42.0408 162.313 42.3175C161.91 42.6552 161.703 43.5667 161.703 45.0233C161.703 46.6061 161.532 47.2897 161.094 47.4606C160.679 47.6193 160.484 48.2662 160.484 49.4828C160.484 51.3464 160.846 51.6923 161.703 50.6588ZM257.734 49.4381C257.864 49.1004 258.437 48.8278 259.009 48.8278C259.582 48.8278 260.155 48.5551 260.285 48.2174C260.411 47.8797 260.882 47.6071 261.329 47.6071C262.28 47.6071 283.184 26.8639 283.184 25.9158C283.184 25.5862 284.646 23.8325 286.434 22.0219C288.222 20.2112 289.684 18.429 289.684 18.0547C289.684 17.6804 290.883 16.2074 292.354 14.7833C295.34 11.8781 295.726 10.4866 293.621 10.2465C292.996 10.1733 292.382 9.85181 292.256 9.53444C291.935 8.69624 286.726 8.72066 286.028 9.56292C285.751 9.90064 285.203 10.1733 284.809 10.1733C284.415 10.1733 283.866 10.4459 283.59 10.7836C283.314 11.1213 282.741 11.3939 282.318 11.3939C281.896 11.3939 281.238 11.7601 280.856 12.2077C280.474 12.6553 279.763 13.0215 279.275 13.0215C278.792 13.0215 278.288 13.2941 278.162 13.6318C278.032 13.9695 277.54 14.2422 277.065 14.2422C275.948 14.2422 262.869 27.2504 262.869 28.3612C262.869 28.7844 262.329 29.5819 261.667 30.1312C261.008 30.6805 260.46 31.4983 260.448 31.9541C260.44 32.4057 260.05 33.1055 259.586 33.5043C259.119 33.9031 258.835 34.4768 258.948 34.7779C259.062 35.079 258.806 35.6445 258.372 36.0352C257.904 36.4583 257.587 37.2802 257.587 38.0574C257.587 38.7776 257.315 39.5995 256.978 39.8762C256.633 40.161 256.369 41.048 256.369 41.9188C256.369 42.9034 256.153 43.5341 255.759 43.6847C255.32 43.8556 255.15 44.5391 255.15 46.1219C255.15 47.5745 254.942 48.4941 254.544 48.8237C253.646 49.5724 254.191 50.0484 255.942 50.0484C256.954 50.0484 257.583 49.8328 257.734 49.4381ZM144.842 44.352C144.98 44.1282 144.81 43.9451 144.46 43.9451C144.111 43.9451 143.826 44.1282 143.826 44.352C143.826 44.5758 143.997 44.7589 144.208 44.7589C144.42 44.7589 144.704 44.5758 144.842 44.352ZM196.38 19.7555C196.973 19.2062 197.457 18.4046 197.457 17.9733C197.457 17.542 197.729 16.9602 198.066 16.6835C198.403 16.4068 198.675 15.8575 198.675 15.4628C198.675 15.0681 198.948 14.5188 199.285 14.2422C199.622 13.9655 199.894 13.3592 199.894 12.8953C199.894 11.7642 198.338 10.1733 197.225 10.1733C196.729 10.1733 196.217 9.90064 196.091 9.56292C195.64 8.38701 194.255 8.97293 192.012 11.2922C189.79 13.5952 189.753 13.6725 189.745 16.0528C189.737 18.1279 189.892 18.6325 190.83 19.6131C192.297 21.143 194.812 21.2081 196.38 19.7555ZM222.265 9.25775C222.683 8.75321 223.033 8.04522 223.041 7.67902C223.049 7.31689 223.325 6.78793 223.662 6.51125C224.67 5.67306 224.361 5.29058 222.667 5.29058C221.277 5.29058 220.782 5.57133 219.01 7.34537C217.881 8.47245 216.958 9.57105 216.958 9.78671C216.958 9.99829 217.982 10.1733 219.23 10.1733C221.086 10.1733 221.639 10.0064 222.265 9.25775Z" fill="white"/>
</svg>
