<svg width="272" height="63" viewBox="0 0 272 63" fill="none" xmlns="http://www.w3.org/2000/svg">
<path d="M249.422 61.1114C247.613 60.1882 246.522 59.2766 245.847 58.1283C245.671 57.8283 245.186 57.0724 244.771 56.4521C244.356 55.8289 243.917 54.8682 243.799 54.3172C243.68 53.7661 243.484 53.1863 243.363 53.0276C243.069 52.6439 242.498 49.8916 242.498 48.8529C242.498 48.4 242.353 47.9788 242.177 47.9211C241.964 47.8489 241.805 45.9362 241.707 42.1972C241.528 35.5212 241.364 35.8501 245.236 35.2067C249.24 34.5403 249.029 34.2547 249.188 40.5267C249.263 43.4348 249.462 46.0746 249.629 46.392C249.8 46.7094 250.085 47.9384 250.267 49.1212C250.446 50.307 250.703 51.3456 250.832 51.4293C250.965 51.5158 251.248 52.0813 251.467 52.69C251.917 53.9508 254.834 57.081 256 57.5513C256.427 57.7244 257.33 57.9581 258.005 58.0706C259.118 58.2553 259.231 58.2178 259.239 57.6696C259.248 57.1301 259.28 57.1186 259.537 57.56C260.295 58.8611 262.485 56.4637 263.149 53.6046C263.258 53.1286 263.423 52.6121 263.512 52.4563C263.954 51.686 264.32 44.4936 263.959 43.6887C263.844 43.4291 263.734 42.9588 263.717 42.6415C263.697 42.3241 263.607 41.9346 263.515 41.7759C263.423 41.6173 263.253 40.9681 263.137 40.3334C263.025 39.6987 262.84 39.0496 262.727 38.8909C262.615 38.7322 262.355 38.0831 262.15 37.4484C261.773 36.2857 258.847 30.2877 257.69 28.3028C257.084 27.2671 255.486 24.9014 255.192 24.61C255.013 24.4311 254.355 23.2915 253.821 22.2327C253.602 21.8 253.265 21.3441 253.074 21.223C252.884 21.1018 252.566 20.6806 252.367 20.2824C252.168 19.8843 251.692 19.0419 251.306 18.4072C250.919 17.7725 250.437 16.93 250.232 16.5319C250.028 16.1338 249.436 15.2481 248.92 14.5614C248.403 13.8748 247.979 13.0727 247.979 12.7756C247.979 12.4813 247.849 12.1582 247.691 12.0601C247.532 11.962 247.402 11.0878 247.402 10.1156C247.402 7.46711 248.657 5.2514 250.879 3.97622C252.497 3.04435 255.172 1.81821 255.581 1.81821C255.824 1.81821 256.109 1.67973 256.213 1.50951C256.317 1.33929 256.813 1.22966 257.312 1.2614C257.811 1.29314 258.461 1.21812 258.755 1.09406C259.465 0.794019 265.803 1.11715 266.241 1.47778C266.432 1.63357 267.592 1.85283 268.815 1.96823C270.102 2.08651 271.181 2.33751 271.368 2.56254C271.57 2.80489 271.746 5.13888 271.844 8.82019L272 14.6883L270.015 14.5701C268.925 14.5037 267.906 14.3364 267.756 14.195C267.606 14.0508 266.925 13.9354 266.241 13.9354H265.001V12.5101C265.001 11.7254 264.871 11.0042 264.712 10.9061C264.554 10.808 264.424 9.70301 264.424 8.4509V6.17173L263.085 5.15042C261.472 3.91851 260.904 3.88678 258.896 4.91962C255.659 6.58717 254.095 9.07984 255.007 11.1224C255.235 11.6389 255.558 12.4813 255.726 12.9977C255.89 13.5113 256.357 14.3681 256.764 14.899C257.168 15.4298 257.5 15.9722 257.5 16.0991C257.5 16.229 258.019 17.0223 258.654 17.8648C259.289 18.7043 259.808 19.4775 259.808 19.5814C259.808 19.6852 260.327 20.3892 260.962 21.1479C261.597 21.9067 262.116 22.6655 262.116 22.8357C262.116 23.0088 262.376 23.2858 262.693 23.456C263.01 23.6262 263.27 23.9032 263.27 24.0734C263.27 24.2436 263.659 24.8754 264.135 25.4755C264.611 26.0756 265.004 26.6786 265.01 26.8142C265.012 26.9498 265.402 27.5729 265.875 28.1961C266.345 28.8192 266.732 29.4857 266.732 29.6761C266.732 29.8665 266.928 30.1839 267.165 30.3801C267.401 30.5762 267.597 30.9686 267.597 31.2513C267.597 31.5312 267.776 31.8283 267.993 31.912C268.212 31.9957 268.474 32.4313 268.581 32.8814C268.749 33.5853 269.046 34.2922 270.217 36.7589C270.338 37.0156 270.589 38.0542 270.774 39.0669C270.956 40.0824 271.244 41.1961 271.414 41.5451C271.81 42.3674 271.833 49.2626 271.443 49.7617C271.279 49.9723 270.973 50.9821 270.762 52.0092C270.407 53.7257 270.226 54.0258 268.469 55.7828C267.02 57.2311 265.941 57.987 263.977 58.9304C262.557 59.6112 261.063 60.3411 260.659 60.5489C260.255 60.7566 259.225 61.0191 258.371 61.1316C257.517 61.2442 256.484 61.5125 256.077 61.726C255.648 61.9481 254.488 62.1039 253.317 62.0895C251.626 62.0693 250.991 61.9106 249.422 61.1114ZM194.318 61.0509C193.919 60.9874 193.403 60.8547 193.164 60.7595C192.924 60.6614 192.514 60.6095 192.252 60.6412C191.986 60.6758 191.689 60.5633 191.585 60.3988C191.482 60.2315 191.008 60.0959 190.535 60.0959C189.736 60.0959 187.552 59.3025 186.528 58.6419C186.288 58.489 185.836 58.2466 185.518 58.1024C185.201 57.9581 184.428 57.3118 183.802 56.6627C182.44 55.2519 182.61 54.9057 184.883 54.4701L186.384 54.1816L186.462 48.7375C186.505 45.7429 186.424 43.1463 186.28 42.9675C186.136 42.7886 185.919 36.6694 185.801 29.3703C185.567 14.8153 185.576 15.0721 185.293 14.6162C185.186 14.4431 185.083 11.6937 185.062 8.51149C185.033 3.88967 185.109 2.60294 185.443 2.12691C185.671 1.8009 185.937 1.61048 186.032 1.70569C186.127 1.8009 188.905 1.89899 192.209 1.92495C196.173 1.95669 198.409 2.08652 198.789 2.30867C199.107 2.49331 200.174 2.79047 201.161 2.96646C202.148 3.14244 203.316 3.47422 203.757 3.70502C204.199 3.93583 204.75 4.12335 204.981 4.12335C205.578 4.12623 210.283 6.49773 210.56 6.93626C210.687 7.13533 210.967 7.29978 211.181 7.29978C211.397 7.29978 212.41 8.11047 213.437 9.10292C216.558 12.1264 217.75 15.675 217.132 20.1122C216.965 21.3153 216.711 22.527 216.57 22.8068C216.428 23.0838 216.105 23.7676 215.849 24.3215C215.159 25.8102 214.827 26.2862 212.961 28.4413C212.026 29.5174 210.699 30.8042 210.006 31.3033C208.847 32.1342 208.789 32.2322 209.274 32.5727C209.562 32.7746 210.179 33.0343 210.641 33.1497C212.912 33.7094 216.405 37.1628 217.08 39.5083C217.3 40.2815 217.626 41.0922 217.802 41.3143C218.223 41.851 218.22 48.25 217.799 49.1616C217.623 49.5424 217.317 50.3733 217.121 51.0081C216.561 52.8227 215.678 54.548 215.22 54.724C214.989 54.8134 214.801 55.0846 214.801 55.3269C214.801 55.5693 214.666 55.7684 214.504 55.7684C214.34 55.7684 213.823 56.1578 213.359 56.6339C212.894 57.1099 212.395 57.4994 212.254 57.4994C212.11 57.4994 211.685 57.7331 211.305 58.0216C210.927 58.3072 210.032 58.7197 209.32 58.939C208.607 59.1554 207.892 59.4295 207.733 59.5449C207.574 59.6603 206.925 59.8478 206.29 59.9632C205.656 60.0786 205.007 60.2661 204.848 60.3844C204.014 60.9989 196.781 61.4576 194.318 61.0509ZM197.33 58.3909C197.419 58.2495 198.172 58.0389 199.006 57.9264C199.84 57.8138 200.843 57.56 201.242 57.3638C201.64 57.1647 202.742 56.6368 203.694 56.1867C205.353 55.4048 208.443 52.6323 208.463 51.9082C208.469 51.7293 208.725 51.0658 209.031 50.431C209.337 49.7963 209.594 49.1357 209.6 48.9597C209.602 48.7866 209.819 48.224 210.076 47.7076C210.451 46.9546 210.517 46.0977 210.419 43.2646C210.309 40.0593 210.231 39.6497 209.522 38.536C209.092 37.8638 208.743 37.2349 208.743 37.1368C208.743 36.7444 207.491 35.2385 206.593 34.5547C205.647 33.8334 205.624 33.8306 202.831 34.1594C199.851 34.5114 194.277 34.1191 193.539 33.5045C193.256 33.2709 193.213 35.2962 193.328 43.2617C193.521 56.68 193.608 57.8687 194.41 58.2697C195.197 58.662 197.113 58.74 197.33 58.3909ZM201.242 30.0079C202.716 29.3184 206.775 25.3687 207.459 23.958C207.707 23.4444 208.293 22.3077 208.757 21.4364C209.222 20.5652 209.602 19.4342 209.605 18.9293C209.605 18.4216 209.738 17.9282 209.897 17.8302C210.254 17.6109 210.283 14.3191 209.928 14.0998C209.79 14.0133 209.582 13.4536 209.47 12.8592C209.36 12.2649 208.89 11.2177 208.428 10.5339C207.967 9.85014 207.589 9.18659 207.589 9.05965C207.589 8.78845 206.648 7.90852 205.887 7.46999C205.586 7.29689 204.877 6.78624 204.308 6.33329C203.466 5.66107 202.95 5.49663 201.467 5.42739C200.471 5.38123 199.542 5.41296 199.404 5.49663C199.265 5.57741 197.99 5.62069 196.568 5.58895C194.929 5.55433 193.836 5.65819 193.576 5.87457C193.351 6.06209 192.887 6.14 192.546 6.05056C191.937 5.89188 191.929 5.93515 192.113 8.25472C192.214 9.55299 192.385 14.0969 192.488 18.3466C192.595 22.5991 192.788 26.1419 192.921 26.2256C193.054 26.3064 193.164 27.3335 193.164 28.5077V30.6397L194.822 30.7263C197.731 30.8792 199.903 30.6368 201.242 30.0079ZM172.475 60.3152C172.308 59.9574 172.013 58.6245 171.82 57.3551C171.627 56.0857 171.37 54.9173 171.246 54.7586C171.125 54.5999 170.931 53.9508 170.816 53.3161C170.701 52.6814 170.513 52.0322 170.395 51.8736C170.277 51.7149 170.014 50.8061 169.809 49.854C169.607 48.902 169.345 47.9932 169.224 47.8345C169.102 47.6758 168.84 46.6372 168.641 45.5265C168.442 44.4157 168.182 43.3771 168.067 43.2185C167.951 43.0598 167.703 42.0875 167.516 41.0547C167.328 40.0218 167.06 38.9198 166.921 38.6024C166.78 38.285 166.589 37.6677 166.494 37.232C166.353 36.5829 166.165 36.4386 165.461 36.4386C164.988 36.4386 164.602 36.5685 164.602 36.7271C164.602 36.8858 164.074 37.0156 163.427 37.0156C162.784 37.0156 161.997 37.1541 161.682 37.3214C161.244 37.558 160.828 37.5003 159.899 37.0676C157.314 35.8732 157.305 35.8789 156.812 39.4679C156.616 40.896 156.356 42.1943 156.232 42.3529C156.111 42.5116 155.918 43.3569 155.802 44.2282C155.687 45.0995 155.494 45.9448 155.37 46.1035C155.248 46.2622 154.989 47.3671 154.793 48.5558C154.596 49.7444 154.337 50.8494 154.213 51.0081C154.089 51.1667 153.823 52.3063 153.627 53.5411C153.431 54.7759 153.157 55.8549 153.021 55.9386C152.886 56.0223 152.773 56.3107 152.77 56.5791C152.77 56.8474 152.635 57.5542 152.47 58.1485L152.17 59.2304H148.72H145.272V57.8052C145.272 57.0205 145.379 56.3136 145.511 56.23C145.644 56.1492 145.918 55.1365 146.123 53.9767C146.325 52.8198 146.596 51.7437 146.72 51.5851C146.847 51.4264 147.043 50.6474 147.156 49.854C147.271 49.0607 147.462 48.2817 147.583 48.123C147.704 47.9643 147.975 46.6978 148.183 45.3101C148.394 43.9224 148.65 42.7857 148.751 42.7857C148.855 42.7857 149.106 41.5855 149.311 40.117C149.516 38.6486 149.778 37.3186 149.897 37.1599C150.012 37.0012 150.269 35.7029 150.465 34.2748C150.661 32.8468 150.921 31.5485 151.045 31.3898C151.166 31.2311 151.359 30.3858 151.475 29.5145C151.59 28.6433 151.781 27.7979 151.902 27.6393C152.023 27.4806 152.288 26.2458 152.496 24.8985C152.701 23.5512 152.961 22.3164 153.073 22.1577C153.183 21.999 153.439 20.9604 153.639 19.8497C153.838 18.7389 154.103 17.7003 154.227 17.5416C154.348 17.383 154.542 16.6357 154.654 15.8799C154.767 15.124 154.969 14.4373 155.101 14.3566C155.234 14.2729 155.271 14.0132 155.179 13.7796C155.09 13.543 155.153 13.1881 155.318 12.9862C155.485 12.7871 155.713 11.9129 155.823 11.0446C155.932 10.1733 156.117 9.33372 156.232 9.17505C156.348 9.01637 156.596 8.04411 156.783 7.01127C156.971 5.97843 157.242 4.87635 157.386 4.55899C157.53 4.24164 157.793 3.23476 157.972 2.32309C158.249 0.906538 158.387 0.664192 158.924 0.669962C159.613 0.672848 161.218 1.2037 162.201 1.75474C162.55 1.94804 163.012 2.10671 163.231 2.10671C163.448 2.10671 163.906 2.36637 164.247 2.68372C164.587 3.00107 164.985 3.26073 165.13 3.26073C165.274 3.26073 165.482 4.0368 165.588 4.98309C165.695 5.92938 165.894 6.7747 166.03 6.85837C166.168 6.94203 166.367 7.6604 166.477 8.45379C166.587 9.24717 166.777 9.95977 166.904 10.0377C167.028 10.1156 167.293 11.0561 167.492 12.1293C167.689 13.2026 167.945 14.2094 168.061 14.3681C168.176 14.5268 168.43 15.499 168.626 16.5319C168.822 17.5647 169.085 18.537 169.206 18.6957C169.33 18.8543 169.596 19.893 169.795 21.0037C169.994 22.1144 170.259 23.153 170.383 23.3117C170.507 23.4704 170.701 24.1195 170.816 24.7542C170.931 25.3889 171.122 26.0381 171.24 26.1968C171.361 26.3554 171.624 27.4604 171.826 28.649C172.028 29.8377 172.287 30.9426 172.4 31.1013C172.512 31.26 172.769 32.2986 172.968 33.4093C173.167 34.5201 173.427 35.5587 173.545 35.7174C173.664 35.876 173.923 36.9147 174.122 38.0254C174.321 39.1361 174.587 40.1747 174.711 40.3334C174.835 40.4921 175.028 41.1412 175.144 41.7759C175.259 42.4106 175.444 43.0598 175.559 43.2185C175.674 43.3771 175.937 44.3494 176.142 45.3822C176.347 46.4151 176.606 47.3873 176.716 47.546C176.828 47.7047 177.088 48.4836 177.296 49.277C177.504 50.0704 177.766 50.8494 177.879 51.0081C177.994 51.1667 178.251 52.2053 178.45 53.3161C178.649 54.4268 178.929 55.4799 179.07 55.6587C179.52 56.23 179.154 57.2311 178.285 57.8052C177.821 58.1139 176.661 58.7573 175.709 59.2333C174.757 59.7122 173.71 60.295 173.378 60.5344C172.827 60.9297 172.755 60.9124 172.475 60.3152ZM165.245 31.612C165.167 31.1734 165.006 30.683 164.89 30.5243C164.772 30.3656 164.512 29.327 164.313 28.2163C164.114 27.1055 163.849 26.0669 163.725 25.9082C163.601 25.7496 163.407 25.1004 163.292 24.4657C163.176 23.831 162.986 23.1819 162.868 23.0232C162.747 22.8645 162.484 21.7942 162.282 20.6431C161.789 17.8532 161.408 17.8648 160.987 20.6806C160.874 21.4191 160.678 22.0856 160.548 22.1664C160.421 22.2443 160.225 23.0549 160.115 23.9666C160.006 24.8754 159.787 25.7813 159.628 25.9775C159.472 26.1737 159.417 26.5256 159.507 26.7622C159.599 26.9959 159.553 27.2613 159.409 27.3508C159.264 27.4402 159.06 28.2913 158.95 29.2405C158.843 30.1925 158.644 31.0407 158.506 31.1244C158.367 31.2109 158.255 31.5283 158.255 31.8312C158.255 32.3361 158.529 32.388 161.645 32.463C163.508 32.5063 165.115 32.515 165.213 32.4775C165.309 32.4428 165.326 32.0534 165.245 31.612ZM65.0363 59.6256C64.8776 59.4352 64.6122 58.3909 64.4448 57.3061C64.2775 56.2242 64.038 55.2058 63.9111 55.0471C63.787 54.8884 63.5274 53.72 63.337 52.4506C63.1466 51.1812 62.8869 50.0127 62.76 49.854C62.633 49.6954 62.434 48.7866 62.3186 47.8345C62.206 46.8825 62.0127 45.9737 61.8916 45.815C61.7704 45.6563 61.5107 44.5571 61.3146 43.3714C61.1155 42.1885 60.8501 41.0201 60.7231 40.7748C60.5962 40.5325 60.3394 39.3554 60.1548 38.161C59.9673 36.9637 59.6672 35.7837 59.4855 35.5385C59.2143 35.1721 58.5247 35.0913 55.8013 35.1144C51.9094 35.1432 52.0767 35.0048 51.4766 38.6745C51.2891 39.8257 51.041 40.7662 50.9256 40.7662C50.8102 40.7662 50.6284 41.4442 50.5159 42.2751C50.4062 43.1031 50.2158 43.9138 50.0918 44.0782C49.9648 44.2398 49.6936 45.2149 49.4888 46.2477C49.284 47.2806 49.0214 48.2528 48.906 48.4115C48.7935 48.5702 48.5339 49.6088 48.3348 50.7195C48.1357 51.8303 47.8732 52.8689 47.7578 53.0276C47.6395 53.1863 47.452 53.8354 47.3366 54.4672C47.2212 55.1019 47.0423 55.751 46.9384 55.9097C46.8346 56.0713 46.6182 56.7868 46.4566 57.4994L46.1653 58.7976L43.8601 58.6995C42.5936 58.6447 41.4309 58.4803 41.2809 58.3389C41.1309 58.1947 40.6433 58.0764 40.199 58.0764C39.7547 58.0764 39.3912 57.9783 39.3941 57.86C39.3998 57.1301 40.023 53.7979 40.2423 53.3161C40.3865 52.9987 40.6635 52.0265 40.8568 51.1523C41.053 50.2781 41.3097 49.3722 41.4309 49.1328C41.5521 48.8933 41.8088 47.7249 41.9964 46.5362C42.1868 45.3476 42.4436 44.2426 42.5647 44.084C42.6888 43.9253 42.8821 43.2127 42.9975 42.4972C43.1129 41.7817 43.3091 41.0691 43.436 40.9104C43.5629 40.7518 43.8255 39.7795 44.0217 38.7467C44.2179 37.7138 44.4775 36.7416 44.5987 36.5829C44.717 36.4242 44.9708 35.2558 45.1613 33.9863C45.3517 32.7169 45.6113 31.5485 45.7383 31.3898C45.8652 31.2311 46.1249 30.0627 46.3153 28.7933C46.5057 27.5239 46.7653 26.3554 46.8923 26.1968C47.0221 26.0381 47.2212 25.2591 47.3337 24.4657C47.4491 23.6723 47.6424 22.8934 47.7636 22.7347C47.8876 22.576 48.1473 21.4393 48.3434 20.2103C48.5425 18.9813 48.7906 17.9744 48.9003 17.9744C49.007 17.9744 49.2667 16.9041 49.4744 15.5943C49.6821 14.2844 49.9533 13.0843 50.0774 12.9256C50.1985 12.7669 50.3947 11.988 50.5072 11.1946C50.6226 10.4012 50.8217 9.61646 50.9515 9.45201C51.0814 9.28756 51.3295 8.24895 51.4968 7.14398C51.667 6.03901 51.9238 4.87635 52.068 4.55899C52.2123 4.24164 52.5008 3.39921 52.7114 2.68372C53.0057 1.68838 53.2509 1.36238 53.7615 1.29025C54.1251 1.23832 54.5809 1.32198 54.7713 1.47489C54.9588 1.6278 55.9542 1.84995 56.9812 1.96535C59.6124 2.26539 60.0855 2.6491 60.3077 4.65132C60.4087 5.55433 60.5962 6.54967 60.7289 6.86702C60.8587 7.18437 61.127 8.549 61.3232 9.89631C61.5223 11.2436 61.7762 12.4784 61.8945 12.6371C62.0099 12.7958 62.1974 13.6353 62.307 14.5066C62.4166 15.375 62.6186 16.2174 62.7513 16.3819C62.884 16.5434 63.1466 17.7147 63.337 18.9842C63.5274 20.2536 63.7813 21.422 63.8996 21.5807C64.0207 21.7394 64.2775 22.9078 64.4737 24.1772C64.6699 25.4466 64.9382 26.7449 65.0709 27.0623C65.2065 27.3796 65.4719 28.5481 65.6623 29.6588C65.8527 30.7695 66.1037 31.8081 66.222 31.9668C66.3374 32.1255 66.5249 32.965 66.6346 33.8363C66.7442 34.7047 66.9462 35.5472 67.0789 35.7116C67.2116 35.8732 67.4741 37.0445 67.6645 38.3139C67.8549 39.5833 68.1088 40.7518 68.2329 40.9104C68.3541 41.0691 68.6224 42.3039 68.8301 43.6512C69.0349 44.9985 69.2975 46.2333 69.4129 46.392C69.5254 46.5507 69.7129 47.2662 69.8283 47.9788C69.9437 48.6914 70.137 49.4069 70.2553 49.5655C70.3765 49.7242 70.6361 50.9244 70.8352 52.2342C71.0342 53.544 71.2939 54.6143 71.4122 54.6143C71.5276 54.6143 71.7065 55.1971 71.8017 55.9126C71.8998 56.6252 72.0613 57.534 72.1623 57.9264C72.3123 58.5293 72.2085 58.6938 71.5161 58.9448C71.0631 59.1092 70.4342 59.3631 70.1168 59.5074C69.1878 59.9372 65.368 60.0267 65.0363 59.6256ZM58.0112 30.9513C58.5882 30.7349 58.7065 30.5676 58.4815 30.2964C58.317 30.0973 58.0891 29.2232 57.9795 28.3548C57.8698 27.4835 57.6823 26.6439 57.564 26.4853C57.4428 26.3266 57.189 25.06 56.9928 23.6695C56.7995 22.2818 56.5254 21.0729 56.384 20.9864C56.2398 20.8969 56.11 20.4757 56.0927 20.0487C56.0725 19.5871 55.9542 19.8583 55.7984 20.7152C55.6541 21.5086 55.4118 22.4174 55.2618 22.7347C55.1117 23.0521 54.8521 24.1541 54.6819 25.187C54.5117 26.2198 54.252 27.3219 54.1049 27.6393C53.9577 27.9566 53.7212 28.8971 53.5769 29.7309L53.3172 31.2456H55.2791C56.3581 31.2456 57.5871 31.1129 58.0112 30.9513ZM133.945 58.9881C133.697 58.4082 133.351 57.2195 133.178 56.3454C133.002 55.4712 132.673 54.3691 132.448 53.8931C132.053 53.0593 131.681 52.0294 131.669 51.7293C131.666 51.6485 131.559 51.4552 131.432 51.2966C131.306 51.1379 131.106 50.5522 130.991 49.9983C130.876 49.4444 130.685 48.8587 130.567 48.7C130.449 48.5413 130.195 47.7653 130.001 46.9719C129.808 46.1814 129.546 45.4024 129.416 45.2409C129.286 45.0822 129.015 44.1705 128.813 43.2185C128.611 42.2664 128.337 41.3634 128.204 41.2134C128.071 41.0633 127.962 40.7373 127.959 40.4921C127.959 40.2469 127.774 39.6929 127.549 39.2631C127.324 38.8332 126.987 37.7282 126.799 36.8108C126.612 35.8905 126.352 35.0076 126.222 34.849C126.092 34.6874 125.827 33.9084 125.634 33.1179C125.44 32.3246 125.183 31.5485 125.062 31.3898C124.938 31.2311 124.748 30.6137 124.638 30.0165C124.526 29.4193 124.327 28.8654 124.197 28.7846C124.067 28.7038 123.802 27.896 123.605 26.9844C123.409 26.0756 123.155 25.2014 123.043 25.0427C122.927 24.8841 122.662 23.9753 122.454 23.0232C121.681 19.5006 120.891 19.1948 121.009 22.4664C121.046 23.456 120.951 24.3417 120.798 24.434C120.645 24.5292 120.426 27.4575 120.311 30.9542C120.192 34.4479 120.008 37.3041 119.898 37.3041C119.702 37.3041 119.004 50.2031 119.012 53.6796C119.015 54.6749 118.862 55.7366 118.672 56.0424C118.398 56.481 118.407 56.7522 118.715 57.3263C119.434 58.6678 118.825 58.9419 115.123 58.9419H111.878L111.733 58.1485C111.656 57.7129 111.71 55.0817 111.86 52.3063C112.008 49.5309 112.175 46.0602 112.233 44.5975C112.29 43.1348 112.409 41.825 112.492 41.6865C112.579 41.548 112.737 38.4899 112.85 34.8865C112.96 31.286 113.159 28.2711 113.294 28.1874C113.427 28.1066 113.537 27.3652 113.534 26.5401C113.528 23.7849 114.166 14.9509 114.408 14.3681C114.543 14.0508 114.786 11.2955 114.953 8.24318C115.12 5.1937 115.366 2.46734 115.504 2.18461C116.56 0.00640453 116.612 -0.0570602 117.307 0.0179507C117.694 0.0583412 118.398 0.271829 118.874 0.491092C119.35 0.710354 120.334 1.16331 121.061 1.49509C122.659 2.225 123.21 2.81643 123.444 4.05411C123.539 4.57053 123.882 5.56876 124.203 6.27559C124.526 6.97954 124.791 7.72676 124.797 7.93449C124.803 8.13932 124.987 8.54899 125.209 8.84038C125.432 9.13466 125.697 9.879 125.804 10.4993C125.908 11.1196 126.101 11.6273 126.237 11.6273C126.369 11.6273 126.629 12.3457 126.811 13.2256C126.992 14.1027 127.324 15.1759 127.549 15.6058C127.774 16.0357 127.959 16.6069 127.959 16.8752C127.962 17.1435 128.077 17.4349 128.216 17.5215C128.357 17.608 128.631 18.5254 128.827 19.5612C129.023 20.5969 129.289 21.5086 129.419 21.5894C129.549 21.6701 129.814 22.4779 130.01 23.3896C130.206 24.2984 130.457 25.1726 130.573 25.3312C130.688 25.4899 130.876 26.0756 130.991 26.6295C131.106 27.1834 131.331 27.8008 131.493 27.9999C131.652 28.199 131.686 28.3605 131.568 28.3605C131.45 28.3605 131.484 28.5221 131.643 28.7212C131.805 28.9202 132.03 29.5376 132.145 30.0915C132.26 30.6455 132.451 31.2311 132.569 31.3898C132.687 31.5485 132.941 32.3246 133.135 33.1179C133.328 33.9084 133.588 34.6874 133.709 34.849C133.833 35.0076 134.101 35.9511 134.306 36.9435C134.508 37.936 134.77 38.7467 134.886 38.7467C135.065 38.7467 135.477 31.9178 135.887 22.2414C135.945 20.8566 136.054 19.6246 136.132 19.5006C136.21 19.3736 136.366 17.1954 136.481 14.6566C136.594 12.1178 136.802 9.89631 136.943 9.72032C137.084 9.54434 137.249 7.40364 137.309 4.96578C137.396 1.40854 137.505 0.476667 137.855 0.257405C138.469 -0.12919 143.252 2.30578 143.769 3.26938C144.072 3.83485 144.115 5.41585 143.965 10.8772C143.864 14.671 143.671 17.9802 143.535 18.2341C143.278 18.7216 142.667 28.5048 142.673 32.0389C142.673 33.1901 142.569 34.1306 142.439 34.1306C142.309 34.1306 142.044 38.8361 141.85 44.586C141.657 50.3733 141.374 55.1654 141.221 55.3183C141.068 55.4712 140.944 56.2675 140.944 57.0868V58.5784L139.863 58.7573C139.268 58.8553 138.258 58.9361 137.618 58.939C136.98 58.9419 136.201 59.115 135.887 59.3256C134.693 60.1363 134.416 60.0872 133.945 58.9881ZM227.224 59.3977C226.794 58.8784 226.783 47.7105 227.21 47.2835C227.369 47.1248 227.493 45.9535 227.49 44.6754C227.478 40.2094 228.122 25.6169 228.349 25.1754C228.476 24.9302 228.673 20.7758 228.785 15.9433C229.019 6.0996 229.149 6.77758 226.91 6.29001C225.009 5.87745 225.011 5.0004 226.921 2.7068C227.718 1.75185 228.609 0.840185 228.9 0.684393C229.394 0.41897 230.79 0.626688 232.111 1.15753C232.351 1.25563 232.665 1.30468 232.813 1.27005C233.13 1.19504 234.924 2.07209 235.646 2.65487C236.102 3.02127 236.151 3.7483 236.151 10.1704C236.151 14.0825 236.038 17.406 235.902 17.5561C235.767 17.7061 235.493 23.2165 235.297 29.803C235.098 36.3896 234.826 41.9115 234.691 42.0789C234.555 42.2462 234.405 44.8831 234.359 47.9413L234.275 53.4978L235.141 53.3392C236.534 53.0853 236.84 53.469 236.635 55.2029C236.537 56.0338 236.257 56.9339 236.015 57.2022C235.773 57.4705 235.574 57.8341 235.574 58.01C235.574 58.7169 234.278 59.2304 232.498 59.2304C231.511 59.2304 230.623 59.3602 230.525 59.5189C230.248 59.969 227.619 59.8709 227.224 59.3977ZM76.1437 57.5484C75.9186 56.0597 76.2244 15.124 76.5072 8.81442C76.6053 6.63333 76.7812 4.71767 76.9024 4.55899C77.0207 4.40032 77.2111 3.71945 77.3207 3.04724C77.4333 2.37214 77.615 1.76628 77.7246 1.69703C77.9814 1.53836 80.6991 2.10383 81.0799 2.39522C81.2386 2.51639 81.8243 2.70969 82.3782 2.8222C84.1987 3.19437 84.5824 3.62713 84.9776 5.76782C85.1767 6.84971 85.4392 7.86236 85.5633 8.02103C85.6873 8.17971 85.8806 8.82884 85.996 9.46355C86.1114 10.0983 86.3076 10.7503 86.4346 10.909C86.5586 11.0705 86.8212 11.8495 87.0145 12.64C87.2078 13.4334 87.4588 14.2094 87.5742 14.3681C87.6896 14.5268 87.9434 15.3721 88.1367 16.2434C88.33 17.1147 88.6705 18.2398 88.8955 18.7389C89.1176 19.238 89.3023 19.8295 89.3023 20.0516C89.3023 20.2738 89.4119 20.5796 89.5446 20.7296C89.6773 20.8796 89.9514 21.7826 90.1534 22.7347C90.3553 23.6868 90.6236 24.5956 90.7477 24.7542C90.8746 24.9129 91.1256 25.6255 91.3045 26.341C91.4863 27.0565 91.7402 27.8989 91.8671 28.2163C92.3402 29.3876 92.8249 30.8532 93.249 32.3996C93.4885 33.2709 93.7914 34.1191 93.9241 34.2777C94.0568 34.4393 94.3251 35.2154 94.5242 36.003C94.7233 36.7877 95.0551 37.76 95.2657 38.161C95.4734 38.562 95.6523 39.0842 95.658 39.3237C95.6638 39.5631 95.9206 40.2757 96.2264 40.9104C96.6476 41.7846 96.7861 41.9115 96.7947 41.4326C96.7976 41.0835 96.9419 40.7142 97.1121 40.6104C97.2881 40.5008 97.389 39.6554 97.3515 38.6226C97.3169 37.633 97.3602 36.704 97.4496 36.5569C97.5391 36.4127 97.6977 33.6978 97.8016 30.5243C97.9083 27.3508 98.1103 24.4946 98.2546 24.1772C98.3988 23.8599 98.6152 18.638 98.7421 12.5736C98.9556 2.0894 98.996 1.51817 99.5442 0.972896C100.049 0.4709 100.283 0.43628 101.419 0.684393C102.135 0.840185 102.911 1.05079 103.15 1.15177C103.39 1.25274 103.67 1.34795 103.777 1.35949C103.88 1.37392 104.065 1.48355 104.183 1.60183C104.304 1.72012 104.636 1.81821 104.922 1.81821C105.21 1.81821 105.655 2.13845 105.911 2.53081C106.327 3.16552 106.359 4.10893 106.174 10.9695C106.061 15.2192 105.871 18.8255 105.753 18.9842C105.634 19.1428 105.447 22.3827 105.34 26.1823C105.231 29.9848 105.04 33.2305 104.913 33.3949C104.783 33.5622 104.515 36.4242 104.313 39.7564C103.869 47.0959 103.886 46.9113 103.673 47.2633C103.577 47.4191 103.407 49.6002 103.289 52.113C103.113 55.9559 103.003 56.7031 102.611 56.8272C102.351 56.9079 101.881 57.0868 101.564 57.2253C101.246 57.3638 100.173 57.6292 99.1778 57.8167C98.1795 58.0014 97.2967 58.2668 97.2131 58.4024C97.1265 58.5409 96.7745 58.6505 96.4254 58.6476C95.935 58.6418 95.6147 58.2524 95.0002 56.9108C94.5646 55.9588 94.2069 54.9952 94.2069 54.7701C94.2069 54.5451 94.0914 54.2883 93.9501 54.2018C93.8087 54.1152 93.6068 53.6854 93.5 53.2468C93.3933 52.8083 92.9374 51.6716 92.4874 50.7195C92.0373 49.7675 91.5093 48.4692 91.3103 47.8345C91.1141 47.1998 90.7737 46.4237 90.5602 46.1121C90.3438 45.7977 90.1678 45.3707 90.1678 45.1572C90.1678 44.9466 89.8995 44.1648 89.5706 43.4204C89.2417 42.6732 88.8003 41.675 88.5897 41.1989C88.382 40.7229 88.1137 39.8805 87.9954 39.3265C87.88 38.7755 87.6174 38.06 87.4097 37.7398C87.2049 37.4224 86.9452 36.6406 86.8327 36.0059C86.7231 35.3712 86.5327 34.722 86.4144 34.5634C86.2932 34.4047 86.0999 33.819 85.9845 33.2651C85.8691 32.7112 85.6729 32.1255 85.546 31.9668C85.4219 31.8081 85.1709 31.0955 84.9892 30.3801C84.8074 29.6646 84.5737 28.8885 84.4727 28.649C84.3718 28.4096 84.1352 27.6335 83.9448 26.918L83.6015 25.6197L83.5668 27.5498C83.5466 28.6115 83.4024 29.5607 83.2437 29.6588C83.0591 29.7742 82.9552 34.8547 82.9552 43.957V58.0764H82.1474C81.7031 58.0764 81.2155 58.1889 81.0655 58.3274C80.9155 58.4688 79.7903 58.6505 78.57 58.7371L76.3485 58.8957L76.1437 57.5484ZM19.9172 57.5744C18.9651 57.5282 17.9265 57.3724 17.6092 57.2282C17.2918 57.0868 16.4061 56.8935 15.6387 56.8041C14.8713 56.7118 13.8961 56.4636 13.4749 56.2473C13.0508 56.0338 12.0728 55.5433 11.3025 55.1625C10.5322 54.7817 9.83689 54.3085 9.75611 54.1095C9.67822 53.9104 9.46184 53.7488 9.27431 53.7488C8.83579 53.7488 5.34778 50.232 5.34778 49.7877C5.34778 49.603 5.18333 49.3463 4.98426 49.2193C4.47073 48.8933 3.03975 46.6286 3.03975 46.1439C3.03975 45.9217 2.84357 45.5784 2.607 45.3822C2.37042 45.1861 2.17424 44.8081 2.17424 44.5456C2.17424 44.283 1.99248 43.807 1.76745 43.4868C1.5453 43.1694 1.21064 42.0702 1.02311 41.0431C0.835586 40.019 0.532657 38.8678 0.348014 38.487C-0.113591 37.5378 -0.116475 26.116 0.342245 25.1581C0.526888 24.7773 0.8327 23.4906 1.026 22.302C1.21929 21.1133 1.47895 20.0084 1.603 19.8497C1.72706 19.691 1.98095 18.9784 2.16559 18.2629C2.35311 17.5474 2.76279 16.4165 3.08014 15.7472C3.3975 15.0807 3.65715 14.4316 3.65715 14.3046C3.65715 14.1806 3.82448 13.8863 4.02643 13.6469C4.22839 13.4074 4.69576 12.565 5.06505 11.7716C5.43433 10.9782 6.2306 9.72609 6.83934 8.9904C7.44808 8.25472 7.94431 7.53634 7.94431 7.39498C7.94431 7.08051 11.19 3.83773 11.5044 3.83773C11.6285 3.83773 12.3238 3.3819 13.0508 2.82797C13.7779 2.27404 14.6087 1.81821 14.8915 1.81821C15.1771 1.81821 15.4973 1.67973 15.6012 1.50951C15.7079 1.33929 16.2676 1.22678 16.8446 1.25851C17.4245 1.29313 18.1371 1.21812 18.4285 1.09406C19.0892 0.8171 24.0688 1.146 24.5044 1.49509C24.6775 1.63645 25.2747 1.83841 25.8315 1.94515C26.3883 2.0519 27.1009 2.24519 27.4183 2.37502C30.2543 3.5348 30.3841 3.53192 30.5024 2.32309C30.5832 1.48355 30.6813 1.38834 31.4573 1.42585C32.4469 1.47489 34.6424 1.99131 35.4964 2.37791C35.8137 2.52216 36.3965 2.70969 36.7947 2.79335L37.5159 2.94915L37.6111 10.606L37.7034 18.2629H34.077H30.4476V17.1233C30.4476 15.8683 29.9773 13.2516 29.5878 12.3486C27.776 8.13355 26.2902 6.03613 23.8668 4.27914L22.5859 3.34727L21.3943 3.89255C20.1567 4.45802 20.0961 4.49263 18.7315 5.40431C17.4995 6.23231 16.0426 7.6806 16.0311 8.09316C16.0253 8.29223 15.8262 8.45379 15.5897 8.45379C15.3531 8.45379 15.1569 8.5865 15.1569 8.75095C15.1569 8.91539 14.6693 9.66839 14.075 10.4272C13.4807 11.1859 12.4219 12.966 11.7208 14.3854C11.0198 15.8049 10.287 17.2878 10.0879 17.6859C9.89171 18.084 9.63783 18.8947 9.52531 19.4919C9.41279 20.0891 9.21661 20.6402 9.08967 20.721C8.96273 20.7988 8.76943 21.4134 8.65692 22.0885C8.54728 22.7607 8.37707 23.4415 8.28186 23.6002C8.18665 23.7589 8.09433 24.1484 8.07414 24.4657C8.05683 24.7831 7.92412 25.3024 7.77698 25.6197C7.43366 26.3699 7.43078 37.558 7.7741 38.3139C8.11453 39.0582 8.09433 38.989 8.36553 40.3334C8.49247 40.9681 8.76366 41.8106 8.96561 42.2087C9.17045 42.6068 9.49935 43.3858 9.69841 43.9397C9.89748 44.4936 10.4283 45.5092 10.8784 46.19C11.3285 46.8738 11.6949 47.5633 11.6949 47.7278C11.6949 48.1288 16.7581 53.1718 17.1591 53.1718C17.3351 53.1718 17.9612 53.4834 18.5526 53.8671C19.144 54.2479 20.0817 54.6547 20.6385 54.7644C21.1953 54.8769 21.8069 55.0962 21.9973 55.2519C22.2397 55.4452 22.6176 55.3443 23.1975 54.9288C23.6649 54.597 24.1207 54.3258 24.213 54.3258C24.7006 54.3258 29.2936 48.9626 29.2936 48.3942C29.2936 48.1663 29.3974 47.9788 29.5244 47.9788C29.7869 47.9788 30.4476 46.2881 30.4476 45.6102C30.4476 44.661 31.7401 44.2282 34.5847 44.2282C37.7756 44.2282 38.0987 44.4359 37.8823 46.3516C37.7842 47.2258 37.3774 48.0971 36.5465 49.2222C35.8888 50.1108 35.3521 50.9705 35.3521 51.1292C35.3521 51.6716 31.466 55.3616 30.2225 55.9992C29.5417 56.3482 28.8493 56.6339 28.6791 56.6339C28.5088 56.6339 27.9607 56.8156 27.4616 57.0407C26.5124 57.4619 22.8859 57.7215 19.9172 57.5744Z" fill="white"/>
</svg>
