<svg width="310" height="59" viewBox="0 0 310 59" fill="none" xmlns="http://www.w3.org/2000/svg">
<path d="M68.3621 58.6404C68.1619 58.4393 67.998 58.0949 67.998 57.8756C67.998 57.6531 67.8706 57.2357 67.7128 56.9462C67.5551 56.6536 67.2032 55.386 66.9301 54.1306C66.654 52.8752 66.3507 51.641 66.2536 51.3881C66.1565 51.1352 66.0564 50.864 66.026 50.7787C65.9957 50.6934 65.8926 50.4222 65.7955 50.1693C65.6984 49.9163 65.3859 48.6243 65.1068 47.2927C64.8247 45.9611 64.4727 44.66 64.3271 44.3979C64.1815 44.1359 63.8114 42.8347 63.5049 41.5062C62.8952 38.8368 62.3976 38.2426 61.269 38.8338C60.814 39.0715 58.6387 39.2269 55.1286 39.2756L49.692 39.3518L49.419 40.266C49.2673 40.7687 49.0246 41.4544 48.882 41.7895C48.7363 42.1247 48.3996 43.2217 48.1326 44.2273C47.8626 45.2328 47.5592 46.2597 47.4561 46.5127C47.3529 46.7656 47.2467 47.0368 47.2164 47.1221C47.1861 47.2074 47.0859 47.4786 46.9919 47.7315C46.8979 47.9844 46.5884 49.0784 46.3032 50.1693C46.018 51.2602 45.6783 52.287 45.5448 52.4546C45.4143 52.6222 45.0685 53.7192 44.7833 54.8924C44.4951 56.0655 44.134 57.2661 43.9824 57.5587C43.6972 58.1071 42.3714 58.2961 42.0862 57.8299C41.9982 57.6866 40.897 57.4032 39.641 57.1991C37.8935 56.9157 37.3565 56.7115 37.3565 56.3367C37.3565 55.9162 38.0209 53.1342 38.4669 51.6928C38.5458 51.4399 38.6125 51.1687 38.6155 51.0834C38.6186 50.9981 38.743 50.7848 38.8916 50.605C39.0403 50.4252 39.3801 49.3313 39.647 48.1703C39.914 47.0093 40.2568 45.9124 40.4055 45.7326C40.5542 45.5528 40.897 44.4558 41.1639 43.2948C41.4309 42.1339 41.795 41.0125 41.9679 40.8023C42.1408 40.592 42.1833 40.4183 42.0589 40.4183C41.9345 40.4183 41.9709 40.2477 42.1378 40.0374C42.3016 39.8272 42.6748 38.6967 42.963 37.5235C43.2482 36.3503 43.588 35.2534 43.7154 35.0858C43.8428 34.9182 44.2463 33.614 44.6134 32.191C44.9835 30.7679 45.4629 29.1895 45.6843 28.6867C45.9028 28.1839 46.2516 27.0169 46.461 26.0966C46.6703 25.1764 46.9767 24.25 47.1406 24.0398C47.3074 23.8295 47.3408 23.6589 47.2164 23.6589C47.092 23.6589 47.1345 23.4852 47.3074 23.2749C47.4803 23.0647 47.8444 21.9433 48.1114 20.7823C48.3784 19.6214 48.7212 18.5244 48.8698 18.3446C49.0185 18.1648 49.3583 17.0739 49.6253 15.9221C49.8922 14.7703 50.2957 13.399 50.5263 12.878C50.9753 11.8541 51.9188 8.45958 51.9188 7.86843C51.9188 7.62771 51.2362 7.50887 49.8285 7.50887C47.7595 7.50887 47.6017 7.43574 47.2164 6.29C47.0192 5.69885 45.7723 2.95335 45.4265 2.34696C45.0381 1.66439 45.0563 1.56994 45.6601 1.25608C46.7492 0.689303 52.8229 0.680156 53.8969 1.24084C54.9132 1.77409 56.3512 1.83808 58.1078 1.42976C59.1393 1.18903 59.3608 1.23779 59.8401 1.81676C60.1465 2.18242 60.3983 2.66082 60.4044 2.87716C60.4105 3.09656 60.6987 3.90711 61.0506 4.67804C61.3995 5.44898 61.7241 6.5033 61.7696 7.02132C61.9031 8.52357 62.2914 10.3763 62.5432 10.7084C62.6676 10.876 63.0711 12.3843 63.4321 14.0603C63.7962 15.7362 64.2179 17.339 64.3696 17.6255C64.5213 17.9089 64.8641 19.143 65.128 20.3679C65.395 21.5898 65.6923 22.7965 65.7924 23.0494C65.8926 23.3024 65.9957 23.5766 66.026 23.6589C66.0564 23.7411 66.1595 24.0154 66.2627 24.2683C66.3628 24.5212 66.6662 25.7553 66.9392 27.0108C67.2123 28.2662 67.546 29.5033 67.6764 29.7593C67.8099 30.0153 68.2256 31.5907 68.5987 33.2636C68.9749 34.9365 69.3814 36.4418 69.5058 36.6094C69.6272 36.7769 69.9579 37.944 70.2461 39.1994C70.5313 40.4549 70.8437 41.689 70.9408 41.9419C71.0379 42.1948 71.1593 42.6031 71.2139 42.8561C71.8176 45.7082 72.6307 48.8346 72.8339 49.0906C73.107 49.4319 74.0657 53.832 74.0657 54.7492C74.0657 55.2946 69.703 58.9878 69.0447 59C68.8687 59.003 68.5623 58.8415 68.3621 58.6404ZM60.0646 32.325C60.6744 32.1879 60.7593 32.0203 60.638 31.1854C60.3923 29.4912 59.5125 25.6639 59.2212 25.0301C59.0695 24.6949 58.6478 23.1195 58.2807 21.5259C57.6193 18.6249 57.0672 16.9551 56.7699 16.9551C56.5454 16.9551 55.6201 19.6518 54.9071 22.3882C54.5734 23.6711 54.1881 24.8564 54.0486 25.0271C53.912 25.1977 53.5631 26.2947 53.278 27.4678C52.9897 28.641 52.6166 29.7715 52.4528 29.9818C52.2859 30.192 52.2495 30.3627 52.3739 30.3627C52.4983 30.3627 52.4649 30.5333 52.3041 30.7435C52.1403 30.9538 51.934 31.4261 51.843 31.7918C51.7095 32.3403 51.8278 32.4774 52.4831 32.5536C53.6177 32.6876 59.2091 32.517 60.0646 32.325ZM173.195 58.7135C171.839 58.4637 169.849 57.4916 169.176 56.7511C169.009 56.5653 167.968 55.6298 166.864 54.673C163.818 52.0311 163.845 52.1377 164.036 43.5813C164.352 29.5125 164.397 6.75317 164.112 5.99137C163.727 4.96752 163.348 4.77555 161.685 4.77251C160.902 4.76946 160.177 4.62929 160.074 4.4617C159.971 4.2941 159.486 4.15698 158.994 4.15698C157.935 4.15698 157.826 3.58716 158.73 2.76747C159.601 1.97521 162.993 1.68878 166.7 2.09405C168.975 2.34392 169.722 2.53588 169.837 2.90764C169.919 3.17579 170.28 3.94368 170.635 4.61406C171.254 5.77808 171.287 6.28086 171.36 15.8886C171.403 21.4192 171.327 31.1549 171.19 37.5235C171.005 46.2872 171.032 49.3252 171.308 50.0169C171.682 50.9585 173.972 53.4084 176.214 55.2611C177.182 56.0595 177.962 56.3946 179.445 56.6506C181.208 56.9523 181.478 56.9279 182.23 56.3946C182.685 56.0716 183.35 55.6389 183.702 55.4378C184.057 55.2337 184.557 54.8223 184.815 54.5237C185.073 54.222 185.552 53.8259 185.877 53.64C186.502 53.2835 186.829 52.2535 186.887 50.4526C186.911 49.7091 187.212 49.0418 187.834 48.341C188.431 47.6675 188.744 46.9911 188.744 46.3664C188.744 45.8423 188.895 45.2633 189.081 45.0774C189.502 44.6539 190.039 11.2569 189.678 8.00251C189.296 4.58358 188.028 3.62067 183.52 3.3251C181.014 3.1636 180.856 3.1118 180.856 2.46884C180.856 1.52117 182.085 1.33834 186.851 1.58212C192.327 1.86246 193.725 2.26773 195.439 4.06861L196.829 5.52821L196.759 22.9154C196.692 39.9582 196.562 43.9165 196.019 45.1414C195.87 45.4766 195.543 46.9027 195.288 48.3074C195.036 49.7122 194.62 51.0956 194.365 51.379C194.111 51.6624 193.901 52.0616 193.901 52.2688C193.901 52.9849 190.716 56.0381 189.351 56.6293C188.601 56.9553 187.576 57.4154 187.075 57.6531C186.575 57.8908 185.482 58.2229 184.648 58.3936C182.534 58.8202 174.937 59.0335 173.195 58.7135ZM11.563 58.29C10.9745 58.098 9.676 57.4611 8.68091 56.8761C7.68278 56.288 6.70286 55.7395 6.50566 55.6572C6.30543 55.5719 5.34675 54.7278 4.37593 53.7832C3.11083 52.5552 2.40698 51.5557 1.90944 50.279C1.52414 49.2978 1.02963 48.152 0.814231 47.7315C0.168028 46.4913 0.049709 43.7336 0.00420182 29.1438C-0.0231025 20.0327 0.0830805 14.5082 0.310616 13.0273C1.03266 8.34379 3.56893 4.73899 7.54019 2.74614L9.8914 1.56689L16.4141 1.63697C21.4897 1.69182 23.2887 1.8198 24.5326 2.21288C25.4124 2.49018 26.1314 2.81927 26.1314 2.9442C26.1314 3.06914 26.4044 3.24283 26.7382 3.3312C27.2266 3.45918 27.3449 3.34034 27.3449 2.73091V1.96911L30.6579 2.07272C32.4781 2.13061 34.0345 2.2464 34.1103 2.32868C34.1862 2.41095 34.35 6.16507 34.4714 10.6718L34.6898 18.8596L31.3981 18.6402C29.5869 18.5213 27.9729 18.2989 27.8152 18.1465C27.6574 17.9942 27.2266 17.8692 26.8565 17.8692C26.2285 17.8692 26.1769 17.6956 25.9736 14.8983C25.7067 11.1563 24.751 9.16348 21.8143 6.22905C19.0839 3.50183 17.5669 3.03257 15.1581 4.16612C13.2195 5.08027 12.7523 5.39109 11.0018 6.90248L9.41509 8.27675L9.41812 11.9303C9.42116 13.9414 9.29374 22.3303 9.13598 30.576C8.97822 38.8216 8.94788 45.8392 9.06924 46.1683C9.68813 47.8321 14.1327 52.3906 15.9681 53.2469C16.6356 53.5577 17.6853 53.8167 18.3011 53.8198C18.917 53.8228 19.5056 53.963 19.6117 54.1336C19.7301 54.3287 20.0395 54.2738 20.4551 53.9813C20.8131 53.7284 21.7111 53.5212 22.4453 53.5212C23.5891 53.5212 23.9349 53.3596 24.8056 52.4333C25.3669 51.833 25.828 51.2144 25.828 51.056C25.828 50.8945 26.1617 50.2546 26.5713 49.6299C26.9778 49.0052 27.4056 47.7833 27.5179 46.9179L27.7211 45.3425L29.8842 44.8215C31.0735 44.535 32.1778 44.1816 32.3355 44.0353C32.4933 43.889 33.094 43.7702 33.6674 43.7702H34.7141L34.529 45.7631C34.4258 46.86 34.1376 48.1307 33.8889 48.5817C33.6401 49.0357 33.2245 49.8493 32.9696 50.3856C31.8926 52.6497 28.9195 54.8375 25.9797 55.5262C25.4791 55.642 24.933 55.837 24.7662 55.9589C24.5993 56.0777 23.3039 56.4769 21.8841 56.8456C20.4642 57.2113 19.0323 57.6409 18.6986 57.7963C16.8358 58.6709 13.447 58.9025 11.563 58.29ZM105.611 57.9913C105.378 57.6287 104.95 56.1813 104.662 54.7796C104.373 53.3749 104.037 52.0037 103.918 51.7325C103.797 51.4582 103.676 51.1687 103.651 51.0834C103.548 50.7574 102.808 49.0449 102.268 47.8839C101.959 47.2135 101.422 45.7752 101.076 44.6844C100.733 43.5935 100.335 42.4965 100.196 42.2436C100.053 41.9907 99.7014 40.9607 99.4132 39.9582C99.1219 38.9526 98.7791 37.9958 98.6517 37.8282C98.5212 37.6606 98.1754 36.7678 97.8811 35.8476C97.5868 34.9273 97.1408 33.7602 96.889 33.2575C96.6372 32.7547 96.3399 32.1513 96.2337 31.9198C96.1245 31.6882 95.5632 31.4261 94.9868 31.3438C93.3546 31.1031 87.3234 31.1062 86.7318 31.3469C86.2828 31.5297 86.2009 31.9777 86.2009 34.2965C86.2009 35.7988 86.3374 37.1152 86.5043 37.2188C86.6954 37.3376 86.8077 40.8084 86.8077 46.6254C86.8077 57.5404 86.9867 56.9766 83.425 57.3332C82.2114 57.4581 80.9858 57.7049 80.7006 57.8817C80.3183 58.1224 80.0514 58.098 79.6752 57.7841C79.2474 57.4276 79.1867 56.8974 79.2868 54.4445C79.3506 52.8386 79.4962 51.3759 79.6084 51.1962C79.7207 51.0133 79.7358 50.7848 79.6418 50.6903C79.5447 50.5959 79.4871 48.4171 79.5083 45.8484C79.5295 43.2796 79.3445 35.8323 79.0957 29.2961C78.8469 22.76 78.5587 15.2274 78.4586 12.555C78.3585 9.88261 78.2098 7.58505 78.1249 7.45097C78.043 7.31385 77.3027 7.20415 76.4806 7.20415C74.7058 7.20415 74.3903 6.83849 73.5893 3.85226C73.2981 2.76138 72.928 1.70096 72.7672 1.49071C72.576 1.24084 72.5912 0.969641 72.8127 0.70149C73.2738 0.143857 90.6545 -0.27056 93.3304 0.21394C94.3315 0.393724 95.7301 0.619219 96.44 0.713681C97.1499 0.808143 97.7294 0.984875 97.7294 1.10981C97.7294 1.23474 98.3089 1.42672 99.0188 1.53946C99.7287 1.64916 101.276 2.20679 102.459 2.77356C104.191 3.60849 105.12 4.352 107.237 6.613C108.681 8.15487 109.865 9.56876 109.868 9.75768C109.868 9.94661 110.086 10.5103 110.353 11.0131C111.09 12.4057 111.281 16.6351 110.663 17.8784C110.393 18.4269 110.168 19.0637 110.168 19.2953C110.168 19.5239 109.631 20.7854 108.973 22.1018C108.072 23.8996 107.162 25.1002 105.302 26.9468L102.832 29.4028L103.23 30.5699C103.445 31.2098 103.8 32.0051 104.015 32.3342C104.228 32.6663 104.404 33.1112 104.404 33.3276C104.404 33.5439 104.671 34.3026 104.995 35.0126C105.32 35.7226 105.869 37.1944 106.218 38.2853C106.567 39.3762 106.979 40.5402 107.137 40.8754C107.292 41.2106 107.614 42.0333 107.85 42.7037C108.305 43.9835 109.989 48.0545 110.508 49.1149C110.675 49.4593 111.063 50.8975 111.372 52.3145L111.934 54.8924L111.127 55.5628C110.684 55.9315 109.91 56.4007 109.41 56.6079C108.909 56.8151 107.944 57.3575 107.268 57.8177L106.036 58.6526L105.611 57.9913ZM95.4753 25.0423C95.9637 24.7863 96.5553 24.5761 96.7889 24.5761C97.3229 24.573 99.9866 22.376 101.409 20.7641C103.284 18.6432 104.95 14.7855 105.523 11.2386C105.76 9.78815 104.892 8.16401 103.588 7.61856C102.298 7.07617 97.426 6.59471 97.426 7.00913C97.426 7.18282 96.1609 7.21939 94.2132 7.10055C92.308 6.98171 89.8233 7.04874 88.1061 7.259L85.2088 7.61552L85.406 12.9724C85.5153 15.916 85.6882 19.9078 85.7913 21.8428L85.9764 25.3622L88.2851 25.4476C89.5563 25.4963 90.6636 25.603 90.7486 25.6883C91.0459 25.9869 94.5985 25.5024 95.4753 25.0423ZM223.633 58.3418C223.05 58.1742 222.504 57.9426 222.419 57.8329C222.337 57.7202 221.721 57.3575 221.054 57.0254C220.386 56.6933 219.637 56.2667 219.385 56.0808C218.712 55.578 216.285 55.0447 214.659 55.0447C212.951 55.0447 211.033 55.5628 209.935 56.3185C209.492 56.6232 209.058 56.873 208.97 56.873C208.567 56.873 206.947 54.9381 206.947 54.4536C206.947 54.155 206.607 53.4054 206.188 52.7898C205.254 51.4034 205.251 51.2693 206.164 50.5745L206.898 50.0169L207.256 28.0773C207.453 16.0105 207.738 6.00661 207.887 5.84816C208.345 5.36061 208.191 4.19355 207.629 3.90102C207.338 3.74866 206.452 3.53231 205.663 3.41652C204.875 3.30073 204.15 3.07828 204.052 2.91983C203.955 2.76138 203.534 2.63339 203.115 2.63339C202.466 2.63339 202.369 2.51151 202.451 1.79542C202.536 1.05496 202.742 0.908701 204.216 0.54304C205.563 0.210899 206.379 0.20175 208.458 0.488184C209.874 0.68625 211.224 1.00926 211.464 1.20732C211.767 1.46024 214.043 1.56993 219.203 1.57298C224.115 1.57907 227.024 1.70706 228.065 1.96911C229.458 2.32259 229.652 2.47494 229.979 3.4866C230.18 4.10822 230.301 5.68971 230.249 7.01828C230.137 9.85519 229.691 10.4342 228.265 9.58704C227.801 9.3128 226.263 8.9258 224.846 8.72774C223.426 8.53272 222.034 8.24933 221.752 8.09697C221.466 7.94766 221.163 7.93852 221.078 8.07869C220.993 8.21581 219.613 8.41693 218.014 8.52053C216.412 8.62718 214.968 8.79782 214.804 8.89838C214.625 9.00808 214.522 11.2569 214.546 14.5296C214.565 17.5249 214.525 20.0845 214.452 20.2186C214.383 20.3496 214.295 21.6416 214.258 23.086L214.188 25.7157L214.971 25.5634C215.824 25.4019 222.85 26.5842 223.705 27.0351C224.34 27.3734 225.872 27.4038 226.187 27.0869C226.311 26.962 226.506 26.8523 226.615 26.8432C226.727 26.8371 227.425 26.5263 228.165 26.1576C228.905 25.7889 229.728 25.4872 229.995 25.4872C230.504 25.4872 232.734 29.9269 232.734 30.9447C232.734 31.6547 232.039 32.2488 230.004 33.2757C228.663 33.9522 227.932 34.1168 226.29 34.1107C225.165 34.1046 224.073 33.9583 223.863 33.7846C223.375 33.3824 218.666 32.4957 217.025 32.4957C216.336 32.4957 215.426 32.6541 215.001 32.8491L214.228 33.2026L214.216 39.172C214.21 42.4538 214.128 45.9154 214.034 46.8631C213.861 48.5604 213.87 48.5847 214.725 48.7737C215.639 48.9778 218.433 50.3247 220.165 51.4034C221.342 52.1316 223.854 52.476 225.838 52.1774C226.921 52.0128 227.586 51.6197 229.1 50.2454L230.999 48.5177L231.866 49.5598C232.343 50.1327 232.734 50.7391 232.734 50.9036C232.734 51.0682 233.086 51.7142 233.517 52.3358C234.797 54.1946 234.703 54.8528 232.922 56.4678C232.067 57.2417 230.929 58.0614 230.392 58.2869C229.263 58.7653 225.219 58.7958 223.633 58.3418ZM303.167 57.7445C303.018 57.3484 302.721 56.0655 302.5 54.8924C302.281 53.7192 302.005 52.6222 301.89 52.4546C301.775 52.287 301.45 50.9158 301.168 49.4075C300.886 47.8991 300.576 46.4609 300.479 46.2079C300.264 45.6442 300.227 45.4827 299.56 42.1278L299.023 39.4219L295.686 39.6139C293.85 39.7205 290.971 39.8058 289.287 39.8089H286.229L285.698 42.0181C285.407 43.2339 285.061 44.3644 284.934 44.532C284.803 44.6996 284.4 46.0038 284.033 47.4268C283.669 48.8498 283.25 50.2912 283.104 50.6263C282.959 50.9615 282.613 52.0585 282.34 53.0641C281.372 56.6171 281.363 56.6262 276.649 57.0467C274.382 57.2478 274.297 57.2326 274.297 56.6049C274.297 56.2453 274.419 55.7121 274.567 55.4226C274.716 55.1301 275.08 53.7954 275.377 52.4546C275.675 51.1139 275.996 49.8798 276.09 49.7122C276.184 49.5446 276.275 49.3404 276.291 49.2551C276.309 49.1698 276.394 48.8986 276.482 48.6457C277.003 47.1373 277.331 45.9581 277.334 45.5772C277.334 45.3364 277.537 44.7514 277.786 44.273C278.035 43.7946 278.529 42.1491 278.881 40.6164C279.236 39.0837 279.637 37.6911 279.767 37.5235C279.901 37.3559 280.231 36.329 280.501 35.2381C280.775 34.1472 281.081 33.0533 281.187 32.8004C281.29 32.5475 281.396 32.2732 281.427 32.191C281.457 32.1087 281.557 31.8344 281.654 31.5815C281.751 31.3286 282.067 30.1646 282.361 28.9914C282.652 27.8183 282.989 26.7213 283.104 26.5537C283.223 26.3861 283.632 25.0149 284.018 23.5065C284.4 21.9982 284.813 20.6269 284.937 20.4593C285.058 20.2918 285.395 19.1948 285.68 18.0216C285.968 16.8484 286.311 15.7515 286.445 15.5839C286.575 15.4163 286.687 15.2091 286.69 15.1268C286.693 15.0445 286.76 14.7703 286.839 14.5174C286.915 14.2644 287.212 13.1705 287.497 12.0796C287.783 10.9887 288.125 9.96184 288.259 9.79425C288.392 9.62665 288.602 8.95933 288.72 8.31333L288.939 7.13711L287.428 7.34432L285.914 7.55457L285.698 4.13261C285.532 1.46024 285.571 0.65273 285.883 0.439428C286.257 0.180419 287.397 0.216984 294.266 0.686248C297.479 0.908692 297.288 0.725866 297.94 4.15698C298.149 5.24787 298.434 6.41189 298.577 6.74708C298.72 7.08226 299.062 8.52358 299.338 9.94661C299.615 11.3696 299.915 12.7409 300.006 12.9938C300.094 13.2467 300.209 13.655 300.255 13.9079C300.758 16.5559 301.687 20.5843 301.911 21.0688C302.063 21.404 302.478 23.2536 302.83 25.1825C303.185 27.1113 303.574 28.8238 303.695 28.9914C303.816 29.159 304.168 30.6674 304.478 32.3433C304.787 34.0193 305.139 35.5276 305.257 35.6952C305.376 35.8628 305.767 37.5753 306.128 39.5042C306.492 41.433 306.911 43.2339 307.059 43.5082C307.208 43.7854 307.621 45.5467 307.973 47.4268C308.325 49.3069 308.734 51.0682 308.88 51.3455C309.025 51.6197 309.301 52.7167 309.49 53.7802C309.681 54.8436 309.905 55.8949 309.987 56.1143C310.09 56.3855 309.578 56.6689 308.373 57.0041C307.402 57.2722 306.386 57.6196 306.113 57.772C305.843 57.9243 305.127 58.1437 304.526 58.2564C303.561 58.4393 303.401 58.3783 303.167 57.7445ZM294.603 32.5993L297.403 32.4012L297.2 31.3073C297.087 30.707 296.908 30.0762 296.799 29.9086C296.69 29.738 296.289 28.0925 295.907 26.249C294.994 21.8641 295.036 22.053 294.842 21.5259C294.748 21.2729 294.499 20.1424 294.287 19.0119C294.078 17.8814 293.753 16.9551 293.565 16.9551C293.377 16.9551 292.907 18.2227 292.521 19.7737C292.136 21.3247 291.711 22.7295 291.584 22.8971C291.454 23.0647 291.108 24.1617 290.816 25.3348C290.525 26.5049 290.176 27.672 290.043 27.9249C289.906 28.1748 289.585 29.1651 289.324 30.1219C289.063 31.0818 288.769 32.0752 288.672 32.3311C288.462 32.8735 289.87 32.9375 294.603 32.5993ZM143.106 57.8207C143.015 57.6744 142.481 57.4642 141.917 57.3606C140.197 57.0345 138.112 55.3738 135.789 52.479C132.676 48.5969 132.285 48.1734 131.229 47.5792C130.316 47.0642 130.264 47.0703 129.105 47.8047C127.042 49.1119 123.89 52.7258 123.523 54.1976C122.965 56.4434 123.028 56.4068 119.464 56.5013L116.236 56.5897L116.239 55.2824C116.239 53.64 116.754 51.7508 117.434 50.8793C118.241 49.8524 121.496 47.1282 121.924 47.1251C122.133 47.1221 122.303 47.0154 122.303 46.8844C122.303 46.6802 123.869 45.888 124.479 45.7844C124.588 45.7661 124.782 45.6473 124.906 45.5223C125.034 45.3974 125.471 45.2938 125.88 45.2938C126.508 45.2938 126.566 45.2207 126.247 44.8367C126.041 44.5838 125.695 44.3796 125.483 44.3796C125.273 44.3796 125.019 44.1724 124.921 43.9165C124.824 43.6636 124.4 43.3253 123.981 43.1638C123.559 43.0023 123.213 42.6671 123.213 42.4173C123.213 42.1674 122.94 41.817 122.607 41.6372C122.273 41.4574 122 41.1923 122 41.0491C122 40.9028 121.521 40.0709 120.938 39.1994C120.356 38.328 119.876 37.4199 119.876 37.1853C119.876 36.9476 119.612 36.1736 119.288 35.4636C118.963 34.7536 118.469 33.3489 118.189 32.3433C117.907 31.3377 117.577 30.3779 117.449 30.2103C117.106 29.7563 116.539 26.1088 116.539 24.3658C116.539 23.2262 116.384 22.699 115.932 22.2876C115.316 21.73 115.11 20.4776 115.583 20.1821C115.726 20.0937 115.929 19.0912 116.035 17.9546C116.142 16.818 116.439 15.0659 116.7 14.0603C117.167 12.2442 119.1 8.1183 120.234 6.51854C121.017 5.41241 124.163 3.17884 126.748 1.89293C129.836 0.357161 131.717 0.0646291 135.528 0.518658C137.263 0.725865 138.686 0.994014 138.686 1.1159C138.686 1.23779 139.265 1.42672 139.975 1.53337C142.915 1.98435 147.484 5.02847 147.484 6.53682C147.484 6.82935 147.684 7.35651 147.93 7.70693C148.176 8.0604 148.361 8.73993 148.343 9.22443C148.327 9.70588 148.482 10.9217 148.691 11.9273C149.456 15.6204 148.989 32.4408 148.088 33.5622C147.954 33.7298 147.675 34.7414 147.466 35.811C147.226 37.039 146.71 38.3158 146.07 39.2695C145.512 40.1014 145.057 40.8205 145.057 40.8663C145.057 41.302 142.882 43.1608 142.175 43.3284C141.674 43.4472 140.925 43.8555 140.506 44.2334C140.087 44.6143 139.314 45.0165 138.783 45.1292C137.421 45.4157 136.926 46.08 137.891 46.3237C138.598 46.5035 142.326 50.282 142.326 50.8214C142.326 51.2205 144.438 53.3018 145.949 54.3926L147.296 55.3677L148.012 54.5206C148.406 54.0544 148.922 53.2408 149.162 52.7106C149.398 52.1804 149.759 51.6929 149.963 51.6258C150.208 51.5435 150.387 50.3856 150.5 48.1734L150.669 44.8459L151.883 44.6295C153.606 44.3248 156.965 44.34 157.462 44.6569C157.79 44.8672 157.85 45.6107 157.738 48.1338C157.608 51.123 157.526 51.4613 156.561 53.0763C155.991 54.03 155.342 54.8802 155.12 54.9686C154.899 55.0569 154.601 55.4378 154.459 55.8157C154.283 56.2819 153.7 56.6719 152.666 57.0193C151.822 57.2996 151.055 57.6562 150.958 57.8116C150.736 58.1711 143.328 58.1803 143.106 57.8207ZM133.771 43.0998C133.971 42.8987 134.135 42.4934 134.135 42.1979C134.135 41.9053 134.563 40.9394 135.088 40.0496C136.732 37.2645 138.261 34.2295 138.813 32.648C139.108 31.8101 139.484 30.8654 139.654 30.5455C139.978 29.933 141.122 24.9661 141.243 23.6345C141.283 23.2048 141.401 22.7112 141.504 22.5436C141.902 21.8976 142.078 14.3498 141.738 12.5367C141.246 9.93442 141.234 9.88566 140.852 8.93494C140.661 8.46568 140.506 7.90805 140.506 7.70084C140.506 7.09445 139.062 5.26615 138.155 4.7268C137.697 4.45255 137.351 4.08994 137.387 3.9193C137.424 3.74561 137.287 3.54146 137.084 3.46528C136.641 3.29768 133.792 4.16612 133.192 4.65367C132.961 4.8426 132.224 5.29053 131.556 5.65009C127.573 7.7953 127.291 8.11526 124.521 13.6032C123.42 15.785 123.362 16.044 123.265 19.3319C123.162 22.7721 123.635 27.7878 124.118 28.3759C124.257 28.5465 124.6 29.5765 124.879 30.6674C125.471 32.9985 126.165 34.6287 128.259 38.6235C128.941 39.9216 132.327 43.4655 132.888 43.4655C133.173 43.4655 133.571 43.3009 133.771 43.0998ZM248.965 57.5617C247.803 56.9858 245.124 53.8228 244.117 51.8452C243.689 51.0072 243.21 49.3983 243.046 48.2678C242.74 46.1592 242.664 31.0544 242.952 29.8355C243.107 29.1773 243.204 29.159 245.886 29.3205C247.412 29.4119 248.935 29.5399 249.268 29.6069C249.86 29.7227 249.875 29.9696 249.875 38.9587C249.878 47.9631 249.893 48.2191 250.558 49.4044C250.934 50.0718 251.24 50.7391 251.24 50.8884C251.24 51.2723 254.326 55.0447 254.641 55.0447C254.784 55.0447 254.99 54.804 255.099 54.5115C255.209 54.219 255.463 53.8411 255.667 53.6735C256.14 53.2835 257.005 49.3861 257.005 47.6462C257.005 46.9118 257.086 46.2262 257.19 46.1257C257.29 46.0221 257.35 44.0688 257.326 41.7804C257.296 39.0501 257.396 37.4778 257.623 37.2036C257.881 36.8897 257.881 36.5179 257.62 35.7226C257.22 34.5068 257.244 28.8573 257.651 28.3454C257.802 28.1565 257.887 23.5035 257.842 17.8327L257.763 7.66123L250.179 7.76483C245.819 7.82577 242.439 7.99642 242.233 8.17011C242.033 8.33466 241.553 8.42606 241.171 8.37121C240.492 8.2737 240.467 8.16096 240.385 4.84259L240.297 1.41453H242.676C244.087 1.41453 245.197 1.26826 245.406 1.058C245.667 0.795947 249.742 0.683206 260.639 0.634452L275.517 0.570464L275.69 1.37491C275.787 1.8137 275.942 2.38048 276.036 2.63339C276.13 2.88631 276.178 3.38604 276.145 3.74561C276.112 4.10822 276.227 4.49217 276.403 4.60186C276.579 4.71156 276.724 5.33319 276.724 5.97919C276.724 7.03961 276.633 7.17673 275.814 7.35651C275.314 7.46621 272.62 7.57286 269.822 7.59114L264.741 7.62466L264.653 25.9229C264.598 37.0634 264.45 44.337 264.274 44.5137C264.113 44.6752 263.982 45.9002 263.982 47.2348C263.982 50.9676 263.461 53.4358 262.299 55.2184C261.046 57.1412 260.072 57.4825 255.849 57.4825C254.141 57.4825 252.712 57.6165 252.606 57.7872C252.333 58.229 250.024 58.0858 248.965 57.5617Z" fill="white"/>
</svg>
