<svg width="300" height="92" viewBox="0 0 300 92" fill="none" xmlns="http://www.w3.org/2000/svg">
<path d="M111.094 91.6495C110.83 91.3338 110.451 91.0751 110.252 91.0751C109.48 91.0751 106.512 88.7281 106.038 87.7429C105.763 87.1723 105.067 86.4838 104.489 86.2061C103.587 85.7763 103.442 85.4796 103.442 84.0645C103.442 83.0679 103.667 82.2349 104.015 81.9458C104.333 81.6871 104.589 81.1469 104.589 80.7513C104.589 80.3557 104.742 79.7357 104.925 79.3743C105.472 78.3092 106.015 76.9436 106.704 74.9085C107.055 73.8625 107.484 72.6642 107.648 72.2458C107.816 71.8274 108.161 70.884 108.413 70.1537C108.665 69.4233 109.021 68.48 109.201 68.0615C110.13 65.9085 109.996 65.7868 106.581 65.6689C103.893 65.5738 103.247 65.6765 102.317 66.3346C101.713 66.7606 100.623 67.1105 99.8929 67.1105C98.5927 67.1105 98.5239 67.1942 96.5774 71.0096C95.4837 73.155 94.0918 75.7644 93.4799 76.8105C92.8681 77.8566 92.3671 79.013 92.3595 79.3781C92.3556 79.7433 92.2218 80.0476 92.065 80.0476C91.7935 80.0514 91.1281 81.3676 89.9962 84.133C89.717 84.8139 89.3576 85.3693 89.2008 85.3693C89.0402 85.3693 88.9101 85.8828 88.9101 86.5104C88.9101 87.1381 88.7572 87.6516 88.5698 87.6516C88.3824 87.6516 88.1262 88.0624 88 88.5608C87.8738 89.0591 87.4876 89.5764 87.1434 89.7095C86.478 89.9644 83.4226 88.2146 82.2141 86.887C81.8356 86.4686 81.3193 86.1301 81.0707 86.1301C80.8222 86.1301 80.2945 85.7763 79.9044 85.3465C79.3537 84.7454 79.2849 84.4183 79.6061 83.9086C79.8317 83.5472 80.1453 82.6685 80.3021 81.9572C80.4589 81.2497 80.8948 80.1199 81.2734 79.4542C82.3289 77.5827 82.6424 76.9741 83.7897 74.6004C84.3748 73.3832 84.9904 72.3029 85.1587 72.2002C85.3308 72.0975 85.4685 71.679 85.4685 71.272C85.4685 70.865 85.6405 70.5341 85.8509 70.5341C86.0612 70.5341 86.2333 70.2145 86.2333 69.8227C86.2333 69.4347 86.5468 68.7082 86.9254 68.2061C87.3078 67.7078 88.3824 65.7906 89.3155 63.9457C90.2486 62.1008 91.3155 60.2673 91.6826 59.8717C92.0497 59.4761 92.3518 58.9131 92.3518 58.6202C92.3518 58.3235 92.673 57.6769 93.0631 57.1748C93.457 56.6765 93.8891 55.9157 94.0229 55.482C94.1606 55.0484 94.5774 54.3637 94.9522 53.9605C95.327 53.5573 95.87 52.6291 96.1683 51.895C96.4627 51.1608 97.1013 50.0348 97.587 49.3882C98.0727 48.7377 98.4704 47.9541 98.4704 47.6384C98.4704 47.3265 98.8145 46.7597 99.2352 46.3793C99.6558 45.9989 100 45.3751 100 44.9909C100 44.6029 100.176 44.2872 100.394 44.2872C100.612 44.2872 100.902 43.9866 101.044 43.6215C101.185 43.2563 102.382 41.2935 103.709 39.2584C105.033 37.2233 106.119 35.386 106.119 35.1692C106.119 34.9524 106.291 34.7774 106.501 34.7774C106.711 34.7774 106.883 34.5986 106.883 34.378C106.883 33.8607 109.556 29.6802 109.992 29.5166C110.176 29.4443 110.325 29.2123 110.325 28.9993C110.325 28.5048 113.277 24.796 113.992 24.3927C114.287 24.2254 114.532 23.8602 114.532 23.5825C114.532 22.5098 119.583 19.8319 121.686 19.7862C123.235 19.752 123.468 19.9079 126.761 23.1679L130.21 26.5838V30.4676C130.21 32.6054 130.061 34.4427 129.878 34.5568C129.698 34.6671 129.446 35.4925 129.319 36.3864C129.189 37.2804 128.918 38.6954 128.711 39.5323C128.501 40.3691 128.13 41.9516 127.881 43.0509C127.633 44.1502 127.281 45.0479 127.101 45.0479C126.918 45.0479 126.769 45.706 126.769 46.5048C126.769 47.3074 126.65 48.0834 126.505 48.2242C126.111 48.616 125.254 51.2179 125.231 52.0851C125.224 52.5036 124.964 53.1769 124.654 53.5839C124.344 53.9909 124.092 54.6338 124.092 55.0141C124.092 55.3983 123.935 56.007 123.744 56.3683C123.27 57.2623 121.797 62.0552 121.797 62.698C121.797 62.9795 121.541 63.4284 121.224 63.687C120.906 63.9457 120.65 64.5087 120.65 64.9309C120.65 65.7374 119.197 70.0662 118.707 70.7243C118.551 70.9335 118.302 71.7475 118.157 72.5349C118.008 73.3223 117.732 74.0603 117.549 74.1744C117.361 74.2885 117.208 74.7906 117.208 75.2889C117.208 75.7873 117.036 76.3008 116.826 76.4301C116.616 76.5594 116.444 77.0844 116.444 77.5941C116.444 78.1038 116.291 78.5223 116.103 78.5223C115.916 78.5223 115.679 79.0776 115.576 79.7585C115.365 81.166 114.681 83.1668 113.878 84.715C113.38 85.6698 113.396 85.8372 114.038 86.4268C114.432 86.7881 115.159 87.5489 115.66 88.1233L116.57 89.1656L115.457 90.1318C114.841 90.6605 113.912 91.2007 113.384 91.3262C112.857 91.4555 112.237 91.7104 112 91.893C111.74 92.0984 111.388 92.0033 111.094 91.6495ZM109.468 57.6655C109.836 57.4905 110.707 57.0645 111.407 56.7145C112.107 56.3645 112.883 56.0792 113.132 56.0792C113.377 56.0792 113.816 55.5239 114.103 54.843C114.39 54.1621 114.864 53.1084 115.151 52.5036C115.442 51.895 115.679 51.0315 115.679 50.5826C115.679 50.1337 115.824 49.6012 116 49.4034C116.172 49.2056 116.788 47.5014 117.365 45.6185C117.943 43.7356 118.57 41.8983 118.765 41.5331C118.96 41.1718 119.12 40.6126 119.12 40.2931C119.12 39.9735 119.293 39.3725 119.503 38.9579C119.713 38.5395 120.057 37.8624 120.268 37.4439C120.478 37.0293 120.65 35.7208 120.65 34.5378C120.65 33.0847 120.834 32.2516 121.216 31.9663C121.579 31.6962 121.663 31.3577 121.453 31.0268C121.205 30.6311 120.956 30.7909 120.424 31.6924C120.038 32.3429 119.587 32.8755 119.419 32.8755C119.254 32.8755 119.12 33.039 119.12 33.2368C119.12 33.5754 115.797 38.5433 115.293 38.9617C115.166 39.0644 114.834 39.7073 114.558 40.3882C114.283 41.0691 113.916 41.6244 113.748 41.6244C113.576 41.6244 113.315 41.9972 113.17 42.4575C113.025 42.9139 112.153 44.4583 111.231 45.8848C110.314 47.3113 109.56 48.635 109.56 48.8252C109.56 49.0154 109.43 49.2246 109.266 49.2969C108.967 49.4262 106.119 54.0708 106.119 54.4322C106.119 54.5425 105.759 55.1321 105.319 55.7483C104.149 57.3802 104.57 57.9812 106.876 57.9812C107.939 57.9812 109.105 57.8404 109.468 57.6655ZM66.8451 91.1892C66.3862 91.1017 64.8375 89.9568 63.4034 88.6482C61.9732 87.3359 60.501 86.1567 60.1338 86.0197C59.0057 85.6051 59.2199 81.9306 60.5163 79.5265C61.0937 78.45 61.6979 77.5142 61.8547 77.4458C62.0115 77.3735 62.1415 76.8181 62.1415 76.2095C62.1415 75.5971 62.2906 75.0987 62.4704 75.0987C62.6539 75.0987 63.109 74.2847 63.4838 73.2919C63.8585 72.2991 64.501 70.7167 64.914 69.7733C66.0191 67.2399 66.2294 66.753 67.2925 64.3071C67.8241 63.0746 68.26 61.7851 68.26 61.4351C68.26 61.0814 68.4627 60.5945 68.7113 60.3472C69.3537 59.7082 68.7381 59.2517 67.9541 59.788C66.1989 60.9939 63.8853 62.1655 63.2619 62.1655C62.8795 62.1655 62.4627 62.3367 62.3327 62.5459C62.1989 62.7627 60.1912 62.9263 57.6252 62.9301C52.2945 62.9301 50.3939 63.3561 49.8968 64.6608C49.7017 65.1706 49.3958 65.589 49.2199 65.589C48.3709 65.589 47.2237 67.3274 46.4704 69.7505C46.0115 71.2226 45.4799 72.5273 45.2849 72.6452C45.0899 72.7631 44.9331 73.2653 44.9331 73.756C44.9331 74.2505 44.4015 75.7378 43.7553 77.0616C43.1052 78.3891 42.1568 80.3291 41.6444 81.3752C41.1319 82.4213 40.7189 83.551 40.7189 83.8858C40.7266 84.6085 39.6788 86.7843 39.174 87.0963C38.9751 87.218 38.8145 87.6782 38.8145 88.1195C38.8145 88.5608 38.5354 89.2302 38.195 89.603C37.6482 90.204 37.457 90.2269 36.5698 89.7704C36.0153 89.4851 35.2352 88.8917 34.8337 88.4504C34.4359 88.013 33.9885 87.6516 33.847 87.6516C33.7017 87.6516 32.8681 86.9745 31.9924 86.1453C30.1683 84.4183 29.8968 82.7978 31.1663 81.185C31.5794 80.66 31.9312 79.8917 31.9503 79.4732C31.9694 79.0548 32.3174 78.1989 32.7189 77.5713C33.1243 76.9436 33.5564 76.1753 33.6826 75.8595C33.8088 75.5438 34.0918 74.8629 34.3098 74.338C34.5316 73.813 34.8451 73.0446 35.0057 72.6262C35.6597 70.9487 35.7897 70.6824 36.4551 69.5831C36.8336 68.9554 37.3728 67.6241 37.652 66.6237C37.9273 65.627 38.3021 64.7179 38.4857 64.6076C38.6654 64.4935 38.8145 64.0066 38.8145 63.5197C38.8145 63.0366 39.0707 62.4241 39.3881 62.1655C39.7055 61.9068 39.9618 61.2944 39.9618 60.8113C39.9618 60.3244 40.1338 59.8223 40.3442 59.6929C40.5545 59.5636 40.7266 59.0501 40.7266 58.5518C40.7266 58.0535 40.8987 57.5399 41.109 57.4106C41.3193 57.2813 41.4914 56.7563 41.4914 56.2466C41.4914 55.7369 41.6635 55.3185 41.8738 55.3185C42.0841 55.3185 42.2562 54.9989 42.2562 54.6071C42.2562 53.8654 43.4493 50.5636 44.3862 48.7263C44.6883 48.1329 44.9331 47.1591 44.9331 46.5619C44.9331 45.9647 45.086 45.3789 45.2696 45.2648C45.5526 45.0936 46.8145 42.2559 47.9885 39.1519C48.1453 38.7335 48.631 37.5352 49.0708 36.4892C49.5067 35.4431 49.9732 34.203 50.1032 33.7313C50.2333 33.2596 50.4971 32.8755 50.696 32.8755C50.891 32.8755 51.0516 32.457 51.0516 31.9473C51.0516 31.4376 51.2237 30.9126 51.434 30.7833C51.6444 30.654 51.8164 30.3002 51.8164 29.9959C51.8164 29.4519 52.8681 26.8577 53.9426 24.7617C54.2447 24.1683 54.4933 23.3885 54.4933 23.0271C54.4933 22.3691 55.8088 20.703 56.3251 20.703C56.6463 20.703 58.6998 23.2021 58.6998 23.5901C58.6998 23.7385 59.2772 24.5601 59.9847 25.4198C62.1032 27.995 62.1033 28.9346 59.9962 32.9325C59.7056 33.4879 59.4646 34.3019 59.4646 34.7394C59.4646 35.1806 59.2925 35.5382 59.0822 35.5382C58.8719 35.5382 58.6998 35.8045 58.6998 36.1278C58.6998 36.4511 58.3556 37.4249 57.935 38.2922C57.5143 39.1557 57.1702 40.1561 57.1702 40.5099C57.1702 40.8598 56.914 41.3658 56.5966 41.6244C56.2792 41.8831 56.0229 42.5944 56.0229 43.1992C56.0229 43.8041 55.87 44.5953 55.6864 44.9566C55.499 45.3218 55.174 46.0446 54.9599 46.5695C54.5927 47.4672 53.6864 49.6392 52.9713 51.3244C52.1836 53.1845 52.2065 53.4051 53.2084 53.6524C54.4092 53.9529 58.7839 53.5801 59.7323 53.097C60.1109 52.903 60.9369 52.515 61.5679 52.2335C62.1989 51.952 63.6711 50.9896 64.8413 50.0957C66.0115 49.2018 67.1013 48.4714 67.2658 48.4714C67.4302 48.4714 68.2677 47.8742 69.1281 47.1401C69.9885 46.4059 70.8566 45.8087 71.0555 45.8087C71.2581 45.8087 71.7285 45.4549 72.1032 45.0251C72.4818 44.5915 73.0669 44.2948 73.4111 44.3594C74.13 44.4964 74.8604 43.3057 75.5564 40.8636C75.8241 39.9203 76.1836 38.9883 76.3556 38.7905C76.5316 38.5927 76.673 37.8852 76.673 37.2195C76.673 36.5538 76.9293 35.7968 77.2467 35.5382C77.5641 35.2795 77.8203 34.7736 77.8203 34.4236C77.8203 34.0699 78.1644 33.0694 78.5851 32.206C79.0057 31.3387 79.3499 30.266 79.3499 29.8247C79.3499 29.3797 79.6061 28.7596 79.9235 28.4477C80.2409 28.132 80.4971 27.5652 80.4971 27.1886C80.4971 26.1235 81.4952 23.9971 82.3633 23.2173C83.2314 22.4337 84.2027 22.6163 84.5966 23.6358C84.738 24.0048 85.1702 24.6514 85.5564 25.0737C87.2505 26.9147 88.9025 29.315 88.9063 29.9312C88.9101 30.3002 88.7495 30.9012 88.5507 31.2626C88.3518 31.6278 87.8968 32.9515 87.5335 34.2068C87.174 35.4621 86.7342 36.6527 86.5545 36.8505C86.3786 37.0483 86.2333 37.5238 86.2333 37.9004C86.2333 38.2808 86.0765 38.8894 85.8853 39.2508C85.6941 39.616 85.0593 41.4228 84.4704 43.2639C83.8853 45.1088 83.2658 46.7026 83.0975 46.8053C82.9293 46.908 82.7916 47.3379 82.7916 47.7563C82.7916 48.5437 81.5143 52.6862 80.6195 54.8049C80.3442 55.463 80.1147 56.1934 80.1147 56.4254C80.1147 56.6612 79.9541 57.1481 79.7553 57.5095C79.2734 58.3882 77.8203 63.1317 77.8203 63.8164C77.8203 64.1131 77.5641 64.5696 77.2467 64.8282C76.9293 65.0869 76.673 65.627 76.673 66.0226C76.673 66.7149 76.5315 67.0915 75.587 68.9136C75.3423 69.3815 75.1434 70.0243 75.1434 70.3439C75.1434 70.6634 74.9828 71.2226 74.7839 71.5839C74.5889 71.9491 73.9694 73.2729 73.4149 74.5282C72.8566 75.7834 72.2447 77.1072 72.0497 77.4724C71.8585 77.8337 71.7017 78.5489 71.7017 79.0548C71.7017 79.5645 71.5717 80.0362 71.4149 80.1085C70.9904 80.2949 69.4226 84.2281 69.7744 84.2281C69.9388 84.2281 70.9637 85.084 72.0497 86.1301C74.3059 88.3059 74.2753 88.8194 71.7935 90.4969C70.4321 91.4213 69.044 91.6153 66.8451 91.1892ZM169.709 90.9116C169.036 90.6111 167.273 89.1275 165.79 87.6174C163.614 85.3921 163.098 84.6389 163.098 83.6727C163.098 83.0147 163.239 82.3147 163.415 82.1169C163.587 81.9191 163.958 81.029 164.241 80.1389C164.52 79.2488 164.872 78.5223 165.025 78.5223C165.174 78.5223 165.396 78.0201 165.522 77.4077C165.644 76.7953 166.111 75.4715 166.562 74.4597C167.013 73.4517 167.556 72.2002 167.771 71.6752C167.981 71.1503 168.31 70.4694 168.497 70.1537C168.685 69.8379 168.933 69.3282 169.048 69.0125C169.163 68.6968 169.591 67.7572 170.004 66.9204C170.413 66.0835 170.746 65.182 170.746 64.9195C170.746 64.6532 170.902 64.1397 171.09 63.7783C171.281 63.4132 171.897 61.9182 172.459 60.4537C173.021 58.9892 173.641 57.4943 173.836 57.1291C174.031 56.7677 174.187 56.0412 174.187 55.5125C174.187 54.9875 174.359 54.5577 174.57 54.5577C174.78 54.5577 174.952 54.2115 174.952 53.7931C174.952 53.3709 175.105 52.728 175.289 52.3666C176.241 50.4913 176.864 48.7301 176.864 47.9123C176.864 47.4063 177.036 46.889 177.247 46.7597C177.457 46.6304 177.629 46.1891 177.629 45.7821C177.629 45.3713 177.801 44.698 178.011 44.2833C178.222 43.8649 178.543 43.2221 178.73 42.8455C178.914 42.4727 179.185 41.4456 179.335 40.5631C179.488 39.6844 179.767 38.9617 179.958 38.9617C180.149 38.9617 180.306 38.4482 180.306 37.8205C180.306 36.5272 179.717 36.2914 179.35 37.4401C179.216 37.8586 178.948 38.2009 178.75 38.2009C178.554 38.2009 178.394 38.4253 178.394 38.703C178.394 38.9807 177.832 39.8784 177.143 40.7001C176.455 41.5217 175.652 42.6667 175.358 43.2411C175.063 43.8155 174.681 44.2872 174.505 44.2872C174.329 44.2872 174.187 44.6295 174.187 45.0479C174.187 45.4664 174.011 45.8087 173.797 45.8087C173.579 45.8087 173.239 46.2347 173.04 46.7597C172.841 47.2846 172.52 47.7107 172.329 47.7107C172.138 47.7107 171.881 48.0112 171.759 48.3763C171.511 49.1105 171.151 49.6963 169.312 52.3704C168.627 53.3671 168.069 54.4207 168.069 54.7174C168.069 55.0141 167.935 55.3109 167.767 55.3831C167.488 55.5011 166.646 56.8552 164.707 60.3054C162.054 65.0298 162.13 64.9537 160.857 64.1663C160.302 63.824 158.6 62.6143 157.078 61.4732C154.88 59.8299 154.348 59.2403 154.482 58.5974C155.69 52.8916 155.901 50.9288 156.061 43.8421C156.249 35.6295 155.981 34.0965 154.857 36.938C154.543 37.7368 154.115 38.6878 153.908 39.053C153.706 39.4144 153.537 39.9583 153.537 40.2588C153.537 40.5555 153.25 41.3734 152.899 42.0695C151.866 44.1198 151.767 44.3822 151.228 46.4744C150.948 47.5737 150.577 48.4714 150.405 48.4714C150.233 48.4714 150.096 48.867 150.096 49.3463C150.096 49.8294 149.946 50.3848 149.767 50.5826C149.587 50.7804 149.12 51.8873 148.734 53.0361C148.348 54.1849 147.893 55.2918 147.725 55.4896C147.556 55.6874 147.419 56.2124 147.419 56.6498C147.419 57.0873 147.281 57.6122 147.113 57.81C146.948 58.0078 146.589 58.8561 146.317 59.6929C145.771 61.3895 144.895 63.5349 144.34 64.5391C144.141 64.9005 143.977 65.5319 143.977 65.9428C143.977 66.3498 143.805 66.791 143.595 66.9204C143.384 67.0497 143.212 67.5632 143.212 68.0615C143.212 68.5598 143.04 69.0734 142.83 69.2027C142.62 69.332 142.447 69.8341 142.447 70.321C142.447 70.8041 142.191 71.4166 141.874 71.6752C141.556 71.9339 141.3 72.4741 141.3 72.8697C141.3 73.2653 141.151 73.8853 140.967 74.2467C139.507 77.1262 139.006 78.2978 139.006 78.8151C139.006 79.1423 138.784 79.6825 138.512 80.0134C138.241 80.3443 137.79 81.2763 137.514 82.0827C136.799 84.1787 134.153 88.2488 133.029 88.983C132.111 89.5802 132.011 89.5612 130.662 88.5341C129.889 87.9445 128.31 86.849 127.151 86.0996C125.996 85.3503 124.818 84.4601 124.539 84.1216C123.793 83.2201 124.134 82.1436 125.185 82.0903C126.746 82.0142 127.717 80.5802 129.927 75.0987C130.501 73.6837 130.849 72.8582 131.92 70.3933C132.451 69.1609 132.887 67.936 132.887 67.6659C132.887 67.392 133.17 66.6008 133.514 65.9047C134.948 63.0138 135.182 62.4584 135.182 61.9068C135.182 61.5911 135.419 60.7885 135.713 60.1304C136.004 59.4723 136.623 57.9051 137.094 56.6498C137.564 55.3945 138.184 53.8273 138.474 53.1693C138.769 52.5112 139.006 51.6933 139.006 51.3586C139.006 51.0201 139.163 50.4457 139.354 50.0843C140.084 48.6997 141.3 45.299 141.3 44.6447C141.3 44.2681 141.533 43.728 141.82 43.4427C142.107 43.1612 142.57 42.2483 142.853 41.419C143.136 40.5898 143.507 39.7491 143.671 39.5513C143.839 39.3535 143.977 38.878 143.977 38.5014C143.977 38.121 144.13 37.5124 144.321 37.151C144.509 36.7859 145.143 35.2034 145.729 33.6362C146.314 32.069 146.933 30.6197 147.105 30.4219C147.277 30.2241 147.419 29.7677 147.419 29.4063C147.419 29.0487 147.66 28.2689 147.954 27.6755C149.633 24.2977 150.096 23.244 150.096 22.8065C150.096 22.1941 153.35 19.1814 154.015 19.1814C154.757 19.1814 158.088 22.0343 160.103 24.4004C161.507 26.0436 161.946 26.8957 162.149 28.3526C162.291 29.3759 162.562 30.3078 162.75 30.4257C162.941 30.5437 163.098 31.8142 163.098 33.2558C163.098 34.6975 163.27 35.9794 163.48 36.1088C163.69 36.2381 163.862 37.5314 163.862 38.9845C163.862 40.4376 163.946 41.6244 164.05 41.6244C164.424 41.6244 165.774 40.3045 165.79 39.9241C165.797 39.7073 166.314 38.9389 166.937 38.2161C167.56 37.4896 168.069 36.7706 168.069 36.6109C168.069 36.105 173.465 28.6912 173.832 28.6912C174.027 28.6912 174.187 28.4591 174.187 28.1776C174.187 27.8923 175.641 26.2262 177.415 24.4688C180.96 20.9616 181.438 20.5774 183.273 19.7368C184.394 19.2271 184.616 19.2309 185.472 19.79C185.996 20.1324 186.424 20.5736 186.424 20.7714C186.424 20.973 187.289 22.1142 188.348 23.3086C189.407 24.5031 190.524 25.9676 190.834 26.561C191.476 27.7934 191.579 29.4519 191.013 29.4519C190.803 29.4519 190.623 30.0948 190.616 30.8784C190.6 32.6358 189.14 39.6426 188.455 41.244C187.92 42.4955 186.719 46.8434 186.539 48.1709C186.432 48.9469 186.107 49.7838 185.813 50.0234C185.518 50.2669 185.277 51.0086 185.277 51.6743C185.277 52.34 185.136 53.0475 184.96 53.2453C184.788 53.4431 184.424 54.3751 184.153 55.3185C183.881 56.2618 183.533 57.3726 183.38 57.791C183.224 58.2094 182.887 59.149 182.631 59.8831C181.468 63.1811 180.857 64.6456 180.593 64.7635C180.436 64.8358 180.306 65.5053 180.306 66.2547C180.306 67.0078 180.084 67.8904 179.809 68.2213C179.537 68.5522 178.998 69.7657 178.616 70.9145C178.229 72.0632 177.679 73.387 177.388 73.8473C177.101 74.3113 176.864 74.939 176.864 75.2433C176.864 75.5476 176.577 76.3693 176.226 77.0654C175.04 79.4162 174.952 79.652 174.952 80.4204C174.952 80.8388 174.78 81.185 174.57 81.185C174.359 81.185 174.187 81.6985 174.187 82.3262C174.187 82.9538 174.034 83.4673 173.847 83.4673C173.663 83.4673 173.434 83.977 173.342 84.5971C173.208 85.51 173.419 85.9437 174.447 86.849C175.95 88.1728 175.996 88.6368 174.776 90.0215C173.637 91.3034 171.449 91.6914 169.709 90.9116ZM191.205 89.5878C190.21 89.0058 190.004 88.9906 189.648 89.4699C188.88 90.5083 187.055 89.6335 183.996 86.7653L181.059 84.0113L182.031 81.9344C182.566 80.7894 183.17 79.5569 183.377 79.1917C183.579 78.8304 183.748 78.3587 183.748 78.1419C183.748 77.9288 184.111 76.9436 184.554 75.9508C185.595 73.6228 186.241 72.1203 186.765 70.8194C186.998 70.245 187.384 69.3016 187.621 68.7272C187.862 68.1528 188.187 67.3388 188.348 66.9204C188.509 66.5019 188.899 65.5624 189.216 64.8282C189.533 64.0941 190.011 62.7285 190.275 61.7851C190.543 60.8417 190.902 59.9098 191.078 59.712C191.254 59.5142 191.396 58.9664 191.396 58.4985C191.396 58.0306 191.556 57.5475 191.748 57.4296C191.943 57.3079 192.222 56.6612 192.371 55.9918C192.627 54.8392 192.761 54.493 193.69 52.6595C193.901 52.2449 194.073 51.5716 194.073 51.1608C194.073 50.7538 194.245 50.3125 194.455 50.1832C194.665 50.0539 194.837 49.6126 194.837 49.2056C194.837 48.7948 194.99 48.1633 195.174 47.802C195.985 46.2043 196.75 44.2149 196.75 43.7052C196.75 43.397 196.922 43.146 197.132 43.146C197.342 43.146 197.514 42.5564 197.514 41.8374C197.514 41.1185 197.675 40.43 197.87 40.3083C198.065 40.1903 198.44 39.1443 198.7 37.9879C198.96 36.8315 199.315 35.7968 199.491 35.6903C199.667 35.58 199.809 35.2034 199.813 34.8497C199.813 34.4959 200.069 33.7161 200.386 33.1189C200.7 32.5179 200.956 31.6164 200.956 31.1142C200.956 30.2355 201.078 29.8856 202.042 28.0293C202.287 27.5614 202.486 26.4278 202.486 25.5111C202.486 24.4878 202.707 23.6548 203.059 23.3657C203.377 23.107 203.633 22.7304 203.633 22.5326C203.633 22.331 203.893 21.9126 204.207 21.5969C204.719 21.091 204.891 21.1556 205.771 22.1979C206.933 23.5711 207.369 23.6206 209.369 22.6049C210.195 22.1865 211.361 21.8441 211.966 21.8441C212.57 21.8441 213.193 21.7148 213.35 21.5588C213.614 21.2964 214.914 20.9883 220.268 19.9156C222.688 19.4287 226.306 19.79 228.088 20.6916C229.438 21.3763 235.373 27.2647 235.373 27.919C235.373 28.1016 235.893 28.7672 236.524 29.3987C237.159 30.0263 237.782 31.0724 237.912 31.7191C238.042 32.3619 238.298 32.982 238.482 33.0961C238.665 33.2102 238.818 34.0166 238.822 34.8953C238.826 36.8011 237.35 39.8252 235.289 42.1265C234.501 43.0014 233.759 44.0171 233.637 44.3822C233.511 44.7474 233.197 45.0479 232.941 45.0479C232.34 45.0479 229.254 48.1633 229.254 48.7719C229.254 49.023 229.499 49.2322 229.797 49.2322C230.092 49.2322 231.342 50.3886 232.57 51.7999C233.794 53.2111 234.929 54.4245 235.086 54.493C235.243 54.5653 235.373 54.9343 235.373 55.3185C235.373 55.7027 235.541 56.0716 235.748 56.1439C236.069 56.2504 236.975 59.712 236.975 60.8341C236.975 61.9563 236.069 65.4178 235.748 65.5243C235.541 65.5966 235.373 65.9009 235.373 66.209C235.373 66.5133 235.205 66.9698 235.002 67.2209C232.394 70.458 231.166 72.1013 231.166 72.3675C231.166 72.6604 226.669 77.0045 225.38 77.9593C224.807 78.3853 220.547 81.7251 219.805 82.33C219.553 82.5354 219.235 82.7065 219.101 82.7065C218.968 82.7065 218.398 83.0261 217.839 83.4141C216.107 84.6199 213.193 86.1301 212.6 86.1301C212.291 86.1301 211.736 86.286 211.373 86.48C211.006 86.6702 210.019 87.1077 209.178 87.4462C208.337 87.7886 207.35 88.2336 206.983 88.4314C206.62 88.6292 205.832 88.7928 205.231 88.7928C204.631 88.7928 204.015 88.9221 203.855 89.0781C203.346 89.584 198.551 90.2535 195.411 90.2573C193.174 90.2573 192.042 90.0785 191.205 89.5878ZM196.069 81.4322C196.967 81.1507 198.65 80.6981 199.809 80.4242C200.967 80.1503 202.168 79.8042 202.486 79.6482C202.803 79.4961 203.576 79.1613 204.207 78.9026C204.837 78.644 205.652 78.2826 206.019 78.0962C206.382 77.9136 207.017 77.7615 207.43 77.7615C207.839 77.7615 208.275 77.6017 208.398 77.4039C208.52 77.2099 209.09 76.8143 209.663 76.5252C211.572 75.5628 212.597 74.9238 214.822 73.2919C216.034 72.4018 217.151 71.6752 217.304 71.6752C217.457 71.6752 218.015 71.2606 218.543 70.7547C222.562 66.8975 223.472 65.9922 224.57 64.7407C225.254 63.9647 225.813 63.1811 225.813 63.0023C225.813 62.8236 226.241 62.2758 226.769 61.7851C227.296 61.2944 227.729 60.7086 227.732 60.4842C227.736 60.2559 228.076 59.6473 228.489 59.1224C228.902 58.5974 229.243 57.6997 229.247 57.1253C229.254 56.1097 229.193 56.0792 227.151 56.0792C225.992 56.0792 225.048 56.2162 225.048 56.3874C225.048 56.5547 224.057 56.8819 222.849 57.1139C218.753 57.8937 214.914 58.8827 214.788 59.1946C214.715 59.362 214.019 59.5028 213.239 59.5028C212.455 59.5028 211.652 59.6473 211.453 59.8185C211.254 59.9935 210.272 60.4385 209.27 60.8037C208.268 61.1727 207.273 61.7965 207.055 62.1997C206.616 63.0176 205.327 63.1773 205.033 62.4508C204.891 62.1084 204.75 62.0932 204.524 62.4013C203.801 63.3675 202.57 63.3523 201.579 62.3709C200.424 61.2221 200.191 61.1765 200.191 62.0932C200.191 62.4698 199.939 63.1127 199.629 63.5197C199.319 63.9267 199.063 64.5657 199.055 64.9423C199.048 65.3189 198.7 66.3346 198.279 67.2019C197.859 68.0653 197.514 69.1723 197.514 69.6554C197.514 70.1385 197.342 70.5341 197.132 70.5341C196.922 70.5341 196.75 70.7851 196.75 71.0932C196.75 71.603 195.985 73.5924 195.174 75.19C194.99 75.5514 194.837 76.1106 194.837 76.4301C194.837 77.0235 194.78 77.1605 193.415 79.9297C192.386 82.018 193.033 82.3832 196.069 81.4322ZM206.883 51.0809C208.218 50.2859 211.973 48.4714 212.279 48.4714C212.394 48.4714 213.491 47.7031 214.723 46.7597C215.954 45.8163 217.071 45.0479 217.212 45.0479C217.35 45.0479 218.199 44.4507 219.094 43.7166C219.992 42.9824 220.826 42.3852 220.948 42.3852C221.549 42.3852 228.421 35.4963 229.063 34.2487C229.396 33.5982 229.996 32.5521 230.39 31.9245C230.788 31.2968 231.124 30.3116 231.14 29.7372C231.163 28.7825 231.04 28.6874 229.732 28.6493C226.317 28.5542 222.535 28.7825 222.199 29.102C222 29.296 221.105 29.4519 220.214 29.4519C219.323 29.4519 218.493 29.6079 218.375 29.7981C218.256 29.9921 217.43 30.266 216.535 30.4143C215.644 30.5589 214.742 30.7985 214.532 30.9469C214.321 31.0952 213.423 31.4452 212.535 31.7229C211.25 32.1261 210.807 32.1337 210.352 31.7571C209.874 31.3615 209.748 31.4604 209.553 32.3657C209.426 32.9591 209.163 33.7427 208.964 34.1079C208.765 34.4693 208.604 35.3708 208.604 36.1088C208.604 37.3983 208.501 37.7254 207.518 39.6236C207.273 40.0914 207.075 41.0729 207.075 41.8108C207.075 42.545 206.914 43.146 206.719 43.146C206.52 43.146 206.256 43.5302 206.126 44.0019C205.17 47.452 204.283 50.2897 203.973 50.8641C203.178 52.3438 204.585 52.4503 206.883 51.0809ZM10.7075 89.1732C10.5774 88.964 9.9847 88.7928 9.39197 88.7928C8.79923 88.7928 8.09943 88.5379 7.83939 88.2222C7.57935 87.9065 7.12046 87.6516 6.82218 87.6516C6.52772 87.6516 5.7782 87.1381 5.16252 86.5104C4.54685 85.8828 3.9044 85.3693 3.73996 85.3693C3.57553 85.3693 2.66922 84.7036 1.72084 83.8895L0 82.4098L0.00382199 76.2171C0.00764608 71.6334 0.130017 69.9825 0.481833 69.8684C0.772464 69.7695 0.956023 68.9935 0.956023 67.8637C0.956023 66.8443 1.10516 65.9237 1.28872 65.8096C1.47227 65.6993 1.73614 64.7331 1.87763 63.668C2.01912 62.5991 2.47418 60.8798 2.88336 59.8413C3.29636 58.8028 3.63289 57.3612 3.63289 56.6346C3.63289 55.9119 3.78585 55.3185 3.96941 55.3185C4.15679 55.3185 4.5086 54.5044 4.74952 53.5116C5.17782 51.777 5.94264 49.7762 6.71128 48.3801C6.91014 48.0188 7.07457 47.4102 7.07457 47.0298C7.07457 46.6532 7.21606 46.1777 7.39197 45.9799C7.56405 45.7821 7.94264 44.8501 8.23327 43.9068C8.52008 42.9634 9.15105 41.556 9.63671 40.7762C10.1185 39.9964 10.5163 39.0796 10.5163 38.7411C10.5163 38.4063 10.8184 37.6722 11.1855 37.1168C12.195 35.5914 12.6883 34.7508 13.675 32.8755C15.2161 29.9388 15.6138 29.3378 17.8738 26.5115C19.086 24.9976 20.0765 23.6168 20.0765 23.4418C20.0765 22.8598 22.1644 21.2279 23.8241 20.5166C25.4455 19.8205 25.4914 19.8205 27.109 20.6003C29.2084 21.6159 33.5067 25.1649 33.7476 26.0855C34.0038 27.0631 34.3365 26.968 35.0899 25.6975C35.4455 25.0965 36.5086 23.7575 37.4455 22.719C38.9254 21.0796 39.3117 20.8513 40.3212 20.9997C40.9637 21.0948 41.4914 21.323 41.4914 21.5056C41.4914 21.692 41.9656 21.8479 42.543 21.8517C43.1205 21.8555 44.0229 22.1941 44.5507 22.6049C45.0784 23.0157 45.7897 23.3543 46.1339 23.3581C46.478 23.3619 47.1664 23.708 47.6635 24.1227L48.566 24.8796L47.3537 25.9295C45.9962 27.1049 42.2562 31.8864 42.2562 32.4494C42.2562 32.6472 42.1262 32.8678 41.9656 32.9401C41.6482 33.0771 38.8145 36.9456 38.8145 37.2385C38.8145 37.3374 38.0421 38.722 37.0937 40.3121C36.1453 41.9059 35.3728 43.2981 35.3728 43.4046C35.3728 43.5112 35.0172 44.097 34.5813 44.7056C33.7591 45.8506 32.1453 46.2195 31.8203 45.3332C31.6864 44.9566 31.4684 44.9642 30.7916 45.3637C30.0306 45.8087 29.8164 45.7669 28.9254 44.9833C28.3709 44.4964 27.5296 43.8839 27.0555 43.6215C26.5813 43.359 25.8126 42.933 25.3499 42.6705C24.1836 42.0162 23.0249 40.6088 22.5239 39.2356L22.1032 38.083L21.5411 39.1899C21.2352 39.7947 20.7839 40.6354 20.543 41.0538C19.9924 42.0124 18.3212 45.7973 17.0555 48.9469C16.7495 49.7115 16.0344 51.4271 15.1166 53.6067C14.9369 54.0251 14.5813 55.2234 14.3212 56.2694C14.0574 57.3155 13.6979 58.335 13.5182 58.5328C13.3384 58.7306 13.1931 59.4267 13.1931 60.0771C13.1931 60.7276 12.9407 61.5911 12.631 61.9981C12.3212 62.4051 12.065 63.5501 12.0574 64.5429C12.0497 65.5357 11.8968 66.3498 11.7132 66.3498C11.3958 66.3498 11.1434 67.6621 10.6463 71.8654C10.5201 72.9115 10.26 73.969 10.065 74.2124C9.52199 74.8933 9.46845 81.6453 10.0038 81.8316C10.5201 82.0104 15.4876 77.5028 15.4876 76.8523C15.4876 76.6089 15.7897 76.1372 16.1568 75.8101C17.0937 74.9656 17.9197 73.9233 19.4838 71.5954C20.2295 70.4884 21.0096 69.3777 21.2237 69.1228C21.434 68.8718 21.6061 68.4686 21.6061 68.2327C21.6061 67.3198 23.7247 64.8434 24.5124 64.8358C25.8853 64.8206 30.8872 67.7838 31.6941 69.0924C32.2945 70.0624 30.9101 73.3375 28.8795 75.7454C28.6692 75.9965 28.0535 76.9931 27.5105 77.9593C26.9675 78.9255 26.2333 80.0438 25.8815 80.4394C25.5258 80.835 24.8528 81.5882 24.3786 82.1093C23.9044 82.6305 23.5182 83.1934 23.5143 83.357C23.5105 83.9048 20.7992 86.5105 19.587 87.1343C18.9293 87.4728 18.1568 87.9864 17.87 88.2717C17.5794 88.5569 17.0249 88.7928 16.631 88.7928C16.2371 88.7928 15.8088 88.964 15.6788 89.1732C15.5488 89.3824 14.4321 89.5536 13.1931 89.5536C11.9541 89.5536 10.8375 89.3824 10.7075 89.1732ZM243.021 88.2222C242.734 87.876 241.897 87.6516 240.895 87.6516C239.985 87.6516 239.136 87.4804 239.006 87.2712C238.876 87.062 238.294 86.8908 237.717 86.8908C236.493 86.8908 234.902 85.8181 235.66 85.5024C235.924 85.3959 236.138 85.084 236.138 84.8139C236.138 84.3232 237.729 80.4356 238.436 79.1917C238.646 78.8304 238.815 78.2712 238.815 77.9517C238.815 77.6321 238.971 77.073 239.166 76.7116C239.358 76.3464 239.797 75.365 240.138 74.5282C240.482 73.6913 240.929 72.7099 241.128 72.3447C241.327 71.9834 241.491 71.3519 241.491 70.9411C241.491 70.5341 241.663 70.0928 241.874 69.9635C242.084 69.8341 242.256 69.3929 242.256 68.9859C242.256 68.575 242.413 67.9436 242.608 67.5822C242.799 67.2171 243.239 66.2357 243.579 65.3988C243.924 64.5619 244.371 63.5805 244.57 63.2154C244.769 62.854 244.933 62.3823 244.933 62.1655C244.933 61.264 252.509 45.337 253.044 45.1126C253.208 45.0403 253.346 44.7208 253.346 44.4013C253.346 43.7432 255.296 39.9811 255.736 39.7871C255.893 39.7149 256.023 39.4144 256.023 39.1138C256.023 38.4824 256.505 37.5961 258.222 35.0855C258.906 34.0813 259.465 33.1722 259.465 33.0618C259.465 32.7347 261.541 29.6535 261.855 29.5166C262.011 29.4443 262.142 29.1819 262.142 28.927C262.142 28.6759 263.216 27.3408 264.532 25.9638C267.101 23.2744 269.648 21.8441 271.878 21.8441C273.212 21.8441 277.518 23.5521 277.755 24.1759C277.828 24.3585 278.214 24.5069 278.616 24.5069C279.021 24.5069 279.35 24.678 279.35 24.8873C279.35 25.0965 279.595 25.2676 279.893 25.2676C280.195 25.2676 280.967 25.7127 281.614 26.2529L282.792 27.2381V32.3163C282.792 35.1083 282.646 37.4858 282.467 37.5961C282.283 37.7064 282.019 39.5247 281.87 41.6396C281.725 43.7508 281.442 45.9038 281.243 46.4249C281.044 46.9461 280.688 49.4605 280.451 52.0129C280.218 54.5615 279.874 56.8134 279.686 57.0112C279.503 57.209 279.35 58.5252 279.35 59.9364C279.35 61.3476 279.178 62.6067 278.967 62.7361C278.757 62.8654 278.585 63.7213 278.585 64.638C278.585 65.5548 278.413 66.4106 278.203 66.54C277.992 66.6693 277.813 67.4909 277.805 68.3696C277.794 69.2445 277.537 70.6482 277.235 71.485C276.933 72.3219 276.681 73.8092 276.681 74.7906C276.677 75.772 276.501 76.6812 276.291 76.8105C274.979 77.6169 277.27 79.283 279.694 79.283C281.373 79.283 282.486 80.8198 281.969 82.4403C281.38 84.2966 280.115 86.5827 279.033 87.7467C278.119 88.7281 277.859 88.7928 274.86 88.7928C272.077 88.7928 271.476 88.6673 270.252 87.8418C269.48 87.3169 268.539 86.8908 268.164 86.8908C267.423 86.8908 266.13 86.2404 265.231 85.4111C264.566 84.7987 264.528 80.3291 265.185 80.1123C265.403 80.04 265.583 78.9787 265.583 77.7539C265.583 76.5252 265.755 75.4183 265.966 75.2889C266.176 75.1596 266.348 74.4749 266.348 73.7674C266.348 73.0599 266.52 72.3752 266.73 72.2458C266.941 72.1165 267.113 71.3405 267.113 70.5227C267.113 69.7086 267.396 68.4533 267.736 67.7344C268.103 66.9736 268.264 66.0417 268.126 65.4939C267.908 64.619 267.759 64.5696 265.878 64.7179C264.769 64.8092 263.499 65.0564 263.052 65.2733C262.6 65.4901 260.543 65.6042 258.367 65.5319C255.453 65.433 254.493 65.5167 254.493 65.8743C254.493 66.1368 254.333 66.3498 254.138 66.3498C253.939 66.3498 253.66 66.734 253.511 67.2057C253.365 67.6773 253.113 68.149 252.956 68.2517C252.795 68.3544 252.581 69.0848 252.474 69.8722C252.367 70.6596 252.004 71.7209 251.667 72.2344C251.327 72.7479 251.052 73.4973 251.052 73.8967C251.052 74.2961 250.795 74.8401 250.478 75.0987C250.161 75.3574 249.904 75.8976 249.904 76.2932C249.904 76.6888 249.748 77.3088 249.556 77.6702C249.369 78.0354 248.57 79.9563 247.782 81.9458C246.994 83.9352 246.187 85.7649 245.992 86.0197C245.794 86.2708 245.74 86.6512 245.874 86.868C246.008 87.081 245.931 87.6022 245.702 88.0244C245.216 88.9297 243.706 89.0438 243.021 88.2222ZM264.597 55.7483C264.707 55.5657 265.648 55.307 266.681 55.1701C269.537 54.7935 270.398 53.9148 270.723 51.0543C270.872 49.7419 271.14 48.4943 271.315 48.285C271.491 48.072 271.732 46.5315 271.851 44.8577C272.298 38.5242 272.539 36.4777 272.88 36.1278C273.335 35.6599 273.338 31.7343 272.883 31.7343C272.692 31.7343 272.088 32.2896 271.537 32.9705C270.99 33.6514 270.375 34.4122 270.164 34.6671C269.958 34.9181 269.79 35.2148 269.79 35.329C269.79 35.4393 269.013 36.7326 268.069 38.2009C267.124 39.6692 266.348 41.0196 266.348 41.2022C266.348 41.381 266.103 41.7309 265.805 41.9782C265.511 42.2254 264.692 43.6139 263.989 45.067C263.289 46.52 262.585 47.7107 262.428 47.7107C262.272 47.7107 262.142 47.9731 262.142 48.2927C262.142 48.7872 261.384 50.3924 259.904 53.0361C259.067 54.5273 258.7 55.3413 258.7 55.695C258.7 56.1667 264.302 56.22 264.597 55.7483ZM284.757 17.4544C284.325 16.9029 283.866 16.1269 283.736 15.7275C283.61 15.3243 283.346 14.9971 283.147 14.9971C282.952 14.9971 282.792 14.8107 282.792 14.5863C282.792 14.3581 282.168 13.4185 281.411 12.498C279.893 10.6531 279.912 10.0597 281.53 9.0364C282.119 8.66362 282.738 8.13868 282.906 7.87241C283.075 7.60614 283.442 7.38931 283.725 7.38931C284.008 7.38931 284.34 7.13065 284.459 6.81873C284.581 6.50681 284.887 6.24814 285.143 6.24814C285.4 6.24814 285.966 5.92101 286.402 5.5254C286.834 5.12599 287.732 4.48313 288.394 4.09894C289.055 3.71094 290.662 2.56977 291.969 1.56174C294.348 -0.275545 295.208 -0.450523 295.679 0.81998C295.816 1.18896 296.501 2.19699 297.201 3.05287C297.897 3.91255 298.47 4.78364 298.47 4.99286C298.47 5.19827 298.815 5.67756 299.235 6.05795C299.656 6.43834 300 6.94426 300 7.1839C300 7.59472 297.82 9.31409 295.262 10.9307C294.65 11.3149 293.95 11.8323 293.702 12.0757C293.457 12.323 292.62 12.9506 291.847 13.4756C291.078 14.0005 290.444 14.5559 290.444 14.7118C290.44 14.8678 290.214 14.9971 289.943 14.9971C289.667 14.9971 288.822 15.5639 288.061 16.2562C285.488 18.5994 285.625 18.55 284.757 17.4544Z" fill="white"/>
</svg>
