<svg width="409" height="61" viewBox="0 0 409 61" fill="none" xmlns="http://www.w3.org/2000/svg">
<path d="M2.65825 60.2083C2.28752 59.7711 1.97988 59.1842 1.97988 58.8967C1.97988 58.6131 1.53421 57.9632 0.989943 57.4512L0 56.5217L0.989943 55.4897C1.56577 54.891 1.97988 53.9969 1.97988 53.3549C1.97988 52.6459 2.33484 51.9724 2.96588 51.4761C3.66397 50.9286 3.95188 50.3221 3.95188 49.3925C3.95188 48.5969 4.18063 47.9982 4.54348 47.8604C4.86689 47.7343 5.13508 47.2853 5.13508 46.856C5.13508 46.4306 5.31256 45.9698 5.52948 45.8358C5.7464 45.7019 5.92388 45.2687 5.92388 44.8709C5.92388 44.473 6.19207 44.0437 6.51548 43.9216C6.83888 43.7956 7.10708 43.3466 7.10708 42.9173C7.10708 42.4919 7.28456 42.031 7.50148 41.8971C7.71839 41.7632 7.89587 41.3299 7.89587 40.9321C7.89587 40.5343 8.16407 40.105 8.48747 39.9829C8.81088 39.8568 9.07907 39.4078 9.07907 38.9785C9.07907 38.5531 9.25655 38.0923 9.47347 37.9584C9.69039 37.8245 9.86787 37.3636 9.86787 36.9382C9.86787 36.5089 10.1361 36.0599 10.4595 35.9338C10.7829 35.8117 11.0511 35.3824 11.0511 34.9846C11.0511 34.5868 11.2285 34.1535 11.4455 34.0196C11.6624 33.8857 11.8399 33.2752 11.8399 32.6647C11.8399 32.0542 12.1081 31.3334 12.4315 31.0656C12.7549 30.7977 13.0231 30.3054 13.0231 29.9785C13.0231 29.6516 13.4648 28.9741 14.0091 28.4699C14.5533 27.9697 14.9951 27.1347 14.9951 26.6148C14.9951 25.6065 15.9889 23.3535 16.5963 22.9754C16.8014 22.8494 16.9671 22.424 16.9671 22.0301C16.9671 21.6362 17.2353 21.0927 17.5587 20.8248C17.8821 20.557 18.1503 20.0017 18.1503 19.596C18.1503 19.1863 18.3277 18.8555 18.5447 18.8555C18.7616 18.8555 18.9391 18.5246 18.9391 18.115C18.9391 17.7093 19.2072 17.1539 19.5307 16.8861C19.8541 16.6183 20.1223 15.9133 20.1223 15.3224C20.1223 14.7356 20.4535 13.9517 20.8558 13.5894C21.5066 12.9986 21.6407 12.9907 22.0864 13.5264C22.7766 14.3614 27.32 14.3693 28.0102 13.5382C28.4204 13.0458 29.9783 12.9474 37.4561 12.9474C46.3814 12.9474 46.4129 12.9513 47.2924 13.8887C47.959 14.5977 48.1483 15.2003 48.0536 16.3504L47.9274 17.8708L37.6849 17.9771C31.6545 18.0362 27.2845 18.241 27.0558 18.4695C26.8428 18.6822 25.9002 18.8555 24.9615 18.8555C23.6797 18.8555 23.1986 19.0288 23.0408 19.5448C22.9225 19.9229 22.6622 20.5413 22.461 20.9194C22.2599 21.2936 22.0942 22.0262 22.0942 22.5421C22.0942 23.062 21.8261 23.708 21.5027 23.9758C21.1792 24.2437 20.9111 24.799 20.9111 25.2047C20.9111 25.6144 20.7336 25.9452 20.5167 25.9452C20.2997 25.9452 20.1223 26.2761 20.1223 26.6857C20.1223 27.0914 19.8541 27.6467 19.5307 27.9146C19.2072 28.1824 18.9391 28.7378 18.9391 29.1435C18.9391 29.5531 18.7616 29.884 18.5447 29.884C18.3277 29.884 18.1503 30.4039 18.1503 31.038C18.1503 31.6721 17.8821 32.4559 17.5587 32.7829C17.2353 33.1058 16.9671 33.4721 16.9671 33.5982C16.9671 33.9921 19.6726 33.8384 19.9251 33.4288C20.071 33.1964 22.5596 33.0349 26.0619 33.0349C31.5638 33.0349 31.9542 33.0822 31.9542 33.7754C31.9542 34.1811 32.2224 34.7365 32.5458 35.0043C33.2558 35.5951 33.3189 37.0288 32.6642 37.6827C32.3329 38.0135 30.1913 38.1553 25.565 38.1553C21.1595 38.1553 18.9391 38.2971 18.9391 38.5728C18.9391 38.8131 18.3159 38.9391 17.4601 38.8682C16.2729 38.7697 15.9574 38.5728 15.8549 37.8599C15.701 36.7886 14.9951 36.6704 14.9951 37.7142C14.9951 38.1199 14.7269 38.6752 14.4035 38.9431C14.0801 39.2109 13.8119 39.7662 13.8119 40.1719C13.8119 40.5816 13.6344 40.9124 13.4175 40.9124C13.2005 40.9124 13.0231 41.3378 13.0231 41.8538C13.0231 42.3737 12.7549 42.9015 12.4315 43.0236C12.1081 43.1496 11.8399 43.5986 11.8399 44.028C11.8399 44.4533 11.6624 44.9142 11.4455 45.0481C11.2285 45.182 11.0511 45.6153 11.0511 46.0131C11.0511 46.4109 10.7829 46.8402 10.4595 46.9623C10.0887 47.1041 9.86787 47.7067 9.86787 48.5811C9.86787 49.3453 9.69039 49.9715 9.47347 49.9715C9.25655 49.9715 9.07907 50.3024 9.07907 50.712C9.07907 51.1177 8.81088 51.6731 8.48747 51.9409C8.16407 52.2087 7.89587 52.7641 7.89587 53.1698C7.89587 53.5794 7.71839 53.9103 7.50148 53.9103C7.28456 53.9103 7.10708 54.3514 7.10708 54.895C7.10708 55.4385 7.28456 55.8796 7.50148 55.8796C7.71839 55.8796 7.89587 55.7024 7.89587 55.4858C7.89587 55.2376 10.4516 55.0919 14.7781 55.0919C20.5443 55.0919 21.7156 54.9934 21.9996 54.4893C22.2796 53.9851 23.2538 53.9063 28.0339 53.9969L33.729 54.1072V56.4704V58.8337L26.334 58.94C21.8497 59.007 18.9391 59.2 18.9391 59.4324C18.9391 59.6687 16.4938 59.8184 12.676 59.8184C7.59219 59.8184 6.32222 59.9287 5.92388 60.4092C5.22579 61.2481 3.45888 61.1418 2.65825 60.2083ZM69.8166 60.4092C69.5484 60.0823 69.1066 59.8184 68.8424 59.8184C68.5782 59.8184 68.0694 59.4954 67.7065 59.0976C67.1741 58.5068 67.0558 57.4827 67.0558 53.4337C67.0558 49.5225 66.9335 48.3921 66.4642 48.0022C66.0185 47.6319 65.8726 46.6315 65.8726 43.898C65.8726 41.9089 65.7069 40.1129 65.5097 39.908C65.3086 39.7032 65.0877 39.0021 65.0167 38.3522C64.9063 37.3557 64.6973 37.1509 63.6679 37.0525C62.9304 36.9816 62.2559 37.1706 61.9444 37.5448C61.6288 37.9269 60.7888 38.1553 59.7121 38.1553C58.7616 38.1553 57.9846 38.3325 57.9846 38.5492C57.9846 38.7658 57.1169 38.9431 56.056 38.9431C54.7032 38.9431 54.0564 39.1203 53.8986 39.5339C53.7724 39.8608 53.3386 40.1247 52.9323 40.1247C52.041 40.1247 50.8854 41.3102 50.8854 42.224C50.8854 42.5864 50.7079 42.8818 50.491 42.8818C50.2741 42.8818 50.0966 43.2126 50.0966 43.6223C50.0966 44.028 49.8284 44.5833 49.505 44.8512C49.1816 45.119 48.9134 45.9383 48.9134 46.6709C48.9134 47.4035 48.7359 48.0022 48.519 48.0022C48.3021 48.0022 48.1246 48.333 48.1246 48.7426C48.1246 49.1483 47.8564 49.7037 47.533 49.9715C47.2096 50.2394 46.9414 50.8223 46.9414 51.2674C46.9414 52.2639 45.7188 55.0919 45.2889 55.0919C45.1114 55.0919 44.9694 55.6945 44.9694 56.4271C44.9694 57.2543 44.7446 57.8529 44.3778 57.9908C44.0544 58.1168 43.7862 58.5777 43.7862 59.0188C43.7862 59.6687 43.5299 59.8184 42.4058 59.8184C41.6446 59.8184 41.0254 59.6411 41.0254 59.4245C41.0254 59.2079 40.5837 59.0306 40.0394 59.0306C39.152 59.0306 39.0534 58.8731 39.0534 57.4551C39.0534 56.5886 39.2309 55.8796 39.4478 55.8796C39.6647 55.8796 39.8422 55.5488 39.8422 55.1392C39.8422 54.7335 40.1104 54.1781 40.4338 53.9103C40.7572 53.6424 41.0254 53.0871 41.0254 52.6814C41.0254 52.2718 41.2029 51.9409 41.4198 51.9409C41.6367 51.9409 41.8142 51.3383 41.8142 50.6057C41.8142 49.7785 42.039 49.1798 42.4058 49.042C42.7292 48.9159 42.9974 48.4669 42.9974 48.0376C42.9974 47.6122 43.1749 47.1514 43.3918 47.0175C43.6087 46.8836 43.7862 46.273 43.7862 45.6625C43.7862 45.052 44.0544 44.3312 44.3778 44.0634C44.7012 43.7956 44.9694 43.2402 44.9694 42.8345C44.9694 42.4249 45.1114 42.094 45.2889 42.094C45.6241 42.094 46.9414 39.3606 46.9414 38.6634C46.9414 38.4349 47.2096 38.0293 47.533 37.7614C47.8564 37.4936 48.1246 36.761 48.1246 36.1387C48.1246 35.5124 48.3021 35.0043 48.519 35.0043C48.7359 35.0043 48.9134 34.5789 48.9134 34.0629C48.9134 33.543 49.1816 33.0153 49.505 32.8932C49.8757 32.7514 50.0966 32.1487 50.0966 31.2743C50.0966 30.5102 50.2741 29.884 50.491 29.884C50.7079 29.884 50.8854 29.5531 50.8854 29.1435C50.8854 28.7378 51.1536 28.1824 51.477 27.9146C51.8004 27.6467 52.0686 26.926 52.0686 26.3155C52.0686 25.7049 52.2461 25.0944 52.463 24.9605C52.6799 24.8266 52.8574 24.3933 52.8574 23.9955C52.8574 23.5977 53.1256 23.1684 53.449 23.0463C53.7724 22.9203 54.0406 22.4713 54.0406 22.0419C54.0406 21.6165 54.2181 21.1557 54.435 21.0218C54.6519 20.8879 54.8294 20.427 54.8294 20.0016C54.8294 19.5723 55.0976 19.1233 55.421 18.9973C55.7444 18.8752 56.0126 18.4459 56.0126 18.048C56.0126 17.6502 56.1901 17.217 56.407 17.083C56.6239 16.9491 56.8014 16.5356 56.8014 16.1614C56.8014 15.1649 58.2173 14.129 59.578 14.129C60.2721 14.129 60.8637 13.8848 60.9978 13.5382C61.1792 13.0616 62.0627 12.9474 65.4979 12.9474C67.9195 12.9474 69.8757 12.778 70.0138 12.5535C70.1479 12.3369 70.8696 12.1596 71.615 12.1596C72.3604 12.1596 72.9718 12.3369 72.9718 12.5535C72.9718 12.7701 73.8394 12.9474 74.9004 12.9474C76.2532 12.9474 76.9 13.1246 77.0577 13.5382C77.1918 13.8887 77.7834 14.129 78.5091 14.129C79.3926 14.129 80.0867 14.5071 81.0333 15.5075C81.7471 16.2638 82.5872 16.8861 82.8988 16.8861C83.656 16.8861 85.9869 19.3202 85.9869 20.108C85.9869 20.4467 86.2512 20.9509 86.5785 21.2187C87.3279 21.841 87.3318 22.8218 86.5904 23.8025C86.2709 24.224 86.0067 24.8069 85.9988 25.1023C85.9909 25.3938 85.5452 25.9846 85.0009 26.41C84.4567 26.8354 84.0149 27.4971 84.0149 27.8831C84.0149 28.7141 82.8199 29.884 81.968 29.884C81.6367 29.884 81.0333 30.3251 80.6231 30.8686C80.2169 31.4122 79.5937 31.8533 79.2388 31.8533C78.8799 31.8533 78.3671 32.1172 78.099 32.4441C77.8308 32.771 77.0104 33.0349 76.2768 33.0349C75.5432 33.0349 74.9438 33.2122 74.9438 33.4288C74.9438 33.6454 74.6125 33.8227 74.2023 33.8227C73.7961 33.8227 73.24 34.0866 72.9718 34.4135C72.7036 34.7404 71.9976 35.0043 71.406 35.0043C70.8183 35.0043 70.0414 35.3273 69.6785 35.7251C68.9607 36.5168 68.7754 39.5299 69.4222 39.9277C69.6391 40.0617 69.8166 41.1133 69.8166 42.2674C69.8166 43.6459 70.0177 44.5282 70.4082 44.8512C70.8262 45.1978 70.9998 46.1194 70.9998 48.0258C70.9998 49.5028 71.1772 50.8223 71.3942 50.9562C71.6229 51.098 71.7886 53.2564 71.7886 56.1002C71.7886 60.6298 71.7333 61 71.0471 61C70.6409 61 70.0848 60.7361 69.8166 60.4092ZM54.9714 34.4135C55.1134 34.0433 55.7168 33.8227 56.5924 33.8227C57.3575 33.8227 57.9846 33.6454 57.9846 33.4288C57.9846 33.2122 58.7616 33.0349 59.7121 33.0349C60.7651 33.0349 61.6288 32.8065 61.9286 32.4441C62.2244 32.0857 63.0881 31.8533 64.1214 31.8533C65.0601 31.8533 65.9357 31.6761 66.0698 31.4594C66.2039 31.2428 66.8152 31.0656 67.4265 31.0656C68.0378 31.0656 68.7596 30.8017 69.0278 30.4748C69.296 30.1478 70.0177 29.884 70.629 29.884C71.2403 29.884 71.8517 29.7067 71.9858 29.4901C72.1199 29.2734 72.7312 29.0962 73.3425 29.0962C73.9538 29.0962 74.6756 28.8323 74.9438 28.5054C75.212 28.1785 75.6892 27.9146 75.9968 27.9146C76.3044 27.9146 77.7913 26.6896 79.3019 25.1929C82.0429 22.4713 82.0429 22.4713 82.0429 20.2695C82.0429 18.2095 81.9838 18.0677 81.1003 18.0677C80.5797 18.0677 80.0512 17.8038 79.929 17.4769C79.7554 17.0318 79.0337 16.8861 76.9513 16.8861C75.4407 16.8861 74.0919 16.7089 73.9578 16.4922C73.8237 16.2756 73.1019 16.0984 72.3565 16.0984C71.6111 16.0984 70.9998 16.2756 70.9998 16.4922C70.9998 16.7286 69.4813 16.8861 67.2333 16.8861C63.7744 16.8861 63.3957 16.9609 62.5991 17.8235C62.1218 18.3395 61.3764 18.8279 60.9426 18.9106C60.3707 19.017 60.1183 19.4305 60.0276 20.3916C59.9566 21.1281 59.645 21.9789 59.3374 22.29C59.0258 22.5973 58.7734 23.1054 58.7734 23.4126C58.7734 23.7238 58.5959 23.9758 58.379 23.9758C58.1621 23.9758 57.9846 24.4012 57.9846 24.9172C57.9846 25.4371 57.7164 25.9649 57.393 26.087C57.0696 26.213 56.8014 26.6621 56.8014 27.0914C56.8014 27.5168 56.6239 27.9776 56.407 28.1115C56.1901 28.2454 56.0126 28.8559 56.0126 29.4664C56.0126 30.0769 55.7444 30.7977 55.421 31.0656C55.0976 31.3334 54.8294 31.8888 54.8294 32.2945C54.8294 32.7041 54.6519 33.0349 54.435 33.0349C54.2181 33.0349 54.0406 33.4761 54.0406 34.0196C54.0406 35.1028 54.6125 35.347 54.9714 34.4135ZM93.8749 60.4092C93.6067 60.0823 92.8732 59.8184 92.25 59.8184C91.2482 59.8184 91.1141 59.6766 91.1141 58.6328C91.1141 57.979 91.335 57.0928 91.6032 56.6634C91.9936 56.0411 91.9936 55.7182 91.6032 55.0958C90.9761 54.0954 90.8854 19.4345 91.5085 19.0524C91.7255 18.9185 91.9029 17.7566 91.9029 16.4686C91.9029 14.6528 92.0331 14.129 92.4945 14.129C92.8219 14.129 93.0861 14.3062 93.0861 14.5229C93.0861 14.7395 93.4135 14.9167 93.8158 14.9167C94.2141 14.9167 94.8333 15.2397 95.1962 15.6375C95.7799 16.2835 95.8469 18.1268 95.8469 33.8857C95.8469 43.5277 95.9652 51.5352 96.1112 51.681C96.4464 52.0157 97.8189 50.7908 97.8189 50.1566C97.8189 49.8927 98.0832 49.4516 98.4105 49.1838C98.7379 48.9159 99.0021 48.3842 99.0021 48.0022C99.0021 47.6201 99.2664 47.0923 99.5898 46.8245C99.9132 46.5566 100.087 46.1943 99.9802 46.021C99.8737 45.8437 100.051 45.4341 100.379 45.1072C100.706 44.7803 100.974 44.2564 100.974 43.9413C100.974 43.6302 101.238 43.1496 101.566 42.8818C101.893 42.614 102.157 42.0586 102.157 41.6529C102.157 41.2433 102.335 40.9124 102.552 40.9124C102.769 40.9124 102.946 40.5816 102.946 40.1719C102.946 39.7662 103.21 39.2109 103.538 38.9431C103.865 38.6752 104.129 37.9544 104.129 37.3439C104.129 36.7334 104.307 36.1229 104.524 35.989C104.741 35.8551 104.918 35.3942 104.918 34.9689C104.918 34.5395 105.182 34.0905 105.51 33.9645C105.837 33.8424 106.101 33.4131 106.101 33.0153C106.101 32.6174 106.279 32.1842 106.496 32.0503C106.713 31.9163 106.89 31.4831 106.89 31.0892C106.89 30.6953 107.154 30.1518 107.482 29.884C107.809 29.6161 108.073 29.0608 108.073 28.6551C108.073 28.2454 108.251 27.9146 108.468 27.9146C108.685 27.9146 108.862 27.5837 108.862 27.1741C108.862 26.7684 109.126 26.213 109.454 25.9452C109.781 25.6774 110.045 25.122 110.045 24.7163C110.045 24.3067 110.223 23.9758 110.44 23.9758C110.657 23.9758 110.834 23.3496 110.834 22.5855C110.834 21.7111 111.055 21.1084 111.426 20.9666C111.753 20.8445 112.017 20.5531 112.017 20.3246C112.017 19.6196 113.335 16.8861 113.67 16.8861C113.847 16.8861 113.989 16.2638 113.989 15.5075C113.989 14.3732 114.135 14.129 114.81 14.129C115.259 14.129 116.147 14.6489 116.782 15.2791C117.72 16.2165 117.933 16.7679 117.933 18.2332C117.933 19.2257 117.756 20.0371 117.539 20.0371C117.322 20.0371 117.144 20.3955 117.144 20.8367C117.144 21.2778 116.88 21.7386 116.553 21.8647C116.226 21.9868 115.961 22.5146 115.961 23.0345C115.961 23.5505 115.784 23.9758 115.567 23.9758C115.35 23.9758 115.172 24.4958 115.172 25.1299C115.172 25.764 114.908 26.5478 114.581 26.8747C114.254 27.1977 113.989 27.7216 113.989 28.0367C113.989 28.3478 113.725 28.8284 113.398 29.0962C113.07 29.364 112.806 29.9194 112.806 30.3251C112.806 30.7347 112.629 31.0656 112.412 31.0656C112.195 31.0656 112.017 31.3964 112.017 31.8061C112.017 32.2117 111.753 32.7671 111.426 33.0349C111.098 33.3028 110.834 33.8581 110.834 34.2638C110.834 34.6735 110.657 35.0043 110.44 35.0043C110.223 35.0043 110.045 35.3352 110.045 35.7448C110.045 36.1505 109.781 36.7058 109.454 36.9737C109.126 37.2415 108.862 37.9623 108.862 38.5728C108.862 39.1833 108.685 39.7938 108.468 39.9277C108.251 40.0617 108.073 40.5225 108.073 40.9479C108.073 41.3772 107.809 41.8262 107.482 41.9523C107.154 42.0744 106.89 42.5037 106.89 42.9015C106.89 43.2993 106.713 43.7326 106.496 43.8665C106.279 44.0004 106.101 44.4612 106.101 44.8866C106.101 45.3159 105.837 45.765 105.51 45.891C105.182 46.0131 104.918 46.5409 104.918 47.0608C104.918 47.5768 104.741 48.0022 104.524 48.0022C104.307 48.0022 104.129 48.333 104.129 48.7426C104.129 49.1483 103.865 49.7037 103.538 49.9715C103.21 50.2394 102.946 50.7947 102.946 51.2004C102.946 51.61 102.769 51.9409 102.552 51.9409C102.335 51.9409 102.157 52.2718 102.157 52.6814C102.157 53.0871 101.893 53.6424 101.566 53.9103C101.238 54.1781 100.974 54.7138 100.974 55.0998C100.974 55.4818 100.69 55.9033 100.343 56.0372C99.9921 56.1711 99.8067 56.5335 99.925 56.8407C100.043 57.1479 99.8816 57.6087 99.5701 57.8687C99.2585 58.1287 99.0021 58.6722 99.0021 59.0779C99.0021 59.6608 98.7103 59.8184 97.6099 59.8184C96.7343 59.8184 96.1309 60.0389 95.9889 60.4092C95.8666 60.7361 95.4486 61 95.066 61C94.6795 61 94.1431 60.7361 93.8749 60.4092ZM142.256 60.7361C142.11 60.5943 141.992 59.9956 141.992 59.4088C141.992 58.8179 141.727 58.1168 141.4 57.849C140.978 57.4985 140.808 56.5768 140.808 54.6508C140.808 53.1068 140.639 51.9409 140.414 51.9409C140.185 51.9409 140.02 50.7081 140.02 49.0302C140.02 46.8048 139.882 46.0643 139.428 45.891C139.022 45.7334 138.836 45.1033 138.836 43.8783C138.836 42.1059 138.825 42.094 137.48 42.094C136.734 42.094 136.013 42.2713 135.878 42.4879C135.733 42.7242 133.003 42.8818 129.016 42.8818C123.1 42.8818 122.323 42.9606 121.739 43.6026C121.38 43.9965 121.088 44.5952 121.088 44.9339C121.088 45.2687 120.824 45.765 120.497 46.0328C120.17 46.3006 119.905 46.856 119.905 47.2617C119.905 47.6713 119.728 48.0022 119.511 48.0022C119.294 48.0022 119.116 48.3251 119.116 48.723C119.116 49.1168 118.675 49.8573 118.13 50.3654C117.586 50.8735 117.144 51.5943 117.144 51.9685C117.144 52.3387 116.88 52.7483 116.553 52.8704C116.226 52.9965 115.961 53.3431 115.961 53.6424C115.961 54.2569 114.79 56.7619 114.36 57.0613C114.206 57.1715 114.013 57.6127 113.934 58.0459C113.741 59.0661 111.347 59.4048 110.988 58.4635C110.858 58.1247 110.424 57.849 110.026 57.849C109.087 57.849 108.696 57.2109 109.458 56.9195C109.781 56.7934 110.045 56.3444 110.045 55.9151C110.045 55.4897 110.223 55.0289 110.44 54.895C110.657 54.761 110.834 54.1505 110.834 53.54C110.834 52.9295 111.098 52.2087 111.426 51.9409C111.753 51.6731 112.017 51.1886 112.017 50.8656C112.017 50.5466 112.459 49.9321 113.003 49.5068C113.548 49.0814 113.989 48.4118 113.989 48.0218C113.989 47.6319 114.254 47.0884 114.581 46.8205C114.908 46.5527 115.172 45.9973 115.172 45.5916C115.172 45.182 115.35 44.8512 115.567 44.8512C115.784 44.8512 115.961 44.5203 115.961 44.1107C115.961 43.705 116.226 43.1496 116.553 42.8818C116.88 42.614 117.144 42.0586 117.144 41.6529C117.144 41.2433 117.322 40.9124 117.539 40.9124C117.756 40.9124 117.933 40.5894 117.933 40.1916C117.933 39.7978 118.375 39.0573 118.919 38.5492C119.464 38.0411 119.905 37.2967 119.905 36.891C119.905 36.4892 120.17 36.0599 120.497 35.9338C120.824 35.8117 121.088 35.4021 121.088 35.0319C121.088 34.6577 121.53 33.9369 122.074 33.4288C122.619 32.9207 123.06 32.1802 123.06 31.7864C123.06 31.3886 123.238 31.0656 123.455 31.0656C123.672 31.0656 123.849 30.7426 123.849 30.3448C123.849 29.9509 124.291 29.2104 124.835 28.7023C125.38 28.1942 125.825 27.4971 125.833 27.1583C125.837 26.8157 126.366 26.024 127.004 25.3977C127.643 24.7715 128.089 24.1334 127.99 23.9758C127.892 23.8183 128.338 23.1802 128.976 22.554C129.615 21.9277 130.144 21.1439 130.148 20.8091C130.156 20.4782 131.047 19.3321 132.132 18.2647C133.216 17.1973 134.104 16.0826 134.104 15.7911C134.104 14.1172 138.071 13.42 139.377 14.8616C139.968 15.5115 139.976 15.6454 139.44 16.0905C138.671 16.7246 138.667 17.6345 139.428 17.9259C139.889 18.1032 140.02 18.8791 140.02 21.4353C140.02 23.2393 140.197 24.8266 140.414 24.9605C140.631 25.0944 140.808 26.1461 140.808 27.3001C140.808 28.6787 141.01 29.561 141.4 29.884C141.818 30.2306 141.992 31.1522 141.992 33.0349C141.992 34.9177 142.165 35.8393 142.583 36.1859C142.974 36.5089 143.175 37.3912 143.175 38.7697C143.175 39.9238 143.352 40.9754 143.569 41.1094C143.786 41.2433 143.964 42.2949 143.964 43.449C143.964 44.8275 144.165 45.7098 144.555 46.0328C144.946 46.3558 145.147 47.238 145.147 48.6166C145.147 49.7706 145.324 50.8223 145.541 50.9562C145.758 51.0901 145.936 52.2324 145.936 53.4967C145.936 55.214 146.089 55.856 146.551 56.0293C147.004 56.2026 147.131 56.7068 147.044 57.9435C146.93 59.5112 146.839 59.6293 145.667 59.7435C144.981 59.8105 144.204 60.1177 143.944 60.4328C143.443 61.0354 142.69 61.1733 142.256 60.7361ZM137.977 37.0722C138.052 36.5365 137.854 36.0875 137.484 35.9457C137.018 35.7684 136.864 35.1343 136.864 33.4091C136.864 32.1448 136.687 31.0026 136.47 30.8686C136.253 30.7347 136.076 29.2774 136.076 27.6271C136.076 25.3899 135.91 24.4446 135.425 23.9089C134.589 22.9872 134.104 22.9912 134.104 23.9207C134.104 24.3224 133.662 24.9841 133.118 25.3938C132.573 25.7995 132.132 26.4139 132.132 26.7566C132.132 27.1032 131.69 27.8004 131.146 28.3085C130.601 28.8166 130.16 29.494 130.16 29.8131C130.16 30.1282 129.619 30.9041 128.965 31.5303C128.306 32.1605 127.856 32.8144 127.963 32.9916C128.069 33.1649 127.632 33.8109 126.989 34.4253C126.346 35.0437 125.821 35.8511 125.821 36.2253C125.821 36.6034 125.612 36.9776 125.356 37.0643C125.103 37.147 125.025 37.4345 125.19 37.6945C125.407 38.045 127.139 38.1474 131.666 38.0687C137.744 37.9584 137.854 37.9426 137.977 37.0722ZM344.965 60.4092C344.823 60.0389 344.22 59.8184 343.344 59.8184C341.925 59.8184 341.475 59.2985 342.544 58.8888C342.978 58.7195 343.135 58.0341 343.135 56.2853C343.135 54.9659 343.309 53.9103 343.53 53.9103C343.747 53.9103 343.924 53.1343 343.924 52.1851C343.924 51.1335 344.153 50.2709 344.516 49.9715C344.879 49.6722 345.107 48.8096 345.107 47.758C345.107 46.8087 345.285 46.0328 345.502 46.0328C345.723 46.0328 345.896 44.9772 345.896 43.6577C345.896 41.9089 346.054 41.2236 346.488 41.0542C346.902 40.8967 347.079 40.2507 347.079 38.8997C347.079 37.8402 347.257 36.9737 347.474 36.9737C347.691 36.9737 347.868 36.1977 347.868 35.2485C347.868 34.1969 348.097 33.3343 348.46 33.0349C348.85 32.712 349.051 31.8336 349.051 30.4748C349.051 29.0765 349.252 28.2376 349.667 27.8949C350.104 27.5325 350.254 26.8196 350.183 25.4804C350.128 24.3973 350.286 23.3732 350.554 23.1054C350.81 22.8494 351.023 21.8962 351.023 20.9903C351.023 20.0095 351.26 19.1469 351.615 18.8555C351.942 18.5876 352.206 17.8826 352.206 17.2918C352.206 16.7049 352.557 15.9014 352.987 15.5154C353.697 14.8734 353.788 14.8655 354.017 15.4524C354.234 16.0196 355.164 16.0984 361.495 16.0984C365.888 16.0984 368.819 16.252 368.968 16.4922C369.103 16.7089 369.714 16.8861 370.325 16.8861C370.937 16.8861 371.658 17.15 371.926 17.4769C372.195 17.8038 372.699 18.0677 373.043 18.0677C373.883 18.0677 377.054 21.2109 377.054 22.0419C377.054 22.4004 377.318 22.9163 377.641 23.1842C377.965 23.452 378.142 23.8065 378.04 23.9758C377.937 24.1452 378.115 24.4997 378.438 24.7675C378.876 25.1299 379.026 26.1185 379.026 28.6196C379.026 32.3023 378.19 35.0043 377.046 35.0043C376.691 35.0043 375.985 35.4455 375.476 35.989C374.967 36.5325 374.305 36.9737 374.009 36.9737C373.709 36.9737 373.054 37.4148 372.554 37.9584C372.049 38.5019 371.37 38.9431 371.043 38.9431C370.716 38.9431 370.223 39.2069 369.954 39.5339C369.686 39.8608 368.953 40.1247 368.33 40.1247C367.702 40.1247 367.194 40.3019 367.194 40.5185C367.194 40.7352 367.371 40.9124 367.588 40.9124C367.805 40.9124 367.982 41.3378 367.982 41.8538C367.982 42.3737 368.247 42.9015 368.574 43.0236C368.901 43.1496 369.166 43.5986 369.166 44.028C369.166 44.4533 369.343 44.9142 369.56 45.0481C369.777 45.182 369.954 45.6153 369.954 46.0131C369.954 46.4109 370.219 46.8402 370.546 46.9623C370.873 47.0884 371.138 47.5177 371.138 47.9194C371.138 48.3251 371.579 49.0696 372.124 49.5777C372.668 50.0857 373.11 50.8262 373.11 51.2201C373.11 51.6179 373.287 51.9409 373.504 51.9409C373.721 51.9409 373.898 52.2718 373.898 52.6814C373.898 53.0871 374.163 53.6424 374.49 53.9103C374.817 54.1781 375.082 54.6704 375.082 54.9974C375.082 55.3243 375.539 56.0136 376.095 56.5295C377.322 57.6639 377.215 58.7904 375.866 58.9479C375.326 59.0109 374.486 59.263 373.997 59.5072C372.798 60.1059 371.138 59.2433 371.138 58.0223C371.138 57.5378 370.873 57.0416 370.546 56.9195C370.219 56.7934 369.954 56.368 369.954 55.9702C369.954 55.5724 369.734 55.0289 369.465 54.761C369.075 54.3711 369.095 54.1978 369.56 53.9103C370.025 53.6227 370.045 53.4494 369.655 53.0595C369.387 52.7917 369.166 52.2717 369.166 51.9054C369.166 51.5391 368.901 51.1335 368.574 51.0114C368.247 50.8853 367.982 50.4363 367.982 50.007C367.982 49.5816 367.805 49.1208 367.588 48.9868C367.371 48.8529 367.194 48.3921 367.194 47.9667C367.194 47.5374 366.929 47.0884 366.602 46.9623C366.235 46.8245 366.01 46.2258 366.01 45.3987C366.01 44.666 365.845 44.0634 365.64 44.0634C365.435 44.0634 365.214 43.3978 365.147 42.5864L365.024 41.1094L358.825 40.9991C353.043 40.9006 352.565 40.9479 351.824 41.6883C351.299 42.2122 351.023 43.0078 351.023 43.9846C351.023 44.8078 350.818 45.6862 350.57 45.9343C350.317 46.1864 350.12 47.2814 350.128 48.3645C350.14 49.5895 349.939 50.5151 349.6 50.7947C349.288 51.0547 349.051 51.9763 349.051 52.9256C349.051 53.9339 348.815 54.7965 348.46 55.0919C348.073 55.4149 347.868 56.2932 347.868 57.6402C347.868 59.133 347.671 59.8735 347.146 60.3501C346.247 61.1615 345.265 61.1891 344.965 60.4092ZM365.024 35.3982C365.159 35.1816 366.034 35.0043 366.973 35.0043C368.006 35.0043 368.87 34.7719 369.166 34.4135C369.434 34.0866 369.947 33.8227 370.305 33.8227C370.66 33.8227 371.284 33.3816 371.69 32.838C372.1 32.2945 372.723 31.8533 373.082 31.8533C373.812 31.8533 377.054 28.726 377.054 28.0249C377.054 27.7728 375.823 26.3194 374.317 24.7872C372.151 22.5855 371.339 22.0065 370.416 22.0065C369.741 22.0065 369.154 21.7583 369.024 21.4157C368.846 20.9548 368.057 20.8248 365.431 20.8248C363.451 20.8248 362.066 20.6634 362.066 20.431C362.066 20.2143 361.053 20.0371 359.818 20.0371C357.823 20.0371 357.42 20.1789 356.269 21.2975C355.121 22.4043 354.967 22.8021 354.967 24.6218C354.967 25.7562 354.79 26.796 354.573 26.9299C354.356 27.0638 354.178 28.4109 354.178 29.9194C354.178 31.9991 354.033 32.7198 353.587 32.8932C353.22 33.031 352.995 33.6297 352.995 34.4568V35.7921H358.888C362.39 35.7921 364.879 35.6306 365.024 35.3982ZM404.137 60.7401C403.991 60.5943 403.873 59.8853 403.873 59.1606C403.873 58.4398 403.695 57.849 403.478 57.849C403.254 57.849 403.084 56.6831 403.084 55.1392C403.084 53.2131 402.914 52.2914 402.492 51.9409C402.11 51.6258 401.897 50.7317 401.889 49.4319C401.869 46.1825 401.609 46.0328 396.028 46.0328C392.049 46.0328 391.185 45.9264 390.992 45.4223C390.791 44.9024 390.617 44.9418 389.82 45.6862C389.308 46.1706 388.886 46.8875 388.886 47.2814C388.886 47.6792 388.708 48.0022 388.491 48.0022C388.274 48.0022 388.097 48.333 388.097 48.7426C388.097 49.1483 387.829 49.7037 387.505 49.9715C387.182 50.2394 386.914 50.9602 386.914 51.5707C386.914 52.1812 386.736 52.7917 386.519 52.9256C386.302 53.0595 386.125 53.5203 386.125 53.9457C386.125 54.3751 385.857 54.8241 385.533 54.9501C385.21 55.0722 384.942 55.5015 384.942 55.8993C384.942 56.2971 384.764 56.7304 384.547 56.8643C384.33 56.9982 384.153 57.5418 384.153 58.0696C384.153 58.5974 384.33 59.0306 384.547 59.0306C384.764 59.0306 384.942 59.2079 384.942 59.4245C384.942 59.9208 382.469 59.9444 381.964 59.456C381.759 59.2551 381.057 59.0346 380.406 58.9637C379.408 58.8534 379.203 58.6446 379.105 57.6166C379.034 56.8801 379.223 56.2065 379.598 55.8954C379.933 55.6157 380.209 55.0564 380.209 54.6508C380.209 54.2411 380.386 53.9103 380.603 53.9103C380.82 53.9103 380.998 53.5794 380.998 53.1698C380.998 52.7641 381.262 52.2087 381.589 51.9409C381.917 51.6731 382.181 50.9523 382.181 50.3418C382.181 49.7313 382.358 49.1208 382.575 48.9868C382.792 48.8529 382.97 48.3921 382.97 47.9667C382.97 47.5374 383.238 47.0884 383.561 46.9623C383.885 46.8402 384.153 46.4109 384.153 46.0131C384.153 45.6153 384.33 45.182 384.547 45.0481C384.764 44.9142 384.942 44.2131 384.942 43.4923C384.942 42.6888 385.17 42.0901 385.533 41.9523C385.857 41.8262 386.125 41.3772 386.125 40.9479C386.125 40.5225 386.302 40.0617 386.519 39.9277C386.736 39.7938 386.914 39.3606 386.914 38.9627C386.914 38.5649 387.182 38.1356 387.505 38.0135C387.829 37.8875 388.097 37.4385 388.097 37.0091C388.097 36.5838 388.274 36.1229 388.491 35.989C388.708 35.8551 388.886 35.2446 388.886 34.6341C388.886 34.0236 389.154 33.3028 389.477 33.0349C389.801 32.7671 390.069 32.2117 390.069 31.8061C390.069 31.3964 390.246 31.0656 390.463 31.0656C390.68 31.0656 390.858 30.7347 390.858 30.3251C390.858 29.9194 391.126 29.364 391.449 29.0962C391.773 28.8284 392.041 28.1194 392.041 27.5207C392.041 26.922 392.309 26.213 392.632 25.9452C392.956 25.6774 393.224 25.122 393.224 24.7163C393.224 24.3067 393.401 23.9758 393.618 23.9758C393.835 23.9758 394.013 23.645 394.013 23.2354C394.013 22.8297 394.281 22.2743 394.604 22.0065C394.928 21.7386 395.196 21.1833 395.196 20.7776C395.196 20.368 395.373 20.0371 395.59 20.0371C395.807 20.0371 395.985 19.6117 395.985 19.0957C395.985 18.5758 396.253 18.048 396.576 17.9259C396.9 17.7999 397.168 17.3391 397.168 16.8979C397.168 16.4568 397.345 16.0984 397.562 16.0984C397.779 16.0984 397.957 16.2756 397.957 16.4922C397.957 16.7089 398.288 16.8861 398.698 16.8861C399.105 16.8861 399.661 17.15 399.929 17.4769C400.197 17.8038 401.017 18.0677 401.751 18.0677C402.485 18.0677 403.084 18.245 403.084 18.4616C403.084 18.6782 402.907 18.8555 402.69 18.8555C402.473 18.8555 402.295 19.1194 402.295 19.4463C402.295 19.7732 402.473 20.0371 402.69 20.0371C402.93 20.0371 403.084 21.9395 403.084 24.9605C403.084 27.9815 403.238 29.884 403.478 29.884C403.703 29.884 403.873 31.0498 403.873 32.5938C403.873 34.5198 404.042 35.4415 404.464 35.7921C404.882 36.1387 405.056 37.0603 405.056 38.9431C405.056 40.877 405.226 41.7435 405.671 42.1137C406.109 42.4761 406.259 43.189 406.188 44.5282C406.133 45.6113 406.29 46.6354 406.559 46.9033C406.815 47.1593 407.028 48.2897 407.028 49.4122C407.028 50.7435 407.233 51.6219 407.62 51.9409C408.022 52.2757 408.211 53.1698 408.211 54.7453C408.211 56.0254 408.389 57.0613 408.606 57.0613C408.823 57.0613 409 57.6836 409 58.4398C409 59.7947 408.972 59.8184 407.355 59.8184C406.444 59.8184 405.419 60.0823 405.056 60.4092C404.693 60.7361 404.283 60.8818 404.137 60.7401ZM399.929 38.5728C399.929 37.2848 399.751 36.1229 399.534 35.989C399.317 35.8551 399.14 34.2678 399.14 32.4638C399.14 29.9076 399.01 29.1317 398.548 28.9544C398.225 28.8284 397.957 28.3675 397.957 27.9264C397.957 27.4853 397.779 27.1268 397.562 27.1268C397.345 27.1268 397.168 27.6349 397.168 28.2612C397.168 28.8835 396.9 29.6161 396.576 29.884C396.253 30.1518 395.985 30.5929 395.985 30.8568C395.985 31.4949 394.849 33.7478 394.384 34.0354C394.178 34.1614 394.013 34.8743 394.013 35.6188C394.013 36.3632 393.835 36.9737 393.618 36.9737C393.401 36.9737 393.224 37.3045 393.224 37.7142C393.224 38.1199 392.956 38.6752 392.632 38.9431C392.309 39.2109 392.041 39.7662 392.041 40.1719C392.041 40.8455 392.388 40.9124 395.985 40.9124H399.929V38.5728ZM170.404 58.8534C169.686 58.0893 169.032 57.8608 167.281 57.7702C165.226 57.6599 165.056 57.5772 164.946 56.6319C164.879 56.0687 165.099 55.3912 165.439 55.1076C165.774 54.828 166.05 54.0048 166.05 53.2722C166.05 52.5396 166.227 51.9409 166.444 51.9409C166.661 51.9409 166.839 51.61 166.839 51.2004C166.839 50.7947 167.103 50.2394 167.43 49.9715C167.758 49.7037 168.022 49.1208 168.022 48.6757C168.022 47.6792 169.245 44.8512 169.675 44.8512C169.852 44.8512 169.994 44.3076 169.994 43.642C169.994 42.9763 170.258 42.1649 170.586 41.842C170.913 41.515 171.177 40.7312 171.177 40.0971C171.177 39.463 171.355 38.9431 171.572 38.9431C171.789 38.9431 171.966 38.6122 171.966 38.2026C171.966 37.7969 172.23 37.2415 172.558 36.9737C172.885 36.7058 173.149 35.9851 173.149 35.3746C173.149 34.7641 173.327 34.1535 173.544 34.0196C173.761 33.8857 173.938 33.4524 173.938 33.0586C173.938 32.6647 174.202 32.1212 174.53 31.8533C174.857 31.5855 175.121 30.8647 175.121 30.2542C175.121 29.6437 175.299 29.0332 175.516 28.8993C175.732 28.7653 175.91 28.3321 175.91 27.9343C175.91 27.5365 176.174 27.1071 176.502 26.985C176.872 26.8432 177.093 26.2406 177.093 25.3662C177.093 24.6021 177.271 23.9758 177.488 23.9758C177.704 23.9758 177.882 23.645 177.882 23.2354C177.882 22.8297 178.146 22.2743 178.474 22.0065C178.801 21.7386 179.065 21.1833 179.065 20.7776C179.065 20.368 179.243 20.0371 179.46 20.0371C179.676 20.0371 179.854 19.4108 179.854 18.6467C179.854 17.7723 180.075 17.1697 180.446 17.0279C180.773 16.9058 181.037 16.4607 181.037 16.0432C181.037 14.9798 182.106 14.6922 183.017 15.5115C183.715 16.1456 183.802 16.1496 184.031 15.5627C184.22 15.0664 184.812 14.9167 186.602 14.9167C187.888 14.9167 188.925 14.7395 188.925 14.5229C188.925 14.3062 189.635 14.129 190.503 14.129C191.37 14.129 192.08 14.3062 192.08 14.5229C192.08 14.7592 193.575 14.9167 195.78 14.9167C198.584 14.9167 199.598 15.0585 199.968 15.5075C200.237 15.8345 200.714 16.0984 201.029 16.0984C201.341 16.0984 202.563 17.0633 203.743 18.2371C204.918 19.4148 205.884 20.6358 205.884 20.9469C205.884 21.262 206.149 21.7386 206.476 22.0065C207.17 22.5815 207.308 26.54 206.646 26.9456C206.413 27.0914 206.101 27.5246 205.955 27.9146C205.533 29.0292 201.57 33.0349 200.891 33.0349C200.556 33.0349 199.929 33.4761 199.503 34.0196C199.077 34.5632 198.387 35.0043 197.969 35.0043C196.817 35.0043 197.026 35.4455 199.18 37.5645C200.264 38.6319 201.152 39.7899 201.152 40.1404C201.152 40.491 201.593 41.1921 202.138 41.7002C203.017 42.5234 203.124 42.9409 203.124 45.5286C203.124 48.1203 203.017 48.5299 202.138 49.3453C201.593 49.8494 201.152 50.519 201.152 50.8341C201.152 51.5391 199.523 53.1225 198.801 53.1225C198.509 53.1225 197.669 53.7448 196.931 54.5011C196.194 55.2573 195.358 55.8796 195.066 55.8796C194.778 55.8796 194.321 56.1435 194.052 56.4704C193.784 56.7974 193.228 57.0613 192.822 57.0613C192.412 57.0613 192.08 57.2385 192.08 57.4551C192.08 57.6718 191.481 57.849 190.747 57.849C190.014 57.849 189.193 58.1129 188.925 58.4398C188.625 58.8022 187.762 59.0306 186.709 59.0306C185.758 59.0306 184.981 59.2079 184.981 59.4245C184.981 59.6726 182.441 59.8184 178.146 59.8184C171.402 59.8184 171.303 59.8066 170.404 58.8534ZM183.94 54.5011C184.094 54.0993 184.729 53.9103 185.932 53.9103C186.902 53.9103 187.805 53.733 187.939 53.5164C188.073 53.2998 188.673 53.1225 189.272 53.1225C189.927 53.1225 190.735 52.7286 191.292 52.1378C191.8 51.5943 192.459 51.1532 192.755 51.1532C193.047 51.1532 194.612 49.8455 196.233 48.2503L199.18 45.3474V42.9212C199.18 40.7864 199.073 40.4555 198.292 40.1168C197.803 39.9041 197.14 39.5811 196.813 39.3999C195.086 38.4271 194.372 38.1553 193.516 38.1553C192.995 38.1553 192.349 37.8914 192.08 37.5645C191.812 37.2376 191.102 36.9737 190.503 36.9737C189.903 36.9737 189.193 37.2376 188.925 37.5645C188.602 37.9544 187.718 38.1553 186.338 38.1553C185.182 38.1553 184.129 38.3325 183.995 38.5492C183.861 38.7658 182.993 38.9431 182.07 38.9431C180.785 38.9431 180.166 38.7107 179.46 37.9584C178.592 37.0367 178.489 37.017 177.815 37.6275C177.417 37.9859 177.093 38.6083 177.093 39.0179C177.093 39.4236 176.829 39.8568 176.502 39.9829C176.135 40.1207 175.91 40.7194 175.91 41.5466C175.91 42.2792 175.732 42.8818 175.516 42.8818C175.299 42.8818 175.121 43.5081 175.121 44.2722C175.121 45.1466 174.9 45.7492 174.53 45.891C174.202 46.017 173.938 46.6 173.938 47.1947C173.938 48.3173 172.98 50.5741 172.337 50.972C172.132 51.098 171.966 51.7952 171.966 52.5238C171.966 53.2486 171.757 53.9142 171.501 54.0009C171.248 54.0836 171.169 54.3632 171.327 54.6232C171.532 54.954 173.413 55.0919 177.665 55.0919C182.678 55.0919 183.751 54.9895 183.94 54.5011ZM190.108 32.4441C190.377 32.1172 191.098 31.8533 191.71 31.8533C192.321 31.8533 192.932 31.6761 193.066 31.4594C193.2 31.2428 193.8 31.0656 194.399 31.0656C195.054 31.0656 195.863 30.6717 196.419 30.0809C196.928 29.5373 197.598 29.0962 197.906 29.0962C198.663 29.0962 201.152 26.5754 201.152 25.8113C201.152 25.4765 201.329 25.0944 201.546 24.9605C201.763 24.8266 201.94 23.7553 201.94 22.5776C201.94 19.5684 201.246 18.8555 198.304 18.8555C197.046 18.8555 196.024 18.6782 196.024 18.4616C196.024 18.245 194.979 18.0677 193.682 18.0677C192.392 18.0677 191.228 18.245 191.094 18.4616C190.96 18.6782 189.809 18.8555 188.531 18.8555C187.253 18.8555 186.101 18.6782 185.967 18.4616C185.573 17.8235 184.981 18.0126 184.981 18.7767C184.981 19.1666 184.804 19.6629 184.591 19.8756C184.374 20.0923 184.157 20.7579 184.106 21.3605C184.058 21.9592 183.79 22.6367 183.514 22.8691C183.234 23.0975 183.009 23.5938 183.009 23.9758C183.009 24.3579 182.745 24.8896 182.418 25.1575C182.09 25.4253 181.826 26.1461 181.826 26.7566C181.826 27.3671 181.648 27.9776 181.432 28.1115C181.215 28.2454 181.037 28.6787 181.037 29.0765C181.037 29.4743 180.773 29.9036 180.446 30.0257C179.854 30.2542 179.613 32.2669 180.118 32.7711C180.26 32.9168 182.457 33.0349 184.997 33.0349C188.621 33.0349 189.722 32.9089 190.108 32.4441ZM207.068 59.4245C207.068 59.2079 206.472 59.0306 205.746 59.0306C204.165 59.0306 202.702 57.719 203.447 56.9746C203.703 56.7186 203.912 56.0372 203.912 55.4542C203.912 54.8753 204.177 54.1781 204.504 53.9103C204.831 53.6424 205.096 53.0871 205.096 52.6814C205.096 52.2718 205.273 51.9409 205.49 51.9409C205.707 51.9409 205.884 51.3146 205.884 50.5505C205.884 49.6761 206.105 49.0735 206.476 48.9317C206.803 48.8096 207.068 48.3803 207.068 47.9825C207.068 47.5847 207.245 47.1514 207.462 47.0175C207.679 46.8836 207.856 46.4227 207.856 45.9973C207.856 45.568 208.121 45.119 208.448 44.993C208.775 44.8709 209.04 44.4415 209.04 44.0437C209.04 43.6459 209.217 43.2126 209.434 43.0787C209.651 42.9448 209.828 42.3343 209.828 41.7238C209.828 41.1133 210.093 40.3925 210.42 40.1247C210.747 39.8568 211.012 39.3133 211.012 38.9194C211.012 38.5255 211.177 38.1002 211.382 37.9741C212.025 37.5763 212.984 35.3194 212.984 34.1969C212.984 33.6021 213.248 33.0192 213.575 32.8932C213.946 32.7514 214.167 32.1487 214.167 31.2743C214.167 30.5102 214.344 29.884 214.561 29.884C214.778 29.884 214.956 29.5531 214.956 29.1435C214.956 28.7378 215.22 28.1824 215.547 27.9146C215.874 27.6467 216.139 27.0914 216.139 26.6857C216.139 26.2761 216.316 25.9452 216.533 25.9452C216.75 25.9452 216.928 25.3189 216.928 24.5548C216.928 23.6804 217.148 23.0778 217.519 22.936C217.846 22.8139 218.111 22.3846 218.111 21.9868C218.111 21.589 218.288 21.1557 218.505 21.0218C218.722 20.8879 218.9 20.427 218.9 20.0016C218.9 19.5723 219.164 19.1233 219.491 18.9973C219.83 18.8673 220.083 18.2804 220.083 17.6148C220.083 16.9806 220.41 16.1062 220.812 15.6769C221.463 14.9798 221.601 14.9601 222.043 15.4957C222.678 16.2598 223.4 16.2638 224.027 15.5075C224.725 14.6686 226.492 14.7749 227.292 15.7084C227.825 16.3308 227.971 17.2564 227.971 19.9938C227.971 22.617 228.117 23.6056 228.562 23.9758C228.965 24.3106 229.154 25.2047 229.154 26.7802C229.154 28.0603 229.331 29.0962 229.548 29.0962C229.765 29.0962 229.943 29.8721 229.943 30.8214C229.943 31.873 230.171 32.7356 230.534 33.0349C230.925 33.3579 231.126 34.2402 231.126 35.6188C231.126 36.7728 231.303 37.8245 231.52 37.9584C231.737 38.0923 231.915 39.1439 231.915 40.298C231.915 41.6765 232.116 42.5588 232.506 42.8818C232.865 43.1772 233.098 44.0398 233.098 45.0717C233.098 46.0092 233.275 46.8836 233.492 47.0175C233.709 47.1514 233.887 47.7619 233.887 48.3724C233.887 48.9829 234.151 49.7037 234.478 49.9715C234.841 50.2709 235.07 51.1335 235.07 52.1851C235.07 53.1343 235.247 53.9103 235.464 53.9103C236.095 53.9103 235.949 58.6052 235.295 59.2551C234.656 59.8932 233.437 59.9956 232.881 59.456C232.676 59.2551 231.974 59.0346 231.323 58.9637L230.14 58.8337L230.026 55.0958C229.962 53.0398 229.742 51.1886 229.533 50.9798C229.323 50.7711 229.154 49.8337 229.154 48.8963C229.154 47.7422 228.961 47.1159 228.562 46.9623C228.164 46.8126 227.971 46.1864 227.971 45.0678C227.971 42.2989 227.478 42.094 220.741 42.094C215.279 42.094 214.956 42.1374 214.956 42.8582C214.956 43.2796 214.778 43.7326 214.561 43.8665C214.344 44.0004 214.167 44.4612 214.167 44.8866C214.167 45.3159 213.902 45.765 213.575 45.891C213.248 46.0131 212.984 46.4424 212.984 46.8402C212.984 47.238 212.806 47.6713 212.589 47.8052C212.372 47.9391 212.195 48.4 212.195 48.8254C212.195 49.2547 211.93 49.7037 211.603 49.8297C211.24 49.9676 211.012 50.5663 211.012 51.3698C211.012 52.0906 210.846 52.7838 210.641 52.9098C209.998 53.3076 209.04 55.5645 209.04 56.6871C209.04 57.2818 208.775 57.8648 208.448 57.9908C208.121 58.1168 207.856 58.5777 207.856 59.0188C207.856 59.4599 207.679 59.8184 207.462 59.8184C207.245 59.8184 207.068 59.6411 207.068 59.4245ZM226.788 38.5728C226.788 38.368 226.61 38.0923 226.393 37.9584C226.176 37.8245 225.999 36.505 225.999 35.0279C225.999 33.2634 225.817 32.1921 225.47 31.9045C225.139 31.6328 224.91 30.459 224.855 28.8047C224.812 27.3395 224.603 26.0831 224.397 26.0122C224.196 25.9373 224.027 24.992 224.027 23.9089C224.027 22.5106 223.885 21.9868 223.534 22.101C223.262 22.1916 222.985 22.6485 222.914 23.1211C222.844 23.5899 222.623 23.9758 222.421 23.9758C222.22 23.9758 222.055 24.5863 222.055 25.3308C222.055 26.0752 221.889 26.7881 221.684 26.9141C221.219 27.2017 220.083 29.4546 220.083 30.0927C220.083 30.3566 219.818 30.7977 219.491 31.0656C219.164 31.3334 218.9 32.0542 218.9 32.6647C218.9 33.2752 218.722 33.8857 218.505 34.0196C218.288 34.1535 218.111 34.5868 218.111 34.9846C218.111 35.3824 217.846 35.8117 217.519 35.9338C216.928 36.1623 216.687 38.175 217.192 38.6792C217.606 39.0927 226.788 38.9903 226.788 38.5728ZM270.629 58.109C269.154 56.6122 269.024 56.3405 269.56 55.8954C269.895 55.6157 270.171 54.891 270.171 54.2805C270.171 53.67 270.349 53.0595 270.566 52.9256C270.783 52.7917 270.96 51.8897 270.96 50.9208C270.96 49.7194 271.15 49.0853 271.552 48.9317C271.919 48.7938 272.143 48.1952 272.143 47.368C272.143 46.6354 272.321 46.0328 272.538 46.0328C272.755 46.0328 272.932 45.1663 272.932 44.1067C272.932 42.7557 273.11 42.1098 273.524 41.9523C273.895 41.8105 274.115 41.2078 274.115 40.3334C274.115 39.5693 274.293 38.9431 274.51 38.9431C274.727 38.9431 274.904 38.1671 274.904 37.2179C274.904 36.1662 275.133 35.3037 275.496 35.0043C275.886 34.6813 276.087 33.7991 276.087 32.4205C276.087 31.2664 276.265 30.2148 276.482 30.0809C276.699 29.947 276.876 29.045 276.876 28.0761C276.876 26.8747 277.066 26.2406 277.468 26.087C277.902 25.9216 278.059 25.2441 278.059 23.5623C278.059 22.2979 278.237 21.1557 278.454 21.0218C278.671 20.8879 278.848 19.8086 278.848 18.6231C278.848 16.2283 279.491 15.5706 280.954 16.4843C281.542 16.8507 281.81 16.8704 281.921 16.5474C282.027 16.2283 285.044 16.0984 292.427 16.0984C301.96 16.0984 302.836 16.1574 303.439 16.8192C303.798 17.213 304.09 17.8235 304.09 18.1741C304.09 18.5246 304.267 18.9185 304.484 19.0524C304.701 19.1863 304.879 19.6393 304.879 20.0607C304.879 20.7973 304.512 20.8248 294.711 20.8248C285.013 20.8248 284.516 20.8603 283.865 21.6165C283.494 22.0537 283.187 22.8297 283.187 23.3417C283.187 23.8537 282.922 24.4958 282.595 24.7636C282.193 25.0944 282.003 25.9885 282.003 27.5365C282.003 28.9465 281.826 29.8761 281.534 29.9745C281.238 30.073 281.1 30.8647 281.159 32.129C281.222 33.5037 281.061 34.315 280.639 34.7325C280.304 35.0673 280.031 35.4415 280.031 35.5675C280.031 35.6897 281.424 35.7921 283.127 35.7921C286.76 35.7921 287.919 36.4498 287.919 38.5098C287.919 39.2503 288.156 39.845 288.507 39.9829C290.01 40.5579 288.263 40.9124 283.94 40.9124C279.787 40.9124 279.191 40.9951 279.006 41.6017C278.888 41.9798 278.627 42.5982 278.426 42.9763C278.225 43.3505 278.059 44.0831 278.059 44.5991C278.059 45.119 277.795 45.765 277.468 46.0328C277.105 46.3321 276.876 47.1947 276.876 48.2464C276.876 49.1956 276.699 49.9715 276.482 49.9715C276.265 49.9715 276.087 50.582 276.087 51.3304C276.087 52.1694 275.843 52.8232 275.456 53.0437C275.109 53.2367 274.888 53.733 274.967 54.1466C275.101 54.8359 275.571 54.9028 280.931 55.0052C285.857 55.0958 286.787 55.021 286.985 54.5129C287.308 53.67 287.919 53.7606 287.919 54.6508C287.919 55.0564 288.195 55.6157 288.531 55.8954C289.481 56.6831 289.126 58.8022 288.018 58.9597C287.529 59.0306 287.131 59.2512 287.131 59.4521C287.131 59.6648 284.027 59.8184 279.72 59.8184H272.309L270.629 58.109ZM301.585 59.0976C300.745 58.168 300.702 55.2652 301.526 54.9501C301.928 54.7965 302.118 54.1624 302.118 52.961C302.118 51.9921 302.295 51.0901 302.512 50.9562C302.729 50.8223 302.907 49.9203 302.907 48.9514C302.907 47.7501 303.096 47.1159 303.498 46.9623C303.932 46.7969 304.09 46.1194 304.09 44.4376C304.09 43.1733 304.267 42.031 304.484 41.8971C304.701 41.7632 304.879 40.9754 304.879 40.1483C304.879 39.2936 305.135 38.435 305.47 38.1553C305.872 37.8205 306.062 36.9264 306.062 35.3509C306.062 34.0708 306.239 33.0349 306.456 33.0349C306.673 33.0349 306.851 32.259 306.851 31.3098C306.851 30.2581 307.079 29.3955 307.442 29.0962C307.797 28.8008 308.034 27.9382 308.034 26.9299C308.034 25.9216 308.27 25.059 308.625 24.7636C308.961 24.4839 309.217 23.6253 309.217 22.7706C309.217 21.9435 309.394 21.1557 309.611 21.0218C309.828 20.8879 310.006 20.0174 310.006 19.0918C310.006 16.0944 310.104 16.0668 320.694 16.1889L329.923 16.2953L330.053 17.4769C330.124 18.1268 330.345 18.8279 330.546 19.0327C330.743 19.2375 330.909 19.5487 330.909 19.722C330.909 19.8953 327.801 20.0371 324.007 20.0371C319.964 20.0371 317.105 20.1907 317.105 20.4073C317.105 20.6122 316.438 20.8327 315.626 20.8997C314.175 21.0178 314.143 21.0572 314.025 22.7942C313.954 23.7671 313.733 24.736 313.532 24.9408C313.327 25.1457 313.161 26.0831 313.161 27.0205C313.161 28.1745 312.968 28.8008 312.569 28.9544C312.171 29.108 311.978 29.7343 311.978 30.8883C311.978 31.8257 311.8 32.7041 311.583 32.838C311.366 32.9719 311.189 33.9566 311.189 35.0279V36.9737H315.527H319.866V38.6989C319.866 39.7426 320.098 40.6131 320.453 40.9085C321.558 41.8223 320.607 42.094 316.292 42.094C313.678 42.094 311.978 42.2477 311.978 42.4879C311.978 42.7045 311.355 42.8818 310.597 42.8818C309.229 42.8818 309.217 42.8975 309.217 44.607C309.217 45.6586 308.988 46.5212 308.625 46.8205C308.27 47.1159 308.034 47.9785 308.034 48.9868C308.034 49.9952 307.797 50.8577 307.442 51.1532C306.839 51.6534 306.657 53.347 307.091 54.4696C307.434 55.3676 316.616 55.3991 316.963 54.5011C317.409 53.3431 317.894 53.9378 317.894 55.6354C317.894 56.6989 318.123 57.5497 318.497 57.8569C319.034 58.302 319.026 58.4359 318.434 59.0858C317.854 59.7278 317.136 59.8184 312.585 59.8184C308.98 59.8184 307.245 59.6687 306.882 59.326C306.464 58.9322 306.322 58.9322 306.176 59.326C305.88 60.1295 302.362 59.9562 301.585 59.0976ZM331.106 59.4245C330.972 59.2079 330.546 59.0306 330.16 59.0306C329.095 59.0306 327.888 57.5576 328.472 56.9746C328.728 56.7186 328.937 56.2105 328.937 55.8442C328.937 55.4779 329.201 55.0722 329.529 54.9501C329.974 54.7768 330.12 54.056 330.12 51.9764C330.12 50.4678 330.298 49.1208 330.515 48.9868C330.731 48.8529 330.909 47.8013 330.909 46.6472C330.909 45.2687 331.11 44.3864 331.501 44.0634C331.859 43.768 332.092 42.9054 332.092 41.8735C332.092 40.9361 332.27 40.0617 332.487 39.9277C332.703 39.7938 332.881 38.7422 332.881 37.5881C332.881 36.2096 333.082 35.3273 333.473 35.0043C333.863 34.6813 334.064 33.7991 334.064 32.4205C334.064 31.2664 334.242 30.2148 334.459 30.0809C334.675 29.947 334.853 29.3365 334.853 28.726C334.853 28.1155 335.117 27.3947 335.445 27.1268C335.799 26.8314 336.036 25.9688 336.036 24.9605C336.036 23.9522 336.273 23.0896 336.628 22.7942C336.963 22.5146 337.219 21.6559 337.219 20.8012C337.219 19.9741 337.397 19.1863 337.614 19.0524C337.831 18.9185 338.008 18.1977 338.008 17.4533C338.008 16.3426 338.158 16.0984 338.828 16.0984C339.278 16.0984 340.165 16.6183 340.8 17.2485C341.739 18.1859 341.952 18.7373 341.952 20.2025C341.952 21.1951 341.775 22.0065 341.558 22.0065C341.341 22.0065 341.163 22.7824 341.163 23.7316C341.163 24.7833 340.935 25.6459 340.572 25.9452C340.181 26.2682 339.98 27.1505 339.98 28.529C339.98 29.6831 339.803 30.7347 339.586 30.8686C339.369 31.0026 339.191 31.9045 339.191 32.8735C339.191 34.0748 339.002 34.7089 338.6 34.8625C338.166 35.028 338.008 35.7054 338.008 37.3872C338.008 38.6516 337.831 39.7938 337.614 39.9277C337.397 40.0617 337.219 41.1133 337.219 42.2674C337.219 43.6459 337.018 44.5282 336.628 44.8512C336.237 45.1741 336.036 46.0525 336.036 47.4113C336.036 48.7702 335.835 49.6485 335.445 49.9715C335.026 50.3181 334.853 51.2398 334.853 53.1462C334.853 54.6232 334.675 55.9427 334.459 56.0766C334.242 56.2105 334.064 57.1085 334.064 58.0696C334.064 59.7987 334.048 59.8184 332.707 59.8184C331.962 59.8184 331.24 59.6411 331.106 59.4245ZM242.248 57.7309C240.883 56.3287 240.639 55.3085 241.577 54.9501C241.98 54.7965 242.169 54.1624 242.169 52.961C242.169 51.9921 242.347 51.0901 242.563 50.9562C242.78 50.8223 242.958 49.6801 242.958 48.4157C242.958 46.7339 243.116 46.0564 243.549 45.891C243.983 45.7216 244.141 45.0363 244.141 43.2875C244.141 41.968 244.315 40.9124 244.535 40.9124C244.752 40.9124 244.93 40.1365 244.93 39.1873C244.93 38.1356 245.159 37.273 245.521 36.9737C245.912 36.6507 246.113 35.7684 246.113 34.3899C246.113 33.2358 246.291 32.1842 246.507 32.0503C246.724 31.9163 246.902 31.0419 246.902 30.1045C246.902 29.0726 247.135 28.21 247.493 27.9146C247.884 27.5916 248.085 26.7093 248.085 25.3308C248.085 24.1767 248.263 23.1251 248.479 22.9912C248.696 22.8572 248.874 21.9553 248.874 20.9863C248.874 19.785 249.063 19.1509 249.465 18.9973C249.832 18.8594 250.057 18.2607 250.057 17.4336C250.057 16.2717 250.183 16.0984 251.043 16.0984C251.587 16.0984 252.029 16.2756 252.029 16.4922C252.029 16.7089 252.356 16.8861 252.759 16.8861C253.835 16.8861 255.054 18.3552 254.466 18.9421C254.21 19.1981 254.001 20.4349 254.001 21.6914C254.001 22.9518 253.824 23.9758 253.607 23.9758C253.39 23.9758 253.212 24.7518 253.212 25.701C253.212 26.7527 252.984 27.6152 252.621 27.9146C252.278 28.1982 252.029 29.0568 252.029 29.9588C252.029 30.8174 251.765 31.7824 251.437 32.1054C251.059 32.4875 250.846 33.4603 250.846 34.8349C250.846 36.0126 250.668 36.9737 250.451 36.9737C250.235 36.9737 250.057 37.8402 250.057 38.8997C250.057 40.2507 249.88 40.8967 249.465 41.0542C249.032 41.2236 248.874 41.9089 248.874 43.6577C248.874 44.9772 248.7 46.0328 248.479 46.0328C248.255 46.0328 248.085 47.1711 248.085 48.6599C248.085 50.5308 247.9 51.4919 247.446 51.9921C247.095 52.382 246.91 52.9729 247.04 53.3037C247.237 53.8157 248.306 53.9103 253.966 53.9103C258.004 53.9103 260.757 53.7527 260.903 53.5164C261.349 52.7995 263.072 53.0556 263.072 53.8433C263.072 54.2372 263.514 54.9777 264.058 55.4858C265.237 56.5926 265.368 57.849 264.303 57.849C263.897 57.849 263.34 58.1129 263.072 58.4398C262.804 58.7667 262.094 59.0306 261.495 59.0306C260.895 59.0306 260.185 58.7667 259.917 58.4398C259.594 58.0499 258.714 57.849 257.346 57.849C255.863 57.849 255.204 58.0184 255.042 58.4398C254.853 58.9282 253.824 59.0306 249.162 59.0306H243.506L242.248 57.7309ZM152.321 37.8166C151.974 37.596 151.844 36.7964 151.927 35.3627L152.049 33.2319L156.734 33.1216C162.09 32.9916 162.895 33.3264 162.895 35.6542C162.895 36.8634 162.792 36.9737 161.684 36.9737C161.017 36.9737 160.205 37.2376 159.882 37.5645C159.227 38.2183 153.268 38.4153 152.321 37.8166ZM341.25 5.74734C339.381 3.85674 338.525 1.9189 339.558 1.9189C339.759 1.9189 339.98 1.52109 340.051 1.03662C340.205 -0.0268381 341.534 -0.385258 342.031 0.500959C342.228 0.847568 342.721 1.13115 343.131 1.13115C343.542 1.13115 343.987 1.30839 344.121 1.52502C344.255 1.74165 344.614 1.9189 344.918 1.9189C345.565 1.9189 347.868 4.06156 347.868 4.66419C347.868 4.88476 347.691 5.06989 347.474 5.06989C347.257 5.06989 347.079 5.39679 347.079 5.79854C347.079 6.84625 345.821 7.82701 344.472 7.82701C343.585 7.82701 342.808 7.32677 341.25 5.74734Z" fill="white"/>
</svg>
