<svg width="300" height="80" viewBox="0 0 300 80" fill="none" xmlns="http://www.w3.org/2000/svg">
<path d="M8.94724 79.3025C6.93715 78.1998 5.16333 75.7925 5.16333 74.1694C5.16333 73.7516 4.93048 73.214 4.64968 72.9811C4.3004 72.6901 4.13603 71.9127 4.13603 70.543C4.13603 69.4301 3.98193 68.5295 3.79359 68.5295C3.58471 68.5295 3.45116 66.944 3.45116 64.4613C3.45116 61.263 3.34158 60.3042 2.9375 59.9686C2.53343 59.633 2.42385 58.6742 2.42385 55.4964C2.42385 53.1678 2.28003 51.3598 2.08142 51.2365C1.89308 51.1201 1.73898 49.8188 1.73898 48.3463C1.73898 46.3842 1.60201 45.5555 1.22533 45.2439C0.828104 44.9117 0.711676 43.9906 0.711676 41.121C0.711676 38.4705 0.591824 37.385 0.283632 37.2823C-0.0416813 37.1727 -0.0211351 36.9878 0.369241 36.5118C0.759617 36.0358 0.780163 35.8509 0.45485 35.7413C-0.0930465 35.5598 -0.175231 16.4793 0.369241 16.4793C0.581551 16.4793 0.711676 14.5514 0.711676 11.3805C0.711676 7.16167 0.800709 6.24394 1.22533 6.08299C1.57461 5.94944 1.73898 5.39812 1.73898 4.3537C1.73898 3.51131 1.89308 2.72713 2.08142 2.6107C2.26976 2.49427 2.42385 2.17581 2.42385 1.90529C2.42385 1.63476 2.73204 1.10399 3.10872 0.727309C3.98193 -0.145901 7.90281 -0.269177 8.58768 0.556092C8.82054 0.836888 9.30337 1.06974 9.65608 1.06974C10.0122 1.06974 10.2999 1.22384 10.2999 1.41218C10.2999 1.60052 10.6697 1.75461 11.1183 1.75461C11.5703 1.75461 12.0292 1.98747 12.1353 2.26827C12.2449 2.54906 12.6353 2.78192 13.0085 2.78192C13.3784 2.78192 13.779 2.93602 13.8954 3.12436C14.0119 3.31269 14.3235 3.46679 14.5872 3.46679C15.1864 3.46679 17.1486 5.34676 17.1486 5.9152C17.1486 6.14463 17.4705 6.67541 17.8643 7.0966C18.5697 7.84654 18.5902 7.84654 19.234 7.20276C19.6483 6.78841 19.888 6.07272 19.888 5.24745C19.888 4.22015 20.1312 3.70992 21.0249 2.84356L22.1618 1.74092L23.3946 3.11751C24.076 3.87429 24.8499 4.4941 25.117 4.4941C26.3019 4.4941 27.3463 7.15824 26.3943 7.74723C26.206 7.86366 26.0519 8.77796 26.0519 9.7813C26.0519 10.9798 25.8772 11.7469 25.5382 12.0277C24.7746 12.6612 24.8088 18.4141 25.5793 19.2633C25.8944 19.6126 26.0382 20.1263 25.9149 20.4516C25.7129 20.9824 25.6512 20.9823 25.0759 20.4653C24.7369 20.1571 24.237 19.9037 23.9664 19.9037C23.6959 19.9037 23.1857 19.5202 22.833 19.0476C22.3707 18.4312 21.8673 18.1915 21.0386 18.1915C20.4051 18.1915 19.888 18.0374 19.888 17.8491C19.888 17.6607 19.6004 17.5066 19.2443 17.5066C18.8916 17.5066 18.4087 17.2738 18.1759 16.993C17.943 16.7122 17.5389 16.4793 17.2821 16.4793C16.5801 16.4793 15.4364 15.3835 15.4364 14.7124C15.4364 14.387 15.2823 14.0275 15.094 13.9111C14.9056 13.7946 14.7515 13.2741 14.7515 12.7536C14.7515 12.1852 14.4091 11.4832 13.8954 11.0004C13.4229 10.5586 13.0393 9.91142 13.0393 9.55871C13.0393 9.20943 12.8065 8.83617 12.5257 8.72659C12.2449 8.62044 12.012 8.26773 12.012 7.94927C12.012 7.10003 9.77594 5.04542 9.12531 5.29539C8.70754 5.45291 8.58768 6.03506 8.58768 7.86708C8.58768 9.55186 8.44044 10.3532 8.07403 10.6579C7.63229 11.0243 7.56038 13.0344 7.56038 24.869C7.56038 36.7035 7.63229 38.7136 8.07403 39.08C8.46098 39.4019 8.58768 40.2649 8.58768 42.5695C8.58768 44.8398 8.72123 45.7678 9.10134 46.1479C9.47117 46.5177 9.61499 47.4218 9.61499 49.3771C9.61499 50.9591 9.75881 52.0926 9.95743 52.0926C10.1663 52.0926 10.2999 53.5616 10.2999 55.8183C10.2999 58.7119 10.4129 59.6364 10.8135 59.9686C11.2107 60.2973 11.3272 61.2048 11.3272 63.9271C11.3272 65.9133 11.4778 67.5535 11.6696 67.6734C11.8579 67.7898 12.012 68.7829 12.012 69.8821C12.012 71.3443 12.149 71.9333 12.5257 72.0771C12.8065 72.1867 13.0393 72.5771 13.0393 72.9503C13.0393 73.3201 13.1934 73.7208 13.3818 73.8372C13.5701 73.9536 13.7242 74.3474 13.7242 74.7138C13.7242 75.0803 13.8783 75.3782 14.0666 75.3782C14.5906 75.3782 18.1759 71.6456 18.1759 71.1046C18.1759 70.8409 18.33 70.5293 18.5183 70.4129C18.7066 70.2964 18.8607 69.8958 18.8607 69.526C18.8607 69.1527 19.0936 68.7623 19.3744 68.6527C19.7339 68.5158 19.888 67.9542 19.888 66.7796C19.888 65.8585 20.0421 65.1051 20.2305 65.1051C20.4188 65.1051 20.5729 64.2696 20.5729 63.2457C20.5729 62.0506 20.7578 61.2048 21.0866 60.8726C21.5146 60.4446 21.6002 58.9858 21.6002 52.1166C21.6002 44.3296 21.5626 43.8365 20.9154 43.1893C20.5387 42.8126 20.0079 42.5044 19.7374 42.5044C19.4668 42.5044 19.1484 42.3503 19.032 42.162C18.9155 41.9736 18.0012 41.8195 16.9979 41.8195C15.7994 41.8195 15.0323 41.6449 14.7515 41.3059C14.4913 40.9908 13.7413 40.7922 12.827 40.7922C11.3409 40.7922 11.3272 40.7819 11.3272 39.5937C11.3272 38.4397 11.7415 38.0253 12.1833 38.7376C12.4504 39.1725 15.8747 39.1896 16.3096 38.7582C16.7924 38.2787 23.6206 38.224 24.0897 38.6931C24.302 38.9054 25.117 39.08 25.8978 39.08C27.8051 39.08 28.4489 39.83 28.4489 42.0627C28.4489 43.179 28.6304 43.9392 28.9626 44.2166C29.3906 44.5693 29.4762 45.85 29.4762 51.757C29.4762 57.7633 29.3975 58.9002 28.9626 59.0646C28.5482 59.2255 28.4489 59.9994 28.4489 63.0402C28.4489 65.3311 28.3154 66.8173 28.1065 66.8173C27.9181 66.8173 27.7641 67.3618 27.7641 68.0261C27.7641 68.7863 27.5723 69.3102 27.2504 69.4335C26.9662 69.5431 26.7367 70.0499 26.7367 70.567C26.7367 71.5429 25.9046 73.5051 25.3465 73.8509C25.1684 73.9605 25.0246 74.3132 25.0246 74.6385C25.0246 75.4021 21.2475 79.145 20.477 79.145C20.1517 79.145 19.888 79.2991 19.888 79.4874C19.888 80.0319 9.97455 79.8641 8.94724 79.3025ZM52.0769 78.6313C51.7859 78.282 51.0086 78.1177 49.6388 78.1177C48.5259 78.1177 47.6253 77.9636 47.6253 77.7752C47.6253 77.5869 47.1835 77.4328 46.6391 77.4328C46.098 77.4328 45.4611 77.2034 45.2282 76.9191C44.9954 76.6349 44.5434 76.4055 44.2249 76.4055C43.4853 76.4055 41.4615 74.3269 41.4615 73.5633C41.4615 73.2448 41.3074 72.9811 41.119 72.9811C40.9307 72.9811 40.7766 72.6935 40.7766 72.3373C40.7766 71.9846 40.5472 71.5018 40.2629 71.269C39.9787 71.0361 39.7493 70.4094 39.7493 69.8787C39.7493 69.3479 39.5952 68.8171 39.4068 68.7007C39.2185 68.5843 39.0644 67.8241 39.0644 67.0091C39.0644 66.1119 38.8624 65.3619 38.5508 65.1051C38.2357 64.8449 38.0371 64.0949 38.0371 63.1806C38.0371 62.3554 37.883 61.6808 37.6947 61.6808C37.5029 61.6808 37.3522 60.763 37.3522 59.6159C37.3522 58.0955 37.2153 57.4996 36.8386 57.3524C36.4311 57.1949 36.3249 56.4621 36.3249 53.7671C36.3249 51.7365 36.188 50.3804 35.9825 50.3804C35.7668 50.3804 35.6401 48.045 35.6401 44.0625C35.6401 38.4294 35.575 37.7069 35.0476 37.4124C34.4861 37.1008 34.4895 37.046 35.0545 36.4193C35.6401 35.7721 35.551 34.6284 34.9175 34.6284C34.7497 34.6284 34.6128 32.1834 34.6128 29.1905C34.6128 24.7765 34.7086 23.6739 35.1264 23.328C35.5236 22.9993 35.6401 22.0918 35.6401 19.3695C35.6401 17.3834 35.7907 15.7431 35.9825 15.6232C36.1708 15.5068 36.3249 14.3597 36.3249 13.0755C36.3249 11.4181 36.4756 10.6168 36.8386 10.3155C37.1228 10.0826 37.3522 9.45598 37.3522 8.92521C37.3522 8.39443 37.5063 7.86366 37.6947 7.74723C37.883 7.6308 38.0371 7.1103 38.0371 6.5898C38.0371 6.02135 38.3795 5.31936 38.8932 4.83653C39.3658 4.39479 39.7493 3.82635 39.7493 3.57979C39.7493 2.97368 40.9923 1.75461 41.6121 1.75461C41.8827 1.75461 42.2011 1.60052 42.3175 1.41218C42.434 1.22384 42.9305 1.06974 43.4236 1.06974C43.9167 1.06974 44.5776 0.833464 44.8961 0.545819C45.4132 0.0801071 45.5159 0.0801071 45.9063 0.545819C46.1734 0.871132 46.913 1.06974 47.8376 1.06974C48.6629 1.06974 49.3375 1.22384 49.3375 1.41218C49.3375 1.60052 49.7073 1.75461 50.1559 1.75461C50.6079 1.75461 51.0668 1.98747 51.1729 2.26827C51.2825 2.54906 51.6729 2.78192 52.0461 2.78192C52.416 2.78192 52.8166 2.93602 52.933 3.12436C53.0495 3.31269 53.4261 3.46679 53.772 3.46679C54.1179 3.46679 54.4911 3.69965 54.5973 3.98044C54.7068 4.26124 55.063 4.4941 55.3917 4.4941C56.056 4.4941 58.9257 7.15139 58.9257 7.76435C58.9257 8.29855 59.9221 10.2573 60.3159 10.5004C60.494 10.61 60.6378 11.1613 60.6378 11.7298C60.6378 12.2982 60.8673 12.9933 61.1515 13.2741C61.4357 13.5584 61.6651 14.3836 61.6651 15.113C61.6651 15.8424 61.8192 16.5341 62.0076 16.6505C62.2096 16.7772 62.35 18.8661 62.35 21.7665C62.35 25.7045 62.4493 26.7524 62.8637 27.0948C63.2917 27.4509 63.3773 28.8104 63.3773 35.3646C63.3773 42.0216 63.2985 43.2406 62.8637 43.4084C62.439 43.5694 62.35 44.4871 62.35 48.7059C62.35 51.8768 62.2199 53.8048 62.0076 53.8048C61.8124 53.8048 61.6651 54.8184 61.6651 56.1607C61.6651 57.8352 61.5179 58.6365 61.1515 58.9413C60.8022 59.2289 60.6378 60.0063 60.6378 61.3452C60.6378 62.7834 60.4974 63.3724 60.1242 63.5162C59.7749 63.6498 59.6105 64.2011 59.6105 65.2455C59.6105 66.0879 59.4564 66.8721 59.2681 66.9885C59.0797 67.1049 58.9257 67.6357 58.9257 68.1665C58.9257 68.6973 58.6962 69.3239 58.412 69.5568C58.1278 69.7896 57.8983 70.4163 57.8983 70.9471C57.8983 71.4778 57.7442 72.0086 57.5559 72.125C57.3676 72.2415 57.2135 72.7722 57.2135 73.303C57.2135 73.8338 56.984 74.4604 56.6998 74.6933C56.4156 74.9262 56.1862 75.409 56.1862 75.7617C56.1862 76.1178 56.0321 76.4055 55.8437 76.4055C55.6554 76.4055 55.5013 76.6863 55.5013 77.0321C55.5013 77.854 54.1042 79.145 53.2104 79.145C52.82 79.145 52.3098 78.9155 52.0769 78.6313ZM49.3375 71.9709C49.3375 71.6251 49.5669 71.2518 49.8511 71.1457C50.173 71.0224 50.3648 70.4985 50.3648 69.7383C50.3648 69.0739 50.5189 68.5295 50.7072 68.5295C50.8955 68.5295 51.0496 68.0055 51.0496 67.3686C51.0496 66.6495 51.2448 66.129 51.5633 66.0092C51.9126 65.8756 52.0769 65.3243 52.0769 64.2798C52.0769 63.4375 52.231 62.6533 52.4194 62.5369C52.6077 62.4204 52.7618 61.6602 52.7618 60.8452C52.7618 59.948 52.9639 59.1981 53.2755 58.9413C53.6419 58.6365 53.7891 57.8352 53.7891 56.1607C53.7891 54.8184 53.9364 53.8048 54.1316 53.8048C54.3439 53.8048 54.474 52.0309 54.474 49.1716C54.474 45.3672 54.5665 44.5008 54.9876 44.3398C55.4294 44.1721 55.5013 42.5044 55.5013 32.2382C55.5013 22.0713 55.426 20.2667 54.9876 19.9037C54.6144 19.5921 54.474 18.7668 54.474 16.8492C54.474 15.4007 54.3302 14.072 54.1589 13.8939C53.9843 13.7159 53.7925 13.1063 53.7309 12.5447C53.6556 11.8633 53.3987 11.4798 52.9707 11.3976C52.6146 11.3291 51.9811 10.9045 51.5599 10.4525C51.1421 10.0005 50.5908 9.63062 50.3374 9.63062C50.084 9.63062 49.2279 8.99369 48.4334 8.21294C46.937 6.74389 45.9131 6.6035 45.9131 7.87051C45.9131 8.23349 45.6837 8.62044 45.3995 8.72659C45.1152 8.83617 44.8858 9.22655 44.8858 9.5998C44.8858 9.96963 44.7317 10.3703 44.5434 10.4867C44.355 10.6031 44.2009 11.3873 44.2009 12.2297C44.2009 13.2741 44.0366 13.8255 43.6873 13.959C43.2935 14.1097 43.1736 14.7535 43.1736 16.6882C43.1736 18.147 43.0298 19.2188 42.8312 19.2188C42.6086 19.2188 42.4888 23.328 42.4888 30.8616C42.4888 38.3952 42.6086 42.5044 42.8312 42.5044C43.0435 42.5044 43.1736 44.2611 43.1736 47.0862C43.1736 50.74 43.2764 51.7536 43.6873 52.0926C44.064 52.4042 44.2009 53.2329 44.2009 55.195C44.2009 56.6675 44.355 57.9688 44.5434 58.0852C44.7317 58.2016 44.8858 58.9618 44.8858 59.7768C44.8858 60.674 45.0878 61.4239 45.3995 61.6808C45.7145 61.941 45.9131 62.6909 45.9131 63.6052C45.9131 64.4305 46.0672 65.1051 46.2556 65.1051C46.4439 65.1051 46.598 65.7797 46.598 66.605C46.598 67.5193 46.7966 68.2692 47.1116 68.5295C47.3959 68.7623 47.6253 69.1801 47.6253 69.4506C47.6253 69.7246 47.8547 70.18 48.1389 70.4608C48.4232 70.745 48.6526 71.4367 48.6526 71.9983C48.6526 72.5942 48.7964 72.9332 48.995 72.8099C49.1834 72.6935 49.3375 72.3168 49.3375 71.9709ZM135.289 78.6313C135.028 78.3163 134.279 78.1177 133.364 78.1177C132.539 78.1177 131.864 77.9636 131.864 77.7752C131.864 77.5869 131.635 77.4328 131.351 77.4328C131.066 77.4328 130.837 77.5869 130.837 77.7752C130.837 77.9841 129.183 78.1177 126.557 78.1177C122.434 78.1177 122.276 78.0903 122.276 77.3951C122.276 77.0013 122.66 76.3712 123.132 76.0014L123.988 75.3268V63.9237C123.988 54.2054 123.913 52.4556 123.475 52.0926C123.033 51.7262 122.961 49.4832 122.961 35.7858C122.961 25.2388 122.845 19.9037 122.612 19.9037C122.382 19.9037 122.297 17.1197 122.355 11.7708L122.447 3.63801L123.848 3.53528C124.793 3.46679 125.389 3.60376 125.687 3.96332C126.06 4.41191 127.238 4.4941 133.275 4.4941C137.812 4.4941 140.425 4.6208 140.425 4.83653C140.425 5.02487 141.326 5.17897 142.439 5.17897C143.808 5.17897 144.586 5.34333 144.877 5.69262C145.158 6.03163 145.925 6.20627 147.123 6.20627C148.127 6.20627 149.041 6.36037 149.157 6.54871C149.274 6.73705 149.592 6.89114 149.87 6.89114C150.774 6.89114 152.753 9.26079 152.753 10.3463C152.753 10.8942 152.907 11.3428 153.095 11.3428C153.284 11.3428 153.438 11.8633 153.438 12.5002C153.438 13.1372 153.667 13.8494 153.951 14.0823C154.373 14.4316 154.465 15.6061 154.465 20.6399C154.465 25.7764 154.383 26.8072 153.951 26.9715C153.575 27.1154 153.438 27.7078 153.438 29.1871C153.438 30.3034 153.284 31.204 153.095 31.204C152.907 31.204 152.753 31.6903 152.753 32.2827C152.753 33.1046 152.414 33.6867 151.349 34.7003C149.993 35.9913 149.965 36.0598 150.544 36.7035C150.876 37.07 151.4 37.3679 151.712 37.3679C152.445 37.3679 154.465 39.4533 154.465 40.2101C154.465 40.5285 154.619 40.7922 154.807 40.7922C154.996 40.7922 155.15 41.1621 155.15 41.6106C155.15 42.0627 155.379 42.5215 155.664 42.6277C156.051 42.7783 156.177 43.405 156.177 45.2131C156.177 46.5246 156.331 47.6957 156.52 47.8121C156.729 47.9423 156.862 50.7776 156.862 55.1745C156.862 59.5714 156.729 62.4067 156.52 62.5369C156.331 62.6533 156.177 63.8244 156.177 65.1359C156.177 66.944 156.051 67.5707 155.664 67.7213C155.345 67.8412 155.15 68.3617 155.15 69.0808C155.15 69.7177 154.996 70.2416 154.807 70.2416C154.619 70.2416 154.465 70.519 154.465 70.858C154.465 71.197 153.849 72.0737 153.095 72.8099C152.342 73.5461 151.726 74.4125 151.726 74.7378C151.726 75.0905 151.414 75.3747 150.955 75.4398C150.459 75.5117 150.147 75.8233 150.075 76.3199C150.01 76.789 149.654 77.1657 149.168 77.289C148.726 77.402 148.017 77.8642 147.589 78.3163C146.829 79.1278 146.688 79.145 141.264 79.145C136.751 79.145 135.635 79.0491 135.289 78.6313ZM140.812 75.5734C141.172 75.1145 141.809 74.6899 142.226 74.6317C142.658 74.57 143.041 74.231 143.113 73.8475C143.185 73.4777 144.151 72.2894 145.26 71.2039C146.366 70.1184 147.274 69.0157 147.274 68.752C147.274 68.4884 147.503 68.0775 147.788 67.8446C148.099 67.5878 148.301 66.8378 148.301 65.9407C148.301 65.1257 148.455 64.3655 148.644 64.249C148.859 64.1155 148.986 60.5439 148.986 54.6608C148.986 48.7778 148.859 45.2062 148.644 45.0727C148.455 44.9562 148.301 44.1926 148.301 43.3776C148.301 42.3743 148.133 41.8298 147.788 41.6963C147.503 41.5867 147.274 41.2374 147.274 40.9155C147.274 40.5936 147.021 40.0491 146.709 39.7067C146.199 39.1417 145.51 39.08 139.888 39.08C136.422 39.08 133.583 38.9396 133.518 38.7684C133.457 38.5938 132.71 38.4055 131.864 38.3438L130.323 38.2342L130.217 39.7307C130.156 40.5525 130.272 41.3915 130.474 41.5935C130.714 41.8332 130.837 45.2404 130.837 51.6063C130.837 59.7631 130.916 61.3212 131.351 61.6808C131.727 61.9924 131.864 62.8245 131.864 64.814C131.864 66.9063 131.748 67.5672 131.351 67.7213C130.95 67.8754 130.837 68.5534 130.837 70.793C130.837 73.3749 130.902 73.666 131.481 73.666C131.834 73.666 132.316 73.8954 132.549 74.1796C132.782 74.4639 133.409 74.6933 133.939 74.6933C134.47 74.6933 135.001 74.8474 135.117 75.0357C135.234 75.2241 135.994 75.3782 136.809 75.3782C137.706 75.3782 138.456 75.5802 138.713 75.8918C139.329 76.6349 140.062 76.5253 140.812 75.5734ZM131.864 35.9981C131.864 35.7927 133.162 35.6557 135.076 35.6557C137.511 35.6557 138.391 35.5324 138.713 35.142C138.946 34.8578 139.573 34.6284 140.103 34.6284C140.634 34.6284 141.165 34.4743 141.281 34.286C141.398 34.0976 141.747 33.9435 142.055 33.9435C142.812 33.9435 144.877 31.906 144.877 31.1561C144.877 30.8274 145.031 30.4644 145.219 30.3479C145.408 30.2315 145.562 29.8548 145.562 29.509C145.562 29.1631 145.791 28.7899 146.075 28.6837C146.51 28.5159 146.589 27.2729 146.589 20.4173C146.589 13.5618 146.51 12.3187 146.075 12.1509C145.777 12.0379 145.562 11.5243 145.562 10.9387C145.562 10.271 145.219 9.57583 144.562 8.91836C143.603 7.96296 143.425 7.91845 140.494 7.91845C138.186 7.91845 137.323 7.79175 137.001 7.40479C136.717 7.06236 135.95 6.89114 134.724 6.89114C133.392 6.89114 132.816 7.03496 132.672 7.40479C132.536 7.76435 131.974 7.91845 130.799 7.91845H129.125V9.41831C129.125 10.3326 129.323 11.0825 129.639 11.3428C130.077 11.7058 130.152 13.5515 130.152 24.054V36.3406H131.008C131.481 36.3406 131.864 36.1865 131.864 35.9981ZM176.038 78.6313C175.806 78.3471 175.189 78.1177 174.669 78.1177C174.148 78.1177 173.556 77.9122 173.347 77.6622C172.946 77.176 171.032 77.289 170.707 77.8163C170.604 77.9807 168.834 78.1177 166.772 78.1177H163.026V74.7207C163.026 72.5805 163.163 71.2792 163.399 71.2005C163.629 71.1251 163.769 69.8958 163.769 67.9371C163.769 65.6496 163.903 64.6873 164.255 64.3963C164.981 63.7902 164.95 55.3354 164.214 54.6026C163.769 54.154 163.697 52.5309 163.721 43.2783C163.738 36.1248 163.625 32.3512 163.385 32.1115C163.156 31.8821 163.026 28.9097 163.026 23.7732C163.026 18.6812 162.903 15.7945 162.684 15.7945C162.19 15.7945 162.262 14.8528 162.769 14.6747C163.081 14.5651 163.033 14.3391 162.584 13.8357C162.067 13.2502 161.988 12.6167 162.071 9.76075L162.17 6.37749L163.242 6.27476C163.831 6.21654 164.666 5.79192 165.098 5.33306C165.557 4.84338 166.272 4.4941 166.81 4.4941C167.32 4.4941 167.93 4.26124 168.162 3.98044C168.71 3.31954 169.745 3.31954 169.998 3.98044C170.149 4.36739 170.775 4.4941 172.583 4.4941C173.895 4.4941 175.066 4.64819 175.182 4.83653C175.299 5.02487 176.833 5.17897 178.607 5.17897C180.381 5.17897 181.915 5.02487 182.031 4.83653C182.148 4.64819 183.534 4.4941 185.113 4.4941C186.692 4.4941 188.079 4.64819 188.195 4.83653C188.311 5.02487 189.092 5.17897 189.928 5.17897C190.763 5.17897 191.448 5.33306 191.448 5.52482C191.448 5.71316 191.006 6.32955 190.469 6.89456C189.787 7.60683 189.164 7.91845 188.414 7.91845C187.822 7.91845 187.339 8.07254 187.339 8.26088C187.339 8.46292 186.082 8.60332 184.257 8.60332C182.432 8.60332 181.175 8.46292 181.175 8.26088C181.175 8.06912 180.257 7.91845 179.11 7.91845C177.59 7.91845 176.994 7.78147 176.847 7.40479C176.716 7.06236 176.175 6.89114 175.223 6.89114C173.73 6.89114 172.796 7.57259 172.556 8.8259C172.491 9.17518 172.09 9.50735 171.669 9.56899C171.248 9.63063 170.902 9.82239 170.902 9.99703C170.902 10.1717 170.59 10.3155 170.207 10.3155C169.334 10.3155 168.953 11.2298 169.477 12.0688C169.738 12.4831 169.875 14.6576 169.875 18.3148C169.875 22.8863 169.971 24.0095 170.388 24.3553C170.816 24.708 170.902 25.9922 170.902 31.93C170.902 36.4673 171.029 39.08 171.244 39.08C171.433 39.08 171.587 38.926 171.587 38.7376C171.587 38.5185 174.391 38.3952 179.316 38.3952C187.548 38.3952 188.024 38.4876 188.024 40.0834C188.024 40.7682 187.852 40.7922 183.099 40.7922C179.052 40.7922 178.097 40.8881 177.734 41.3264C177.329 41.8127 177.261 41.8127 176.99 41.3264C176.61 40.6484 175.566 40.6381 175.011 41.3059C174.778 41.5901 174.237 41.8195 173.813 41.8195C173.388 41.8195 172.847 41.5901 172.614 41.3059C172.381 41.0217 171.898 40.7922 171.546 40.7922C170.988 40.7922 170.902 41.0662 170.902 42.8263C170.902 43.9461 171.056 44.9562 171.244 45.0727C171.464 45.2062 171.587 49.6339 171.587 57.2291C171.587 64.8243 171.464 69.252 171.244 69.3856C171.056 69.502 170.902 70.5122 170.902 71.6319V73.666H172.744C173.963 73.666 174.73 73.8406 175.011 74.1796C175.244 74.4639 175.984 74.6933 176.651 74.6933C177.922 74.6933 180.49 75.6521 180.49 76.1281C180.49 76.2822 181.333 76.4055 182.36 76.4055C184.161 76.4055 184.291 76.3404 186.096 74.5529C187.12 73.5324 188.017 72.4161 188.082 72.0702C188.188 71.5189 188.613 71.4265 191.41 71.3409C194.04 71.2587 194.732 71.3477 195.259 71.8237C195.951 72.4503 196.109 73.4982 195.557 73.8372C195.369 73.9536 195.215 74.2653 195.215 74.5255C195.215 75.1179 192.215 78.1177 191.623 78.1177C191.383 78.1177 190.996 78.3471 190.763 78.6313C190.41 79.0559 189.147 79.145 183.401 79.145C177.655 79.145 176.391 79.0559 176.038 78.6313ZM290.631 78.6313C290.309 78.3094 289.467 78.1177 288.364 78.1177C286.755 78.1177 286.491 77.9944 285.087 76.6144L283.563 75.1111V68.0946C283.563 62.2766 283.652 61.0062 284.077 60.6535C284.481 60.3179 284.59 59.3591 284.59 56.1607C284.59 53.6781 284.724 52.0926 284.933 52.0926C285.142 52.0926 285.275 50.4386 285.275 47.8121V43.5317H284.419C283.947 43.5317 283.563 43.6858 283.563 43.8741C283.563 44.0625 283.275 44.2166 282.919 44.2166C282.567 44.2166 282.084 44.4494 281.848 44.7337C281.464 45.1959 281.375 45.1925 281.029 44.72C280.717 44.2919 280.015 44.2063 277.392 44.2885L274.146 44.3878L274.054 51.5687C273.999 55.6642 273.817 58.8933 273.626 59.0851C273.434 59.2769 273.29 61.8623 273.29 65.1325C273.29 69.7896 273.194 70.9197 272.776 71.269C272.41 71.5737 272.263 72.375 272.263 74.0495V76.4055H268.979C265.993 76.4055 265.637 76.337 265.051 75.635C264.27 74.6967 264.216 74.0529 264.9 73.7893C265.315 73.6317 265.414 72.8647 265.414 69.8821C265.414 67.7795 265.561 66.0811 265.756 65.9612C265.969 65.8311 266.099 62.7766 266.099 57.9345C266.099 51.4077 266.185 50.0517 266.613 49.6955C267.041 49.3394 267.126 47.9662 267.126 41.3059C267.126 34.6455 267.212 33.2723 267.64 32.9162C268.061 32.5669 268.154 31.3718 268.154 26.1976C268.154 22.2288 268.28 19.9037 268.496 19.9037C268.684 19.9037 268.838 19.2291 268.838 18.4038C268.838 17.4895 269.037 16.7396 269.352 16.4793C269.636 16.2465 269.866 15.6198 269.866 15.089C269.866 14.5583 270.02 14.0275 270.208 13.9111C270.396 13.7946 270.551 13.4214 270.551 13.0824C270.551 12.7434 270.934 12.1783 271.407 11.8222C271.879 11.4695 272.263 10.9421 272.263 10.6511C272.263 9.93196 275.389 6.89114 276.125 6.89114C276.451 6.89114 276.714 6.73705 276.714 6.54871C276.714 6.35694 277.632 6.20627 278.779 6.20627C280.3 6.20627 280.896 6.0693 281.043 5.69262C281.183 5.32621 281.755 5.17897 283.025 5.17897C284.491 5.17897 284.96 5.33306 285.618 6.03505C286.09 6.53843 286.803 6.89114 287.347 6.89114C287.857 6.89114 288.467 7.124 288.7 7.40479C288.933 7.68559 289.316 7.91845 289.545 7.91845C290.313 7.91845 292.124 8.99027 292.124 9.44228C292.124 9.68884 292.353 10.0826 292.638 10.3155C293.035 10.6442 293.151 11.5585 293.151 14.3186C293.151 17.0443 293.275 18.0203 293.665 18.4107C293.949 18.6949 294.179 19.4345 294.179 20.0578C294.179 20.681 293.949 21.383 293.665 21.6159C293.285 21.9309 293.151 22.7733 293.151 24.8758C293.151 27.0743 293.264 27.7489 293.665 27.903C293.949 28.0125 294.179 28.3173 294.179 28.5844C294.179 28.8481 293.949 29.259 293.665 29.4919C292.98 30.0603 292.901 38.9328 293.579 39.1794C293.922 39.3061 293.922 39.4293 293.579 39.7923C293.275 40.1142 293.151 41.7887 293.151 45.6137C293.151 49.9661 293.055 51.0619 292.638 51.4077C292.24 51.7364 292.124 52.6439 292.124 55.3663C292.124 57.3524 291.973 58.9926 291.782 59.1125C291.573 59.2426 291.439 62.0677 291.439 66.4406C291.439 75.0939 291.227 74.6933 295.778 74.6933C298.336 74.6933 298.962 74.7995 299.432 75.32C299.747 75.6624 300 76.1795 300 76.4637C300 77.0732 298.938 78.1177 298.322 78.1177C298.089 78.1177 297.665 78.3471 297.384 78.6313C297.007 79.0046 296.096 79.145 294.007 79.145C291.919 79.145 291.008 79.0046 290.631 78.6313ZM278.427 40.4498C278.427 40.2614 278.714 40.1074 279.07 40.1074C279.423 40.1074 279.906 39.8779 280.139 39.5937C280.372 39.3095 280.988 39.08 281.509 39.08C282.029 39.08 282.632 38.8643 282.847 38.6006C283.067 38.3404 283.546 38.2034 283.912 38.2993C284.279 38.3952 284.967 38.3746 285.44 38.2548L286.303 38.039V24.3862C286.303 12.0311 286.248 10.7093 285.741 10.5141C285.429 10.3977 284.916 10.5347 284.601 10.8223C284.282 11.1065 283.775 11.3428 283.474 11.3428C283.173 11.3428 282.618 11.7366 282.238 12.2194C281.598 13.0344 281.495 13.0618 280.759 12.5858C280.043 12.1236 279.892 12.1338 279.197 12.7057C278.772 13.0515 278.427 13.6405 278.427 14.0138C278.427 14.387 278.197 14.7843 277.913 14.8904C277.615 15.0034 277.399 15.5171 277.399 16.1061C277.399 16.6642 277.245 17.219 277.057 17.3354C276.869 17.4518 276.714 17.8285 276.714 18.171C276.714 18.5134 276.485 18.986 276.201 19.2188C275.834 19.5236 275.687 20.3249 275.687 21.9994C275.687 23.3417 275.54 24.3553 275.345 24.3553C275.126 24.3553 275.002 27.3242 275.002 32.5738V40.7922H276.714C277.656 40.7922 278.427 40.6381 278.427 40.4498ZM78.9581 77.7752C78.8417 77.5869 78.15 77.4328 77.4206 77.4328C76.6912 77.4328 75.8659 77.2034 75.5817 76.9191C75.2804 76.6144 74.4414 76.4055 73.5408 76.4055C72.4964 76.4055 71.9485 76.2411 71.8149 75.8918C71.7053 75.6076 71.315 75.3782 70.9417 75.3782C70.5719 75.3782 70.1712 75.2241 70.0548 75.0357C69.9384 74.8474 69.5617 74.6933 69.2158 74.6933C68.87 74.6933 68.4967 74.4639 68.3906 74.1796C68.2673 73.8578 67.7434 73.666 66.9831 73.666C65.8737 73.666 65.7744 73.5838 65.7744 72.6592C65.7744 71.6045 66.2572 71.0087 66.627 71.6045C66.7469 71.7963 67.3735 71.9538 68.0207 71.9538C68.9419 71.9538 69.1987 71.8134 69.1987 71.3169C69.1987 70.9676 69.5822 70.3923 70.0548 70.0362C70.6643 69.5807 70.9109 69.0705 70.9109 68.2658C70.9109 67.5809 71.1129 67.0604 71.4245 66.9406C71.8457 66.7796 71.9382 65.9201 71.9382 62.1773C71.9382 59.5029 72.0786 57.5236 72.2806 57.4003C72.5032 57.2634 72.6231 48.4354 72.6231 32.0396V6.89114H71.1335C69.5651 6.89114 68.5138 6.15833 68.5138 5.06596C68.5138 4.64477 68.8186 4.4941 69.6747 4.4941C70.3938 4.4941 70.9143 4.29891 71.0342 3.98044C71.1437 3.69965 71.5341 3.46679 71.9074 3.46679C72.2772 3.46679 72.6778 3.31269 72.7943 3.12436C72.9107 2.93602 73.4072 2.78192 73.9003 2.78192C74.3935 2.78192 75.0543 2.54564 75.3728 2.25799C75.8899 1.79228 75.9926 1.79228 76.383 2.25799C76.6706 2.60728 77.424 2.78192 78.6362 2.78192C79.6396 2.78192 80.5539 2.93602 80.6703 3.12436C80.7867 3.31269 81.1805 3.46679 81.5469 3.46679C82.516 3.46679 82.403 4.88105 81.3552 5.86384L80.4991 6.66856V14.6541C80.4991 19.753 80.3758 22.6432 80.1566 22.6432C79.6327 22.6432 79.7149 27.6872 80.2422 27.879C80.5847 28.0057 80.5847 28.129 80.2422 28.4919C79.9101 28.8447 79.8142 33.8853 79.8142 51.305V73.666H78.2938C77.4582 73.666 76.6775 73.8201 76.5611 74.0119C76.294 74.4399 77.1911 75.3782 77.8657 75.3782C78.1363 75.3782 78.554 75.6076 78.7869 75.8918C79.0197 76.176 79.5026 76.4055 79.8553 76.4055C80.3141 76.4055 80.4991 76.652 80.4991 77.2616C80.4991 77.8814 80.3141 78.1177 79.8347 78.1177C79.4683 78.1177 79.0745 77.9636 78.9581 77.7752ZM224.664 75.2275C224.664 73.6386 224.818 72.2415 225.007 72.125C225.198 72.0086 225.349 70.4094 225.349 68.5089C225.349 66.468 225.212 65.1051 225.007 65.1051C224.784 65.1051 224.664 61.287 224.664 54.339C224.664 47.5313 224.791 43.494 225.007 43.3605C225.555 43.0215 225.469 11.4455 224.921 11.2435C224.579 11.1168 224.579 10.9969 224.921 10.634C225.157 10.384 225.349 9.91142 225.349 9.5861C225.349 8.91151 223.582 7.91845 222.387 7.91845C221.51 7.91845 220.213 6.82608 220.213 6.08642C220.213 5.83644 220.524 5.34676 220.904 5.0009C221.435 4.51806 221.692 4.4667 222 4.7749C222.223 4.99748 223.051 5.17897 223.839 5.17897C224.801 5.17897 225.342 5.35018 225.472 5.69262C225.596 6.01451 226.12 6.20627 226.88 6.20627C227.544 6.20627 228.089 6.36037 228.089 6.54871C228.089 6.73705 228.619 6.89114 229.267 6.89114C229.914 6.89114 230.54 6.73705 230.657 6.54871C230.773 6.36037 231.304 6.20627 231.835 6.20627C232.366 6.20627 232.992 5.97342 233.225 5.69262C233.482 5.381 234.232 5.17897 235.129 5.17897C235.944 5.17897 236.704 5.02487 236.821 4.83653C236.937 4.64819 238.238 4.4941 239.711 4.4941C241.673 4.4941 242.502 4.35712 242.813 3.98044C243.395 3.27845 246.683 3.27845 247.265 3.98044C247.498 4.26124 248.125 4.4941 248.655 4.4941C249.186 4.4941 249.717 4.64819 249.833 4.83653C249.95 5.02487 250.48 5.17897 251.011 5.17897C251.542 5.17897 252.169 5.41182 252.402 5.69262C252.634 5.97342 253.038 6.20627 253.299 6.20627C254.394 6.20627 257.538 10.1922 257.538 11.5791C257.538 11.8359 257.767 12.1372 258.052 12.2468C258.49 12.4146 258.565 13.7467 258.565 21.3214C258.565 28.896 258.49 30.2281 258.052 30.3959C257.658 30.5466 257.538 31.1903 257.538 33.1251C257.538 34.5839 257.394 35.6557 257.196 35.6557C257.007 35.6557 256.853 36.094 256.853 36.6282C256.853 37.8884 253.052 41.8195 251.836 41.8195C250.391 41.8195 249.662 42.8057 249.662 44.7645C249.662 45.9151 249.84 46.6787 250.176 46.9561C250.491 47.2163 250.689 47.9662 250.689 48.8805C250.689 49.7058 250.843 50.3804 251.032 50.3804C251.224 50.3804 251.374 51.2981 251.374 52.4453C251.374 53.9657 251.511 54.5615 251.888 54.7088C252.265 54.8526 252.402 55.445 252.402 56.9243C252.402 58.0407 252.556 58.9413 252.744 58.9413C252.936 58.9413 253.086 59.859 253.086 61.0062C253.086 62.5266 253.223 63.1224 253.6 63.2697C253.994 63.4203 254.114 64.0641 254.114 65.9989C254.114 67.4234 254.261 68.5295 254.449 68.5295C254.634 68.5295 254.881 68.913 255.001 69.3856C255.268 70.4505 255.384 70.4505 256.381 69.3719C257.148 68.5466 257.343 68.5089 260.36 68.6014L263.531 68.7007L263.633 69.7588C263.695 70.3992 263.531 70.9847 263.205 71.2552C262.914 71.4984 262.675 71.9127 262.675 72.1798C262.675 72.7791 260.757 74.6933 260.154 74.6933C259.911 74.6933 259.35 75.0768 258.908 75.5494C258.13 76.3747 257.952 76.4055 253.713 76.4055C249.775 76.4055 249.248 76.3336 248.635 75.7206C248.258 75.3439 247.95 74.8132 247.95 74.5426C247.95 74.2721 247.796 73.9536 247.607 73.8372C247.419 73.7208 247.265 72.1935 247.265 70.4334C247.265 68.0158 247.142 67.1392 246.751 66.8173C246.412 66.5365 246.238 65.7694 246.238 64.5709C246.238 63.5676 246.084 62.6533 245.895 62.5369C245.707 62.4204 245.553 61.2493 245.553 59.9378C245.553 58.1297 245.426 57.5031 245.039 57.3524C244.662 57.2086 244.526 56.6196 244.526 55.1574C244.526 54.0582 244.371 53.0651 244.183 52.9487C243.995 52.8322 243.841 51.9179 243.841 50.9146C243.841 49.7161 243.666 48.949 243.327 48.6682C242.961 48.3635 242.813 47.5622 242.813 45.8877C242.813 43.8125 242.738 43.5317 242.17 43.5317C241.817 43.5317 241.334 43.3023 241.101 43.0181C240.796 42.6516 239.995 42.5044 238.321 42.5044C236.978 42.5044 235.965 42.3572 235.965 42.162C235.965 41.9736 235.194 41.8195 234.252 41.8195H232.54V55.6882V69.5568H235.109H237.677V71.0395C237.677 72.1764 237.478 72.7072 236.821 73.3236C236.348 73.7653 235.965 74.3269 235.965 74.5734C235.965 74.8166 235.266 75.7138 234.413 76.5664L232.866 78.1177H228.763H224.664V75.2275ZM238.533 39.4225C238.649 39.2341 239.66 39.08 240.779 39.08C241.906 39.08 242.813 38.926 242.813 38.7376C242.813 38.5493 243.464 38.3952 244.258 38.3952C245.519 38.3952 245.909 38.1897 247.34 36.7823C248.241 35.8954 248.977 34.8921 248.977 34.5565C248.977 34.2175 249.131 33.9435 249.32 33.9435C249.508 33.9435 249.662 33.2689 249.662 32.4437C249.662 31.5293 249.861 30.7794 250.176 30.5192C250.58 30.1836 250.689 29.2248 250.689 26.047C250.689 23.7184 250.833 21.9103 251.032 21.7871C251.549 21.4686 251.47 16.5684 250.946 16.3937C250.621 16.2841 250.641 16.0992 251.032 15.6232C251.422 15.1473 251.443 14.9623 251.117 14.8528C250.864 14.7672 250.689 14.1097 250.689 13.2399C250.689 12.377 250.484 11.5996 250.196 11.3599C249.922 11.1339 249.655 10.4593 249.597 9.86348L249.491 8.77453L246.375 8.67523C243.906 8.5999 243.169 8.68893 242.824 9.10328C242.533 9.45598 241.786 9.63062 240.567 9.63062C239.564 9.63062 238.649 9.78472 238.533 9.97306C238.416 10.1614 237.886 10.3155 237.355 10.3155C236.824 10.3155 236.197 10.5483 235.965 10.8291C235.732 11.1099 235.314 11.3428 235.04 11.3428C234.766 11.3428 234.092 11.7948 233.54 12.3427L232.54 13.346V24.4992C232.54 34.6969 232.588 35.6557 233.112 35.6557C233.903 35.6557 234.937 36.6556 234.937 37.4192C234.937 37.974 235.28 38.1966 236.006 38.1075C236.122 38.0938 236.571 38.4602 237.006 38.9225C237.865 39.8368 238.208 39.9498 238.533 39.4225ZM102.131 76.6418C101.22 75.6692 101.069 72.6421 101.901 71.9538C102.268 71.6491 102.415 70.8478 102.415 69.1732C102.415 67.8309 102.562 66.8173 102.757 66.8173C102.97 66.8173 103.1 65.0606 103.1 62.2355C103.1 58.5578 103.203 57.5715 103.62 57.2223C104.062 56.8559 104.127 55.671 104.048 49.3908L103.956 41.9907L101.227 41.888C99.3741 41.8195 98.3091 41.6209 97.9187 41.2648C97.0695 40.4977 95.4224 40.7785 95.2888 41.7134C95.2204 42.1791 94.8985 42.501 94.4328 42.5695C93.8061 42.6585 93.6657 42.9324 93.5767 44.2166C93.515 45.0658 93.3233 45.9048 93.1486 46.0828C92.9671 46.2678 92.8267 49.8736 92.8267 54.3492C92.8267 61.0952 92.748 62.3211 92.3131 62.4889C91.885 62.6533 91.7994 63.6087 91.7994 68.1391C91.7994 72.6695 91.885 73.6249 92.3131 73.7893C92.5973 73.8988 92.8267 74.2995 92.8267 74.683C92.8267 75.2652 92.6041 75.3782 91.457 75.3782C90.7036 75.3782 90.0872 75.2309 90.0872 75.0494C90.0872 74.8714 88.9709 74.6796 87.6046 74.6214L85.1219 74.5221L85.0295 65.5332C84.9713 59.6125 85.0569 56.5442 85.2863 56.5442C85.5123 56.5442 85.6356 54.0102 85.6356 49.3942C85.6356 43.4564 85.7212 42.1722 86.1492 41.8195C86.5602 41.4771 86.6629 40.4327 86.6629 36.5118C86.6629 32.5909 86.7656 31.5465 87.1766 31.204C87.5738 30.8753 87.6902 29.9678 87.6902 27.2455C87.6902 25.2594 87.8409 23.6191 88.0326 23.4992C88.221 23.3828 88.3751 21.8556 88.3751 20.0954C88.3751 17.6778 88.4984 16.8012 88.8887 16.4793C89.2654 16.1677 89.4024 15.339 89.4024 13.3769C89.4024 11.9044 89.5565 10.6031 89.7448 10.4867C89.9332 10.3703 90.0872 9.61008 90.0872 8.79508C90.0872 7.8979 90.2893 7.14797 90.6009 6.89114C90.8851 6.65829 91.1146 6.24051 91.1146 5.96999C91.1146 5.15157 92.0254 4.4941 93.1555 4.4941C93.7855 4.4941 94.2992 4.28521 94.4156 3.98044C94.5595 3.60376 95.1484 3.46679 96.6106 3.46679C97.7099 3.46679 98.7029 3.31269 98.8193 3.12436C98.9358 2.93602 99.7063 2.78192 100.532 2.78192C101.357 2.78192 102.127 2.93602 102.244 3.12436C102.36 3.31269 103.12 3.46679 103.935 3.46679C104.833 3.46679 105.582 3.66883 105.839 3.98044C106.072 4.26124 106.699 4.4941 107.23 4.4941C107.76 4.4941 108.291 4.64819 108.408 4.83653C108.524 5.02487 108.842 5.17897 109.113 5.17897C109.945 5.17897 110.976 6.49392 110.976 7.55547C110.976 8.11021 111.13 8.65811 111.318 8.77453C111.541 8.91151 111.661 16.2533 111.661 29.6836C111.661 43.2543 111.544 50.3804 111.318 50.3804C111.099 50.3804 110.976 53.0514 110.976 57.7051C110.976 63.9819 110.9 65.0606 110.448 65.2352C110.017 65.3996 109.942 66.0091 110.02 68.6082L110.12 71.7826L112.171 71.9538C114.996 72.1901 115.047 72.8031 112.462 75.3987L110.462 77.4088L106.668 77.4225C103.141 77.4328 102.826 77.378 102.131 76.6418ZM103.37 37.611L104.812 36.142V23.7424C104.812 16.1198 104.685 11.3428 104.487 11.3428C104.305 11.3428 104.113 10.3806 104.059 9.20258L103.956 7.06236L102.442 6.95278C101.34 6.87402 100.843 6.99387 100.627 7.38082C100.46 7.67874 100.073 7.91845 99.761 7.91845C99.4494 7.91845 98.6858 8.41155 98.066 9.01424C97.0695 9.97648 96.936 10.3223 96.936 11.9044C96.936 12.8906 96.7819 13.7946 96.5935 13.9111C96.4052 14.0275 96.2511 15.4075 96.2511 16.9759C96.2511 19.1983 96.1381 19.8729 95.7374 20.027C95.3299 20.1845 95.2238 20.9002 95.2238 23.4684C95.2238 25.2628 95.0697 26.8072 94.8813 26.9236C94.6862 27.0435 94.5389 28.831 94.5389 31.1116C94.5389 34.2997 94.4293 35.2105 93.9842 35.7002C93.2274 36.5358 93.6246 37.3644 94.7855 37.3781C95.3094 37.385 96.0353 37.6144 96.4018 37.8918C96.823 38.2103 97.8571 38.3952 99.2268 38.3952C100.439 38.3952 101.388 38.5458 101.388 38.7376C101.388 39.3848 101.932 39.0766 103.37 37.611ZM207.436 76.9328C207.097 76.5938 206.012 76.4021 204.07 76.3336L201.207 76.2343L201.105 74.4673C201.019 72.9572 201.129 72.5771 201.875 71.8305C202.355 71.3511 202.748 70.7382 202.748 70.4711C202.748 70.204 202.978 69.7896 203.262 69.5568C203.546 69.3239 203.776 68.9061 203.776 68.6356C203.776 68.3617 203.546 67.9062 203.262 67.6254C202.813 67.1768 202.748 63.2697 202.748 36.659V6.20627H201.779C200.581 6.20627 200.303 5.95629 200.69 5.22691C200.851 4.91872 201.071 4.39479 201.173 4.06605C201.303 3.64486 201.714 3.46679 202.567 3.46679C203.231 3.46679 203.776 3.31269 203.776 3.12436C203.776 2.92574 204.854 2.78192 206.323 2.78192C207.724 2.78192 208.967 2.93602 209.083 3.12436C209.2 3.31269 209.724 3.46679 210.248 3.46679C210.775 3.46679 211.457 3.74759 211.772 4.09345C212.48 4.88105 212.487 5.17897 211.789 5.17897C211.142 5.17897 208.837 7.38425 209.152 7.70271C209.272 7.81914 209.652 7.91845 209.998 7.91845C210.672 7.91845 210.84 8.42868 210.282 8.77453C209.816 9.06218 209.809 54.2225 210.275 54.6882C210.47 54.8834 210.648 58.3968 210.703 63.0608L210.796 71.0977L214.152 71.197C216.689 71.269 217.552 71.4128 217.696 71.7894C217.925 72.3887 215.836 74.6933 215.059 74.6933C214.758 74.6933 214.148 75.0768 213.706 75.5494C213.234 76.0528 212.522 76.4055 211.977 76.4055C211.467 76.4055 210.857 76.6349 210.624 76.9191C210.08 77.5766 208.087 77.5835 207.436 76.9328Z" fill="white"/>
</svg>
