<svg width="330" height="62" viewBox="0 0 330 62" fill="none" xmlns="http://www.w3.org/2000/svg">
<path d="M136.97 61.6428C136.691 61.4652 136.095 61.3143 135.644 61.3143C134.627 61.3076 130.526 60.3121 130.068 59.9602C129.883 59.8194 128.813 59.4473 127.685 59.1356C124.136 58.1535 121.571 55.4518 120.359 51.4195C120.025 50.3133 119.601 48.9156 119.416 48.3156C119.231 47.7156 119.059 44.9234 119.029 42.1078C118.975 36.8353 119.258 35.4308 120.692 33.785C121.362 33.0208 123.985 33.547 127.123 35.0688C129.853 36.3928 129.924 36.5537 129.062 39.3827C128.412 41.5112 128.402 46.9849 129.042 49.3078C130.129 53.2496 131.87 57.0641 132.732 57.3959C133.439 57.6641 137.098 55.1602 137.6 54.0641C138.378 52.3647 137.408 45.3759 136.071 43.0497C135.644 42.3056 135.294 41.4743 135.29 41.1961C135.287 40.9179 134.907 39.9525 134.445 39.0442C133.981 38.1358 133.604 37.271 133.604 37.1168C133.604 36.9626 133.227 36.0543 132.762 35.099C132.297 34.1437 131.92 33.1817 131.92 32.9638C131.92 32.7426 131.695 32.3738 131.415 32.1459C131.136 31.918 130.91 31.5258 130.91 31.2744C130.91 31.023 130.372 29.6487 129.712 28.2141C129.052 26.7828 128.274 25.0801 127.978 24.4365C127.685 23.7929 127.314 23.0019 127.156 22.6801C126.998 22.3617 126.87 21.8052 126.87 21.4432C126.87 21.0846 126.729 20.7024 126.56 20.5985C126.389 20.4913 126.143 19.9214 126.012 19.3315C125.88 18.7416 125.655 18.0276 125.51 17.7427C124.587 15.9628 124.086 12.9997 124.049 9.10815L124.008 4.9216L125.473 3.66127C128.24 1.28811 131.755 1.13728 136.26 3.19872C138.23 4.10038 138.546 4.00988 138.711 2.4814C138.856 1.17415 140.024 1.0099 141.755 2.05905C142.441 2.47469 143.849 3.31268 144.879 3.91602C145.913 4.51937 146.902 5.35064 147.077 5.75958C147.407 6.52382 148.003 10.6601 148.293 14.2131C148.599 17.917 147.327 18.2421 143.135 15.5405C141.872 14.726 140.718 14.0556 140.566 14.0522C140.415 14.0489 139.809 13.6936 139.219 13.2612C138.63 12.8288 137.661 12.2858 137.068 12.0511C135.91 11.5986 134.277 9.73831 134.277 8.87352C134.277 8.58525 134.125 8.34726 133.94 8.34726C133.142 8.34726 133.674 10.0668 136.213 15.7215C136.667 16.7338 137.159 17.8667 137.307 18.2354C137.452 18.6041 137.98 19.8108 138.482 20.917C138.984 22.0231 139.586 23.3806 139.819 23.9337C140.051 24.4868 140.66 25.918 141.176 27.118C141.691 28.318 142.233 29.5985 142.377 29.9672C142.707 30.8051 144.286 34.3347 144.916 35.6319C145.175 36.1682 145.387 36.8755 145.387 37.2073C145.387 37.5392 145.734 38.4609 146.158 39.2553C146.586 40.0497 147.145 41.833 147.404 43.2106C147.667 44.5916 148.074 46.0966 148.313 46.5592C148.613 47.1324 148.751 48.9491 148.751 52.3111L148.754 57.2216L147.155 58.4116C146.276 59.0618 145.179 59.8797 144.714 60.225C142.738 61.7032 138.32 62.511 136.97 61.6428ZM84.4487 60.7378C84.1692 60.6372 83.4891 60.359 82.9336 60.1211C82.3781 59.8831 81.1997 59.5915 80.3176 59.4708C77.4862 59.0887 77.5198 59.2563 77.7151 46.4016C77.806 40.3112 77.8733 29.6889 77.8599 22.7974L77.8363 10.2612L76.8498 9.41988C76.3078 8.95397 75.7119 8.21989 75.5267 7.78414C75.3415 7.34839 74.3719 6.50706 73.3753 5.91042C70.9344 4.45569 70.5573 3.81881 71.6515 2.99089C72.7154 2.18643 73.9982 1.96185 76.5367 2.13615C78.6915 2.28364 80.4826 3.00765 82.5027 4.54619C83.1895 5.06908 84.1187 5.75623 84.5631 6.06796C85.4015 6.6579 85.9267 8.65564 86.2735 12.5372C86.3543 13.4589 86.4317 14.3271 86.4452 14.4645C86.5428 15.5036 88.5932 12.4601 91.593 6.81209C92.3875 5.32383 93.3403 3.6948 93.7107 3.19536C94.7207 1.84789 96.559 1.34845 99.7507 1.55962C102.309 1.72722 103.074 1.97525 105.996 3.60764C106.275 3.76183 106.956 4.12384 107.511 4.41211C108.067 4.70038 108.703 5.28361 108.925 5.7093C109.147 6.135 109.763 6.86571 110.295 7.33163C111.171 8.10257 111.588 8.74614 112.922 11.374C113.699 12.8992 114.076 18.7449 114.033 28.5359C113.995 36.6643 114.07 38.2833 114.504 38.947C114.938 39.6073 114.952 39.8553 114.575 40.5458C114.09 41.4374 113.191 51.52 113.305 54.7412C113.346 55.8306 113.514 56.8596 113.676 57.0205C113.841 57.1848 114.871 57.6809 115.962 58.1233C117.352 58.6864 117.948 59.1088 117.948 59.5311C117.948 60.0708 117.541 60.1445 114.076 60.2417C111.945 60.2987 109.447 60.1914 108.521 60.0037C107.595 59.8194 106.158 59.5445 105.326 59.397C104.107 59.1792 103.723 58.9345 103.34 58.1233C103.077 57.5702 102.75 57.0742 102.619 57.0205C102.313 56.8965 102.508 50.0418 102.831 49.5223C102.963 49.3111 103.198 47.615 103.353 45.7547C103.511 43.891 103.73 41.7257 103.841 40.9414C104.107 39.1011 103.414 38.0051 101.441 37.1369C99.4746 36.2688 97.6599 36.5772 95.0203 38.2296C92.8117 39.614 93.0238 39.5972 89.078 38.6587L88.1521 38.4375L88.1218 43.2508C88.0915 48.272 87.7346 53.2329 87.3138 54.5099C87.031 55.3714 87.3273 55.5323 90.9297 56.501C93.7073 57.2451 93.8117 57.701 91.6401 59.6049C90.0947 60.9557 90.0476 60.9724 87.5158 60.9456C86.1051 60.9322 84.7281 60.8384 84.4487 60.7378ZM104.084 29.3135C104.205 26.451 104.464 23.4611 104.666 22.6667C104.882 21.8086 104.986 18.8388 104.925 15.3561C104.835 10.3919 104.723 9.34614 104.212 8.57185L103.609 7.65341L102.612 8.35732C102.067 8.74614 101.619 9.202 101.619 9.3696C101.619 9.93607 97.165 17.6455 95.7442 19.536C94.9665 20.5684 93.5928 22.2577 92.6905 23.2901C90.9499 25.2745 91.0778 25.2342 88.3541 24.5739L87.3744 24.3393L87.6168 27.8219C87.7481 29.7392 87.9939 31.4487 88.1622 31.6163C88.3508 31.8074 89.0948 31.7571 90.0779 31.4889C92.199 30.9091 94.2898 30.9292 96.6162 31.556C98.5757 32.0856 102.851 34.0364 103.171 34.5492C103.663 35.347 103.888 34.0632 104.084 29.3135ZM237.974 60.0205C233.765 57.8786 230.18 54.8049 229.412 52.6798C229.096 51.8016 228.601 50.4809 228.314 49.7435C228.028 49.0061 227.682 48.1011 227.543 47.7323C227.405 47.3636 226.968 46.3681 226.574 45.5201C226.18 44.672 225.766 43.5223 225.655 42.9659C225.362 41.5212 224.012 40.1905 222.837 40.1905C222.305 40.1905 221.439 39.9726 220.914 39.7078C220.389 39.443 219.355 38.9704 218.615 38.6553C217.874 38.3403 216.867 37.804 216.376 37.4621C215.884 37.1202 215.339 36.8386 215.164 36.8386C214.989 36.8386 214.746 39.2051 214.622 42.1179C214.497 45.0206 214.235 48.7279 214.036 50.3536C213.841 51.9759 213.76 53.5245 213.864 53.7893C213.999 54.1379 214.645 54.2686 216.221 54.2686C217.413 54.2686 218.632 54.3591 218.924 54.4731C220.076 54.9122 219.325 57.0708 217.615 58.2373C216.43 59.0451 213.09 60.054 211.797 59.9937C209.767 59.8965 209.07 59.9233 207.616 60.1445C206.302 60.3423 205.872 60.2652 205.03 59.6652C203.444 58.5423 202.522 56.8161 202.727 55.3479C202.821 54.6608 203.06 52.9681 203.259 51.5871C203.458 50.2061 203.66 46.0564 203.71 42.3693C203.838 32.9236 203.269 8.63218 202.902 7.92827C202.737 7.60649 202.37 7.34169 202.091 7.34169C201.811 7.34169 200.643 6.91264 199.495 6.38974C198.343 5.86684 196.929 5.25344 196.347 5.02551C195.347 4.62998 195.313 4.55959 195.674 3.59424C195.886 3.03782 196.64 2.05235 197.354 1.40878C198.653 0.242311 198.653 0.242315 201.033 0.480302C202.858 0.661305 204.013 1.03001 205.966 2.049C207.366 2.77972 208.865 3.70149 209.296 4.10037C210.218 4.95176 211.851 8.33721 212.174 10.0735C212.518 11.9104 213.161 12.2791 214.339 11.3137C214.868 10.8813 215.854 9.84222 216.531 9.00759C218.433 6.6646 220.833 4.2311 222.318 3.13837C223.587 2.20319 223.84 2.14621 226.769 2.16967C229.028 2.18643 230.038 2.33056 230.473 2.70263C230.802 2.98084 231.567 3.40318 232.173 3.64116C232.775 3.87915 234.476 5.23333 235.95 6.64784C238.034 8.64893 238.866 9.73496 239.698 11.5483C240.734 13.8142 240.765 14.012 240.785 18.7382C240.798 22.9315 240.697 23.9203 240.031 25.9449C239.26 28.2979 235.876 35.0654 234.536 36.9358C233.967 37.7302 233.903 38.0419 234.216 38.4743C234.435 38.7727 234.698 39.2419 234.802 39.5201C234.907 39.7984 235.132 40.2844 235.304 40.6062C235.476 40.9246 235.617 41.4374 235.617 41.7458C235.617 42.0508 236.819 44.7324 238.287 47.6988C240.812 52.8005 241.583 53.9066 244.192 56.1826C245.381 57.2216 245.259 58.0764 243.697 59.6317C242.021 61.3009 240.667 61.3914 237.974 60.0205ZM222.123 34.2375C222.941 33.7716 223.965 32.9973 224.399 32.518C225.23 31.5895 227.873 26.3907 227.873 25.6767C227.873 25.4454 228.072 24.9594 228.314 24.594C228.557 24.232 228.961 23.2566 229.21 22.4253C229.459 21.5941 229.846 20.612 230.072 20.2399C230.54 19.4622 230.823 17.6958 231.085 13.8779C231.247 11.5416 231.186 11.0891 230.604 10.3651L229.941 9.53049L226.022 13.4623C221.099 18.4064 219.978 19.0935 216.699 19.1773L214.238 19.241L214.272 20.5818C214.288 21.3192 214.426 24.3929 214.578 27.413L214.851 32.9035L216.894 34.1872C219.177 35.6252 219.672 35.6286 222.123 34.2375ZM284.28 59.5613C283.95 58.7702 283.318 57.4228 282.876 56.568C282.439 55.7166 282.079 54.6976 282.079 54.3055C282.079 53.9166 281.927 53.5982 281.742 53.5982C281.031 53.5982 281.466 52.425 282.967 50.2899C283.829 49.0664 284.711 47.9167 284.93 47.7323C285.146 47.548 285.472 47.1324 285.654 46.8072C285.836 46.4821 286.607 45.5 287.368 44.6285C288.132 43.7536 289.378 42.2855 290.142 41.3637C290.906 40.4419 292.438 38.709 293.549 37.509C295.344 35.5716 300.468 29.4074 301.764 27.6208C302.033 27.2521 303.054 25.9516 304.033 24.7281C305.013 23.5047 306.723 21.3326 307.834 19.8946C308.945 18.46 310.578 16.4522 311.46 15.4366C312.346 14.4209 313.016 13.4321 312.952 13.2377C312.77 12.6947 307.818 11.069 304.72 10.5361C302.501 10.1539 301.111 10.1238 297.818 10.402C295.549 10.5897 293.559 10.878 293.394 11.0355C293.223 11.2031 293.408 11.9841 293.835 12.8891C294.805 14.9405 294.664 16.107 293.398 16.5494C292.502 16.8611 292.33 16.774 291.095 15.3863C290.357 14.5617 289.522 13.4388 289.24 12.8925C288.957 12.3461 288.516 11.6925 288.263 11.4411C288.011 11.1863 287.802 10.8344 287.802 10.6534C287.802 10.4724 287.425 9.76848 286.96 9.08804C285.806 7.39867 285.876 6.32941 287.213 5.12272C288.267 4.17412 291.24 2.98419 292.553 2.98419C292.903 2.98419 293.189 2.83335 293.189 2.649C293.189 2.26688 302.697 2.16967 303.077 2.54844C303.431 2.90039 307.053 3.97971 307.898 3.98641C308.306 3.98641 308.723 4.13054 308.831 4.30149C309.319 5.08919 312.895 5.7227 316.234 5.60874C319.069 5.51488 319.921 5.35064 321.48 4.60316C322.5 4.11043 323.625 3.39312 323.971 3.011C324.375 2.56519 325.018 2.3138 325.742 2.3138C326.756 2.3138 326.954 2.47134 327.537 3.73837C327.897 4.52272 328.644 5.96739 329.197 6.94951C330.173 8.6858 330.186 8.7629 329.628 9.63105C329.311 10.1238 328.873 10.7137 328.651 10.9484C328.429 11.1796 327.143 12.8388 325.793 14.6355C323.608 17.5382 317.372 25.365 313.585 29.9571C312.831 30.8722 312.1 31.7772 311.962 31.9683C311.824 32.156 310.726 33.5202 309.518 34.995C308.312 36.4699 306.986 38.109 306.572 38.6352C306.154 39.1615 305.397 40.0464 304.888 40.5995C304.38 41.1492 303.956 41.6989 303.952 41.8196C303.946 41.9369 303.188 42.8654 302.269 43.8776C301.35 44.8899 300.596 45.8385 300.596 45.9826C300.596 46.1268 300.064 46.7737 299.417 47.4206C298.771 48.0642 298.239 48.7379 298.239 48.9156C298.239 49.0966 299.054 49.2407 300.05 49.2407C301.198 49.2407 302.003 49.415 302.256 49.7133C302.471 49.9748 303.589 50.2899 304.737 50.4139C307.568 50.7189 317.238 50.7223 319.113 50.4206C320.561 50.186 321.807 49.4586 321.807 48.8552C321.807 48.6977 321.541 48.567 321.217 48.5603C320.894 48.5536 320.335 48.329 319.975 48.0575C319.615 47.786 318.632 47.5614 317.787 47.5581C316.043 47.5547 315.797 47.4307 314.958 46.1167C314.497 45.3961 314.339 44.3972 314.292 41.9268L314.231 38.6822L315.507 38.5783C316.793 38.471 318.389 38.8699 321.807 40.1469C324.106 41.0084 326.443 43.3983 327.281 45.7413C328.109 48.0709 328.086 53.5882 327.237 55.4418C326.621 56.7926 325.194 57.6607 321.47 58.9445C319.739 59.5412 311.612 59.7758 309.181 59.2965C308.07 59.0786 306.329 58.8239 305.309 58.73C304.289 58.6362 303.286 58.4183 303.074 58.2473C302.569 57.835 294.424 57.4596 292.425 57.7579C291.253 57.9356 290.58 58.2808 289.785 59.1188C288.994 59.9534 288.364 60.2786 287.334 60.3825C286.573 60.4596 285.711 60.6305 285.418 60.7613C285.014 60.9423 284.742 60.6507 284.28 59.5613ZM17.1131 59.4808C15.9112 59.082 14.4399 58.4987 13.8473 58.187C13.2548 57.8753 12.4871 57.6205 12.1437 57.6205C10.5714 57.6205 9.49744 55.2541 10.3425 53.6585C10.5075 53.3502 10.7532 45.0642 10.8879 35.2464L11.1371 17.3975H9.89472C8.48741 17.3975 5.69635 16.5695 4.05673 15.6612C3.45071 15.326 2.67298 15.0511 2.33294 15.0511C1.232 15.0511 -0.10461 13.7271 0.00649337 12.7517C0.134431 11.6724 0.925622 11.4713 2.71675 12.0612C3.99276 12.4802 4.06346 12.4634 4.99269 11.4679C7.22486 9.09474 9.3695 4.71378 9.3695 2.54173C9.3695 1.41549 10.861 0.436729 11.8508 0.912702C12.2447 1.10376 13.477 1.5261 14.588 1.85459C15.699 2.18308 17.1232 2.79983 17.7494 3.22217C18.3756 3.64451 19.0928 3.98976 19.3352 3.98976C20.3014 3.98976 20.4799 5.38082 20.4799 12.8958C20.4799 19.6432 20.5438 20.555 21.0455 20.9203C21.5303 21.2723 21.7323 21.1583 22.436 20.1259C22.8905 19.4589 23.9847 17.3773 24.8701 15.4936C27.5333 9.82546 32.4622 2.92385 34.6405 1.80096C36.0849 1.05683 37.8322 1.19762 39.6065 2.20319C40.4752 2.69258 41.8656 3.46016 42.7006 3.90261C45.3267 5.30707 45.2089 4.90819 45.394 12.7986C45.4849 16.7103 45.6836 19.9114 45.8317 19.9114C46.2357 19.9114 49.0975 14.1327 49.0975 13.3215C49.0975 13.117 50.2287 10.6601 51.6091 7.86123C54.0669 2.88698 55.3597 0.962978 56.2351 0.98309C57.1744 0.99985 63.7194 4.53948 64.2783 5.33053C64.8271 6.10483 64.8877 8.01542 65.0964 30.1348C65.221 43.3179 65.423 54.1915 65.5442 54.3055C65.9381 54.6708 68.4329 55.8507 69.4665 56.1591C70.8401 56.5714 70.9647 57.6574 69.7493 58.6093C68.9076 59.2663 68.5137 59.3233 65.7731 59.1959C62.4097 59.035 60.9687 58.7535 60.2079 58.1099C59.9284 57.8753 58.9453 57.4328 58.0194 57.1311C54.7873 56.0719 55.0601 57.7043 55.2116 40.3749C55.3092 29.0789 55.2452 25.1069 54.959 25.1069C54.7503 25.1069 54.1578 25.7102 53.6426 26.4443C51.6966 29.2465 48.8214 31.318 46.5724 31.5426L45.5624 31.6431V38.5146C45.5624 42.2922 45.6398 47.424 45.7307 49.9111L45.899 54.4362L47.2458 54.8384C47.9865 55.0597 49.2355 55.4049 50.0233 55.606C50.8381 55.8138 51.4542 56.1691 51.4542 56.4339C51.4542 56.6887 50.8347 57.4261 50.0738 58.073C48.9291 59.0484 48.34 59.2864 46.6229 59.4574C45.4816 59.5747 43.7982 59.5009 42.8689 59.2965C41.9431 59.092 40.4752 58.7937 39.6099 58.6328C36.7481 58.0998 35.2533 56.9334 35.2499 55.2306C35.2331 48.3357 35.7718 26.87 35.9671 26.6152C36.3475 26.1192 36.4047 15.3863 36.0276 15.3863C35.8526 15.3863 35.5159 15.8757 35.2802 16.4757C35.0412 17.0757 34.6641 17.7896 34.4385 18.0678C34.2163 18.346 33.8426 19.174 33.6103 19.9114C33.378 20.6488 33.011 21.4767 32.7955 21.755C32.5801 22.0332 32.1626 22.7873 31.8663 23.4309C30.9876 25.3516 27.0013 29.7392 25.6041 30.3225C24.9005 30.6174 23.6884 30.8018 22.8366 30.7415L21.3216 30.6375L21.2273 41.3637C21.1768 47.2631 21.2071 52.3915 21.298 52.7602C21.4529 53.387 22.3417 53.92 24.0823 54.4228C24.9139 54.6641 25.3752 55.6932 24.9611 56.3971C24.4493 57.2652 22.5841 59.2261 21.7828 59.7322C20.7256 60.4026 19.7392 60.349 17.1131 59.4808ZM174.207 60.0574C174.072 59.9233 172.87 59.7255 171.53 59.6149C169.689 59.4674 168.786 59.206 167.82 58.5524C165.47 56.9636 165.497 57.0976 165.888 49.3178C166.08 45.4966 166.319 37.6196 166.42 31.8107C166.521 26.0018 166.696 18.7583 166.81 15.7114C167.042 9.39642 166.918 9.0076 164.844 9.61765C164.235 9.79865 162.858 10.1405 161.784 10.3785C160.713 10.6132 159.757 10.9316 159.659 11.0858C159.252 11.7428 158.11 11.25 156.356 9.65451C155.323 8.71262 154.478 7.79755 154.478 7.61655C154.478 7.43554 153.946 6.64114 153.293 5.84673C152.609 5.01881 152.192 4.19759 152.303 3.90932C152.744 2.76632 156.195 1.81437 161.215 1.44901C165.167 1.1641 167.016 1.52945 170.823 3.34619C173.941 4.83444 174.271 4.86126 178.887 4.00652C182.789 3.28586 186.489 1.7909 187.209 0.644542C187.765 -0.240365 188.529 -0.213546 189.401 0.72164C189.788 1.13728 190.475 1.73057 190.93 2.0423C191.384 2.35738 192.068 3.2691 192.448 4.07356C192.829 4.87802 193.377 5.73276 193.67 5.97745C193.967 6.21879 194.202 6.73834 194.196 7.13051C194.155 9.85227 187.691 12.4064 180.698 12.4601L177.119 12.4902L177.018 14.1897C176.961 15.1248 176.961 17.1729 177.022 18.7382C177.123 21.336 177.156 40.5324 177.069 43.71C177.049 44.4475 177.123 46.9681 177.23 49.3145L177.426 53.5781L178.493 53.739C179.079 53.8261 179.786 53.9066 180.065 53.9166C180.345 53.9267 181.516 54.0273 182.674 54.1412C184.617 54.3323 184.779 54.4094 184.779 55.1602C184.779 55.6898 184.2 56.5412 183.112 57.6038C181.523 59.1624 181.334 59.2496 179.156 59.444C177.897 59.5546 176.402 59.7959 175.833 59.9736C174.594 60.3657 174.523 60.3691 174.207 60.0574ZM258.016 57.6138C255.38 56.0786 252.942 53.3535 252.666 51.644C252.542 50.8597 252.309 49.958 252.148 49.6463C251.182 47.729 251.104 46.1704 251.104 28.2476C251.104 14.0087 251.01 9.69473 250.683 9.2858C250.451 8.99418 249.656 8.56849 248.916 8.34056C247.185 7.80761 246.727 7.42884 246.727 6.53723C246.727 5.35065 247.576 4.49591 249.862 3.37637C252.407 2.12945 253.814 2.04901 256.043 3.03112C256.939 3.42665 258.178 3.83893 258.797 3.9529C260.262 4.2177 261.541 6.27577 261.282 7.94503C261.188 8.55508 261.295 9.39641 261.518 9.81205C261.804 10.3484 261.861 11.5986 261.706 14.069C261.588 15.9896 261.447 20.8064 261.396 24.7717C261.346 28.737 261.191 36.1347 261.053 41.2129C260.827 49.4586 260.858 50.491 261.339 50.8899C261.635 51.1346 261.878 51.4899 261.878 51.6809C261.878 51.872 262.265 52.5323 262.736 53.1491C263.925 54.6976 265.336 54.7111 266.13 53.1792C266.44 52.5792 267.123 51.5602 267.645 50.91L268.598 49.7334L268.77 33.8152C268.867 25.0633 268.982 16.0466 269.029 13.7807C269.127 9.18189 269.059 9.03105 266.871 9.02435C263.834 9.01094 263.874 8.3171 267.103 5.14618C269.615 2.67917 270.931 1.94174 271.729 2.56184C271.958 2.73614 273.285 3.14173 274.672 3.46017C278.321 4.29479 278.338 4.3015 278.782 5.10261C279.008 5.50484 279.311 6.81208 279.452 8.01207C279.907 11.8165 280.446 29.6957 280.331 37.2308C280.23 44.1458 280.186 44.5447 279.466 45.5134C279.052 46.0732 278.712 46.8977 278.712 47.3435C278.712 47.786 278.335 49.0027 277.87 50.0452C277.405 51.0876 277.028 52.1736 277.028 52.4586C277.028 52.7401 276.537 53.4809 275.934 54.101C274.749 55.3177 273.695 55.9613 269.234 58.1803C268.625 58.4853 266.965 58.6194 264.016 58.6093C259.858 58.5926 259.625 58.5557 258.016 57.6138Z" fill="#ffffff"/>
</svg>
